{"glyphs":{"0":{"ha":889,"x_min":67,"x_max":821,"o":"m 444 804 q 713 699 604 804 q 821 399 821 594 q 710 94 821 206 q 443 -18 600 -18 q 178 90 289 -18 q 67 396 67 199 q 176 696 67 588 q 444 804 286 804 m 444 153 q 572 216 517 153 q 626 393 626 279 q 572 572 626 510 q 443 633 518 633 q 318 573 372 633 q 264 400 264 513 q 317 217 264 281 q 444 153 369 153 z "},"1":{"ha":640,"x_min":71,"x_max":582,"o":"m 85 149 l 247 149 l 247 543 l 164 499 l 71 651 l 315 786 l 453 786 l 453 149 l 564 149 q 573 74 569 111 q 582 0 576 36 l 101 0 l 85 149 z "},"2":{"ha":713,"x_min":49,"x_max":656,"o":"m 618 557 q 574 399 618 472 q 429 243 529 326 l 326 158 l 632 158 l 656 0 l 49 0 l 49 136 l 310 365 q 408 470 382 429 q 435 550 433 511 q 406 613 435 588 q 325 639 376 639 q 213 604 275 639 q 136 560 151 569 l 49 697 q 162 767 90 731 q 331 804 233 804 q 556 726 493 804 q 618 557 618 649 z "},"3":{"ha":758,"x_min":26,"x_max":682,"o":"m 667 561 q 631 449 667 501 q 557 379 596 397 q 641 304 600 363 q 682 168 682 246 q 590 -28 682 51 q 340 -107 497 -107 q 179 -79 264 -107 q 26 -12 94 -51 l 132 124 q 238 74 189 89 q 343 58 286 58 q 442 88 399 58 q 486 169 486 118 q 444 258 486 225 q 314 290 401 290 l 228 290 l 204 450 l 304 450 q 425 478 381 450 q 469 551 469 506 q 438 613 469 588 q 347 639 406 639 q 242 617 293 639 q 150 568 192 596 l 53 706 q 199 779 122 754 q 358 804 276 804 q 587 733 507 804 q 667 561 667 663 z "},"4":{"ha":839,"x_min":38,"x_max":797,"o":"m 782 79 l 654 79 l 654 -93 l 449 -93 l 449 79 l 64 79 l 38 240 l 501 793 l 654 793 l 654 244 l 797 244 l 782 79 m 267 244 l 449 244 l 449 474 l 267 244 z "},"5":{"ha":753,"x_min":43,"x_max":700,"o":"m 107 274 l 132 786 l 654 786 l 632 622 l 306 622 l 300 482 q 344 499 321 493 q 397 504 368 504 q 624 415 547 504 q 700 207 700 326 q 608 -19 700 69 q 354 -107 515 -107 q 192 -80 278 -107 q 43 -14 107 -53 l 144 129 q 251 81 203 97 q 358 65 299 65 q 469 103 425 65 q 514 207 514 142 q 479 303 514 268 q 392 338 444 338 q 321 317 349 338 q 285 274 293 296 l 107 274 z "},"6":{"ha":803,"x_min":67,"x_max":760,"o":"m 593 744 q 425 662 506 724 q 301 521 344 600 q 374 555 336 542 q 447 568 413 568 q 672 485 585 568 q 760 286 760 401 q 674 75 760 168 q 447 -18 589 -18 q 177 78 288 -18 q 67 367 67 175 q 188 682 67 524 q 501 881 310 840 l 593 744 m 429 422 q 328 390 372 422 q 265 319 283 358 q 320 194 276 240 q 438 149 364 149 q 531 190 497 149 q 565 279 565 231 q 530 378 565 335 q 429 422 494 422 z "},"7":{"ha":713,"x_min":51,"x_max":689,"o":"m 57 -46 l 426 622 l 74 622 l 51 786 l 638 786 l 689 704 l 253 -100 l 57 -46 z "},"8":{"ha":810,"x_min":67,"x_max":742,"o":"m 406 -18 q 158 62 249 -18 q 67 263 67 142 q 110 389 67 329 q 208 472 154 449 q 132 544 163 499 q 101 644 101 590 q 185 822 101 750 q 406 893 269 893 q 624 822 539 893 q 708 644 708 750 q 678 544 708 590 q 600 472 647 499 q 699 389 656 449 q 742 263 742 329 q 653 63 742 144 q 406 -18 564 -18 m 296 640 q 324 573 296 600 q 406 536 353 546 q 486 574 458 546 q 514 640 514 601 q 483 699 514 672 q 403 726 453 726 q 326 699 356 726 q 296 640 296 672 m 404 147 q 503 180 458 147 q 549 264 549 213 q 512 347 549 307 q 406 397 475 386 q 298 347 335 386 q 261 264 261 307 q 306 180 261 213 q 404 147 350 147 z "},"9":{"ha":803,"x_min":43,"x_max":735,"o":"m 207 42 q 375 123 296 63 q 497 263 454 183 q 429 230 465 242 q 360 218 393 218 q 132 301 221 218 q 43 500 43 385 q 131 711 43 618 q 360 804 218 804 q 627 708 519 804 q 735 419 735 611 q 614 105 735 263 q 301 -96 493 -53 l 207 42 m 372 364 q 474 396 431 364 q 538 465 518 428 q 481 592 525 546 q 365 638 438 638 q 272 597 306 638 q 238 507 238 556 q 272 408 238 451 q 372 364 307 364 z "},"\u0000":{"ha":0,"x_min":0,"x_max":0,"o":""},"\r":{"ha":0,"x_min":0,"x_max":0,"o":""}," ":{"ha":321,"x_min":0,"x_max":0,"o":""}," ":{"ha":321,"x_min":0,"x_max":0,"o":""},"‌":{"ha":0,"x_min":-42,"x_max":42,"o":"m -42 1718 l 42 1718 l 42 -94 l -42 -94 l -42 1718 z "},"‍":{"ha":0,"x_min":-157,"x_max":158,"o":"m 103 1833 l 158 1778 l 56 1675 l 158 1572 l 104 1518 l 42 1579 l 42 -94 l -42 -94 l -42 1578 l -103 1518 l -157 1572 l -54 1675 l -157 1778 l -101 1833 l 0 1731 l 103 1833 z "},"◌":{"ha":933,"x_min":69,"x_max":864,"o":"m 421 753 q 433 785 421 772 q 465 799 446 799 q 498 785 485 799 q 511 753 511 772 q 498 721 511 733 q 465 708 485 708 q 433 721 446 708 q 421 753 421 733 m 560 729 q 572 762 560 749 q 604 775 585 775 q 637 762 624 775 q 650 729 650 749 q 637 697 650 710 q 604 685 624 685 q 572 697 585 685 q 560 729 560 710 m 374 729 q 361 697 374 710 q 329 685 349 685 q 297 697 310 685 q 283 729 283 710 q 297 762 283 749 q 329 775 310 775 q 361 762 349 775 q 374 729 374 749 m 678 651 q 690 684 678 671 q 722 697 703 697 q 755 684 742 697 q 768 651 768 671 q 755 619 768 632 q 722 607 742 607 q 690 619 703 607 q 678 651 678 632 m 256 651 q 243 619 256 632 q 211 607 231 607 q 178 619 192 607 q 165 651 165 632 q 178 684 165 671 q 211 697 192 697 q 243 684 231 697 q 256 651 256 671 m 751 529 q 764 562 751 549 q 796 575 776 575 q 828 562 815 575 q 842 529 842 549 q 828 497 842 510 q 796 485 815 485 q 764 497 776 485 q 751 529 751 510 m 182 529 q 169 497 182 510 q 138 485 157 485 q 105 497 118 485 q 92 529 92 510 q 105 562 92 549 q 138 575 118 575 q 169 562 157 575 q 182 529 182 549 m 774 397 q 786 430 774 417 q 818 443 799 443 q 851 430 838 443 q 864 397 864 417 q 851 365 864 378 q 818 353 838 353 q 786 365 799 353 q 774 397 774 378 m 160 397 q 147 365 160 378 q 115 353 135 353 q 83 365 96 353 q 69 397 69 378 q 83 430 69 417 q 115 443 96 443 q 147 430 135 443 q 160 397 160 417 m 751 268 q 764 301 751 288 q 796 314 776 314 q 828 301 815 314 q 842 268 842 288 q 828 236 842 249 q 796 224 815 224 q 764 236 776 224 q 751 268 751 249 m 182 268 q 169 236 182 249 q 138 224 157 224 q 105 236 118 224 q 92 268 92 249 q 105 301 92 288 q 138 314 118 314 q 169 301 157 314 q 182 268 182 288 m 679 144 q 692 177 679 164 q 724 190 704 190 q 756 177 743 190 q 769 144 769 164 q 756 113 769 125 q 724 100 743 100 q 692 113 704 100 q 679 144 679 125 m 254 144 q 242 113 254 125 q 210 100 229 100 q 177 113 190 100 q 164 144 164 125 q 177 177 164 164 q 210 190 190 190 q 242 177 229 190 q 254 144 254 164 m 374 68 q 361 36 374 49 q 329 24 349 24 q 297 36 310 24 q 283 68 283 49 q 297 101 283 88 q 329 114 310 114 q 361 101 349 114 q 374 68 374 88 m 560 68 q 572 101 560 88 q 604 114 585 114 q 637 101 624 114 q 650 68 650 88 q 637 36 650 49 q 604 24 624 24 q 572 36 585 24 q 560 68 560 49 m 421 44 q 433 77 421 64 q 465 90 446 90 q 498 77 485 90 q 511 44 511 64 q 498 13 511 25 q 465 0 485 0 q 433 13 446 0 q 421 44 421 25 z "},"A":{"ha":932,"x_min":10,"x_max":921,"o":"m 463 679 l 350 374 l 578 374 l 463 679 m 560 944 l 921 25 l 718 0 l 639 210 l 292 210 l 214 0 l 10 0 l 374 944 l 560 944 z "},"B":{"ha":901,"x_min":110,"x_max":842,"o":"m 786 675 q 762 581 785 624 q 703 508 739 539 q 803 416 764 474 q 842 278 842 358 q 740 69 842 138 q 488 0 639 0 l 110 0 l 110 944 l 450 944 q 690 882 594 944 q 786 675 786 819 m 429 778 l 313 778 l 313 568 l 435 568 q 535 594 499 568 q 572 671 572 619 q 534 754 572 731 q 429 778 496 778 m 488 404 l 313 404 l 313 164 l 479 164 q 589 194 547 164 q 631 279 631 224 q 592 372 631 339 q 488 404 553 404 z "},"C":{"ha":829,"x_min":71,"x_max":776,"o":"m 506 793 q 343 706 403 793 q 283 469 283 618 q 338 242 283 333 q 501 151 392 151 q 610 165 560 151 q 700 197 660 178 l 776 44 q 646 -2 722 15 q 506 -19 569 -19 q 176 121 282 -19 q 71 468 71 261 q 185 825 71 686 q 508 964 300 964 q 634 948 560 964 q 768 897 708 932 l 706 754 q 601 784 640 775 q 506 793 563 793 z "},"D":{"ha":983,"x_min":110,"x_max":915,"o":"m 475 0 l 110 0 l 110 944 l 475 944 q 806 813 696 944 q 915 478 915 682 q 797 129 915 258 q 475 0 679 0 m 478 776 l 313 776 l 313 167 l 468 167 q 639 240 574 167 q 704 478 704 313 q 649 696 704 615 q 478 776 593 776 z "},"E":{"ha":810,"x_min":110,"x_max":781,"o":"m 781 0 l 110 0 l 110 944 l 694 944 q 707 864 700 904 q 721 783 714 824 l 313 783 l 313 556 l 578 556 l 606 394 l 313 394 l 313 158 l 753 158 l 781 0 z "},"F":{"ha":713,"x_min":110,"x_max":696,"o":"m 596 385 l 313 385 l 313 0 l 110 0 l 110 944 l 669 944 q 683 864 676 906 q 696 783 690 822 l 313 783 l 313 544 l 569 544 l 596 385 z "},"G":{"ha":921,"x_min":71,"x_max":829,"o":"m 829 50 q 691 0 774 19 q 525 -19 608 -19 q 186 118 301 -19 q 71 468 71 256 q 200 826 71 689 q 542 964 329 964 q 675 948 593 964 q 817 897 757 932 l 753 754 q 644 784 688 775 q 544 793 601 793 q 358 713 432 793 q 283 469 283 632 q 347 233 283 315 q 524 151 411 151 q 591 155 561 151 q 646 164 621 158 l 646 372 l 461 372 l 461 526 l 829 526 l 829 50 z "},"H":{"ha":990,"x_min":110,"x_max":879,"o":"m 313 951 l 313 551 l 676 551 l 676 944 l 879 944 l 879 0 l 676 0 l 676 389 l 313 389 l 313 0 l 110 0 l 110 944 l 313 951 z "},"I":{"ha":424,"x_min":110,"x_max":313,"o":"m 313 944 l 313 0 l 110 0 l 110 944 l 313 944 z "},"J":{"ha":436,"x_min":14,"x_max":331,"o":"m 331 944 l 331 213 q 280 61 331 113 q 96 -32 229 10 l 14 122 q 107 176 89 150 q 125 254 125 203 l 125 944 l 331 944 z "},"K":{"ha":915,"x_min":97,"x_max":915,"o":"m 301 944 l 301 571 l 664 965 l 818 849 l 525 532 l 915 0 l 658 0 l 386 383 l 301 292 l 301 0 l 97 0 l 97 944 l 301 944 z "},"L":{"ha":765,"x_min":110,"x_max":751,"o":"m 751 0 l 110 0 l 110 944 l 314 944 l 314 160 l 725 160 l 751 0 z "},"M":{"ha":1071,"x_min":110,"x_max":961,"o":"m 515 281 l 313 536 l 313 0 l 110 0 l 110 944 l 243 944 l 551 533 q 692 738 622 635 q 832 944 761 842 l 961 944 l 961 0 l 756 0 l 756 515 q 676 403 717 460 q 594 292 635 347 q 555 286 575 290 q 515 281 535 282 z "},"N":{"ha":1036,"x_min":110,"x_max":925,"o":"m 925 944 l 925 0 l 726 0 l 313 594 l 313 0 l 110 0 l 110 944 l 307 944 l 721 346 l 721 944 l 925 944 z "},"O":{"ha":1031,"x_min":71,"x_max":958,"o":"m 514 965 q 849 823 739 965 q 958 478 958 681 q 841 119 958 258 q 514 -19 724 -19 q 181 123 292 -19 q 71 468 71 265 q 188 825 71 686 q 514 965 306 964 m 513 151 q 684 232 621 151 q 747 478 747 313 q 692 704 747 615 q 517 793 638 793 q 348 706 413 793 q 283 469 283 618 q 338 241 283 331 q 513 151 393 151 z "},"P":{"ha":869,"x_min":110,"x_max":818,"o":"m 110 0 l 110 944 l 439 944 q 706 869 594 944 q 818 629 818 794 q 699 388 818 465 q 428 311 579 311 l 314 311 l 314 0 l 110 0 m 433 778 l 314 778 l 314 476 l 436 476 q 555 514 510 476 q 604 622 600 551 q 559 740 604 703 q 433 778 514 778 z "},"Q":{"ha":1031,"x_min":71,"x_max":958,"o":"m 514 965 q 849 823 739 965 q 958 478 958 681 q 932 291 958 378 q 858 140 906 204 l 949 50 l 826 -57 l 732 32 q 632 -6 686 8 q 514 -19 578 -19 q 181 123 292 -19 q 71 468 71 265 q 188 825 71 686 q 514 965 306 964 m 513 151 q 556 156 535 151 q 594 168 576 160 l 479 281 l 615 389 l 715 288 q 739 371 731 324 q 747 478 747 418 q 692 704 747 615 q 517 793 638 793 q 348 706 413 793 q 283 469 283 618 q 338 241 283 331 q 513 151 393 151 z "},"R":{"ha":906,"x_min":110,"x_max":892,"o":"m 432 778 l 313 778 l 313 501 l 435 501 q 556 535 508 501 q 604 638 604 569 q 558 744 604 711 q 432 778 513 778 m 667 0 q 574 169 619 83 q 482 339 528 256 q 454 338 468 338 q 426 338 440 338 l 313 338 l 313 0 l 110 0 l 110 944 l 439 944 q 706 872 594 944 q 818 643 818 800 q 776 492 818 556 q 668 394 733 429 q 780 197 724 296 q 892 0 836 97 l 667 0 z "},"S":{"ha":772,"x_min":58,"x_max":721,"o":"m 58 704 q 147 891 60 817 q 392 965 235 965 q 535 944 463 965 q 663 892 607 922 l 597 739 q 497 776 543 761 q 394 792 450 792 q 303 769 339 792 q 268 706 268 747 q 315 632 268 663 q 435 564 361 601 q 628 440 536 513 q 721 247 721 367 q 626 58 721 133 q 360 -18 532 -18 q 203 6 296 -18 q 71 61 110 31 l 125 222 q 232 178 165 200 q 356 157 299 157 q 471 183 432 157 q 510 250 510 208 q 457 325 510 290 q 340 390 404 360 q 150 512 242 440 q 58 704 58 583 z "},"T":{"ha":825,"x_min":10,"x_max":815,"o":"m 10 944 l 788 944 l 815 783 l 499 783 l 499 0 l 294 0 l 294 783 l 10 783 l 10 944 z "},"U":{"ha":999,"x_min":100,"x_max":896,"o":"m 304 944 l 304 361 q 358 202 304 253 q 497 151 413 151 q 638 203 585 151 q 692 361 692 256 l 692 944 l 896 944 l 896 349 q 788 85 896 186 q 497 -15 679 -15 q 208 84 317 -15 q 100 349 100 183 l 100 944 l 304 944 z "},"V":{"ha":932,"x_min":10,"x_max":921,"o":"m 372 0 l 10 919 l 211 944 l 468 264 l 717 944 l 921 944 l 558 0 l 372 0 z "},"W":{"ha":1488,"x_min":10,"x_max":1478,"o":"m 957 0 l 739 643 l 529 0 l 339 0 l 10 919 l 211 944 l 436 274 l 644 944 l 840 944 l 1060 275 l 1272 944 l 1478 944 l 1147 0 l 957 0 z "},"X":{"ha":960,"x_min":10,"x_max":949,"o":"m 10 14 l 349 475 l 22 915 q 130 931 76 922 q 238 944 183 939 l 474 626 l 719 944 l 949 944 l 586 472 l 936 0 l 703 0 l 463 322 q 338 153 400 239 q 214 -14 276 68 l 10 14 z "},"Y":{"ha":869,"x_min":10,"x_max":860,"o":"m 328 0 l 328 369 l 10 921 l 221 944 l 429 568 l 647 944 l 860 944 l 532 364 l 532 0 l 328 0 z "},"Z":{"ha":815,"x_min":24,"x_max":789,"o":"m 783 790 l 264 158 l 768 158 l 789 0 l 46 0 l 24 151 l 529 783 l 85 783 l 64 944 l 761 944 l 783 790 z "},"a":{"ha":714,"x_min":58,"x_max":638,"o":"m 304 147 q 369 162 336 147 q 433 204 403 176 l 433 289 l 317 289 q 254 265 276 289 q 232 210 232 242 q 253 166 232 185 q 304 147 274 147 m 349 693 q 556 621 475 693 q 638 435 638 549 l 638 0 l 538 0 l 493 56 q 408 4 458 25 q 304 -17 357 -17 q 119 45 179 -17 q 58 207 58 107 q 130 367 58 313 q 317 421 201 421 l 432 421 q 402 489 429 464 q 331 514 375 514 q 235 501 288 514 q 143 471 182 489 l 89 632 q 213 675 132 657 q 349 693 293 693 z "},"b":{"ha":821,"x_min":92,"x_max":767,"o":"m 294 981 l 294 654 q 374 687 331 675 q 454 699 417 699 q 688 597 608 699 q 767 343 767 494 q 687 88 767 190 q 450 -15 607 -15 q 341 5 399 -15 q 238 58 283 25 q 217 29 228 44 q 194 0 206 14 l 92 0 l 92 965 l 294 981 m 557 342 q 524 471 557 414 q 401 528 490 528 q 349 518 378 528 q 294 494 319 508 l 294 194 q 350 165 319 176 q 408 154 381 154 q 524 216 490 154 q 557 342 557 278 z "},"c":{"ha":675,"x_min":53,"x_max":633,"o":"m 417 522 q 306 470 349 522 q 264 336 264 418 q 306 205 264 254 q 417 156 349 156 q 494 165 460 156 q 576 197 529 175 l 633 53 q 517 -1 583 14 q 407 -17 450 -17 q 148 78 243 -17 q 53 336 53 172 q 148 597 53 500 q 407 693 243 693 q 516 678 450 693 q 633 624 582 663 l 576 479 q 494 512 529 501 q 417 522 460 522 z "},"d":{"ha":831,"x_min":53,"x_max":740,"o":"m 418 156 q 476 167 444 156 q 535 194 508 178 l 535 481 q 475 515 508 501 q 411 528 442 528 q 297 467 329 528 q 264 342 264 406 q 297 212 264 268 q 418 156 331 156 m 740 981 l 740 0 l 635 0 l 586 67 q 487 8 546 32 q 364 -17 428 -17 q 132 85 211 -17 q 53 339 53 188 q 135 595 53 492 q 375 699 218 699 q 453 688 410 699 q 535 656 496 676 l 535 965 l 740 981 z "},"e":{"ha":761,"x_min":53,"x_max":711,"o":"m 400 693 q 635 589 558 693 q 711 342 711 485 l 711 275 l 272 275 q 330 186 286 218 q 442 154 374 154 q 527 165 488 154 q 613 197 567 175 l 672 53 q 547 -1 621 14 q 431 -17 474 -17 q 156 76 260 -17 q 53 336 53 168 q 149 597 53 500 q 400 693 244 693 m 394 524 q 314 493 347 524 q 271 407 281 463 l 517 407 q 476 492 507 460 q 394 524 446 524 z "},"f":{"ha":563,"x_min":14,"x_max":557,"o":"m 406 975 q 489 960 443 975 q 557 926 535 946 l 499 782 q 455 797 476 792 q 417 803 433 803 q 347 772 369 803 q 325 692 325 742 l 325 649 l 472 649 l 518 489 l 325 489 l 325 0 l 121 0 l 121 489 l 14 489 l 14 649 l 121 649 l 121 718 q 200 908 121 840 q 406 975 279 975 z "},"g":{"ha":831,"x_min":53,"x_max":739,"o":"m 263 340 q 296 210 263 267 q 417 154 329 154 q 476 166 443 154 q 535 193 508 178 l 535 481 q 474 514 507 500 q 411 528 440 528 q 295 466 328 528 q 263 340 263 404 m 739 672 l 739 0 q 652 -211 739 -131 q 386 -292 565 -292 q 260 -272 343 -292 q 119 -214 176 -253 l 181 -71 q 289 -115 244 -101 q 382 -128 333 -128 q 496 -94 457 -128 q 535 -1 535 -60 l 535 29 q 451 -3 496 8 q 364 -15 407 -15 q 132 86 211 -15 q 53 339 53 188 q 135 595 53 492 q 374 699 217 699 q 486 676 425 699 q 592 617 547 653 l 635 672 l 739 672 z "},"h":{"ha":831,"x_min":92,"x_max":754,"o":"m 497 699 q 695 618 636 699 q 754 419 754 538 l 754 0 l 550 0 l 550 413 q 522 498 550 468 q 442 528 493 528 q 367 510 407 528 q 294 469 328 492 l 294 0 l 92 0 l 92 965 l 294 981 l 294 636 q 394 682 338 665 q 497 699 450 699 z "},"i":{"ha":376,"x_min":75,"x_max":301,"o":"m 301 881 q 267 801 301 833 q 186 768 233 768 q 107 801 139 768 q 75 881 75 833 q 107 961 75 928 q 186 994 139 994 q 267 961 233 994 q 301 881 301 928 m 289 674 l 289 0 l 85 0 l 85 674 l 289 674 z "},"j":{"ha":397,"x_min":-32,"x_max":318,"o":"m 90 881 q 124 961 90 928 q 204 994 157 994 q 285 961 251 994 q 318 881 318 928 q 285 801 318 833 q 204 768 251 768 q 124 801 157 768 q 90 881 90 833 m 307 674 l 307 -10 q 247 -168 307 -110 q 49 -269 186 -226 l -32 -117 q 72 -56 43 -90 q 101 32 101 -22 l 101 674 l 307 674 z "},"k":{"ha":750,"x_min":92,"x_max":744,"o":"m 294 981 l 294 444 l 571 693 q 630 621 600 657 q 689 550 660 585 l 501 393 q 623 196 561 294 q 744 0 685 97 l 515 0 l 357 272 q 326 245 342 258 q 294 219 310 232 l 294 0 l 92 0 l 92 965 l 294 981 z "},"l":{"ha":386,"x_min":92,"x_max":294,"o":"m 294 981 l 294 0 l 92 0 l 92 965 l 294 981 z "},"m":{"ha":1251,"x_min":85,"x_max":1175,"o":"m 922 699 q 1117 619 1058 699 q 1175 421 1175 539 l 1175 0 l 969 0 l 969 413 q 942 498 969 468 q 867 528 915 528 q 794 510 833 528 q 722 469 756 492 q 725 445 724 457 q 726 421 726 433 l 726 0 l 521 0 l 521 413 q 494 498 521 468 q 419 528 467 528 q 355 513 389 528 q 289 481 321 499 l 289 0 l 85 0 l 85 674 l 190 674 l 238 613 q 347 674 282 649 q 474 699 411 699 q 599 673 549 699 q 679 603 649 647 q 790 671 722 643 q 922 699 858 699 z "},"n":{"ha":826,"x_min":85,"x_max":749,"o":"m 492 699 q 690 619 631 699 q 749 421 749 539 l 749 0 l 544 0 l 544 413 q 516 498 544 468 q 438 528 488 528 q 363 510 404 528 q 289 471 322 493 l 289 0 l 85 0 l 85 674 l 190 674 l 244 606 q 358 672 289 644 q 492 699 428 699 z "},"o":{"ha":829,"x_min":53,"x_max":776,"o":"m 414 693 q 678 597 581 693 q 776 332 776 500 q 672 76 776 168 q 404 -15 568 -15 q 148 78 243 -15 q 53 339 53 171 q 153 599 53 504 q 414 693 253 693 m 407 156 q 522 198 478 156 q 565 332 565 240 q 526 470 565 418 q 417 522 488 522 q 305 476 346 522 q 264 340 264 431 q 300 203 264 251 q 407 156 336 156 z "},"p":{"ha":821,"x_min":92,"x_max":767,"o":"m 557 342 q 524 471 557 414 q 401 528 490 528 q 346 518 374 528 q 294 494 318 508 l 294 194 q 350 165 319 176 q 408 154 381 154 q 524 216 490 154 q 557 342 557 278 m 92 672 l 194 672 l 235 619 q 342 678 282 657 q 454 699 401 699 q 688 597 608 699 q 767 343 767 494 q 687 88 767 190 q 450 -15 607 -15 q 374 -4 415 -15 q 294 25 332 7 l 294 -290 l 92 -304 l 92 672 z "},"q":{"ha":831,"x_min":53,"x_max":740,"o":"m 740 674 l 740 -290 l 535 -304 l 535 29 q 451 -4 496 8 q 364 -17 407 -17 q 132 85 211 -17 q 53 339 53 188 q 135 595 53 492 q 375 699 218 699 q 488 676 426 699 q 593 618 549 654 l 635 674 l 740 674 m 418 156 q 476 167 444 156 q 535 194 508 178 l 535 481 q 475 515 508 501 q 411 528 442 528 q 297 467 329 528 q 264 342 264 406 q 297 212 264 268 q 418 156 331 156 z "},"r":{"ha":514,"x_min":85,"x_max":506,"o":"m 464 674 l 506 510 q 400 488 458 510 q 289 419 342 465 l 289 0 l 85 0 l 85 672 l 189 672 l 250 583 q 350 646 292 618 q 464 674 408 674 z "},"s":{"ha":619,"x_min":46,"x_max":578,"o":"m 346 426 q 504 342 431 396 q 578 200 578 289 q 507 41 578 99 q 297 -17 436 -17 q 176 3 254 -17 q 46 61 97 22 l 106 206 q 201 169 151 183 q 286 156 250 156 q 349 167 328 156 q 369 196 369 179 q 348 235 369 218 q 279 268 326 253 q 124 344 197 294 q 50 482 50 394 q 123 638 50 582 q 325 693 196 693 q 438 675 367 693 q 563 618 510 657 l 503 474 q 414 509 457 496 q 328 522 371 522 q 278 510 294 522 q 261 481 261 499 q 280 455 261 467 q 346 426 299 443 z "},"t":{"ha":560,"x_min":10,"x_max":546,"o":"m 393 -24 q 187 40 268 -24 q 106 228 106 104 l 106 506 l 10 506 l 10 664 l 106 664 l 106 831 l 308 864 l 308 664 l 444 664 l 489 506 l 308 506 l 308 258 q 333 178 308 210 q 406 147 358 147 q 444 153 424 147 q 486 168 465 158 l 546 24 q 476 -10 522 4 q 393 -24 431 -24 z "},"u":{"ha":817,"x_min":76,"x_max":731,"o":"m 331 -26 q 134 54 192 -26 q 76 251 76 135 l 76 674 l 282 674 l 282 260 q 309 174 282 204 q 386 144 336 144 q 456 160 418 144 q 526 197 494 176 l 526 674 l 731 674 l 731 0 l 625 0 l 574 64 q 462 0 529 26 q 331 -26 394 -26 z "},"v":{"ha":726,"x_min":10,"x_max":717,"o":"m 268 0 l 10 649 l 217 674 l 365 275 l 507 674 l 717 674 l 451 0 l 268 0 z "},"w":{"ha":1097,"x_min":10,"x_max":1086,"o":"m 678 0 l 543 392 l 414 0 l 236 0 l 10 649 l 217 674 l 332 285 l 442 674 l 653 674 l 769 285 l 876 674 l 1086 674 l 854 0 l 678 0 z "},"x":{"ha":778,"x_min":10,"x_max":767,"o":"m 10 0 l 261 339 l 25 644 q 129 660 76 651 q 235 674 182 668 l 386 474 l 543 674 l 767 674 l 508 317 l 753 0 l 525 0 l 382 182 q 310 90 347 136 q 238 0 274 44 l 10 0 z "},"y":{"ha":726,"x_min":10,"x_max":717,"o":"m 231 -22 l 254 35 l 10 649 l 215 674 q 290 474 253 574 q 364 274 328 374 l 506 674 l 717 674 l 417 -85 q 301 -226 383 -167 q 126 -307 219 -285 l 56 -142 q 160 -93 106 -122 q 231 -22 214 -64 z "},"z":{"ha":639,"x_min":24,"x_max":611,"o":"m 593 558 q 442 360 518 460 q 290 163 365 261 l 594 163 l 611 0 l 49 0 l 24 107 q 152 279 85 186 q 325 508 219 372 l 75 508 l 44 674 l 583 674 l 593 558 z "},"ﬁ":{"ha":940,"x_min":14,"x_max":863,"o":"m 406 975 q 489 960 443 975 q 557 926 535 946 l 499 782 q 455 797 476 792 q 417 803 433 803 q 347 772 369 803 q 325 692 325 742 l 325 649 l 472 649 l 518 489 l 325 489 l 325 0 l 121 0 l 121 489 l 14 489 l 14 649 l 121 649 l 121 718 q 200 908 121 840 q 406 975 279 975 m 863 881 q 828 801 863 833 q 747 768 794 768 q 668 801 700 768 q 636 881 636 833 q 668 961 636 928 q 747 994 700 994 q 828 961 794 994 q 863 881 863 928 m 850 674 l 850 0 l 646 0 l 646 674 l 850 674 z "},"ﬂ":{"ha":949,"x_min":14,"x_max":856,"o":"m 406 975 q 489 960 443 975 q 557 926 535 946 l 499 782 q 455 797 476 792 q 417 803 433 803 q 347 772 369 803 q 325 692 325 742 l 325 649 l 472 649 l 518 489 l 325 489 l 325 0 l 121 0 l 121 489 l 14 489 l 14 649 l 121 649 l 121 718 q 200 908 121 840 q 406 975 279 975 m 856 981 l 856 0 l 653 0 l 653 965 l 856 981 z "},"`":{"ha":335,"x_min":19,"x_max":317,"o":"m 19 1061 l 226 1061 l 317 818 l 160 818 l 19 1061 z "},"¨":{"ha":511,"x_min":19,"x_max":492,"o":"m 217 935 q 189 866 217 894 q 119 838 161 838 q 49 866 78 838 q 19 935 19 894 q 49 1005 19 976 q 119 1033 78 1033 q 189 1005 161 1033 q 217 935 217 976 m 492 935 q 463 866 492 894 q 393 838 435 838 q 324 866 354 838 q 294 935 294 894 q 324 1005 294 976 q 393 1033 354 1033 q 463 1005 435 1033 q 492 935 492 976 z "},"¯":{"ha":415,"x_min":19,"x_max":396,"o":"m 19 1013 l 396 1013 l 396 851 l 19 851 l 19 1013 z "},"´":{"ha":335,"x_min":19,"x_max":317,"o":"m 110 1061 l 317 1061 l 176 818 l 19 818 l 110 1061 z "},"ˆ":{"ha":596,"x_min":19,"x_max":576,"o":"m 215 818 l 19 818 l 240 1061 l 356 1061 l 576 818 l 388 818 l 301 907 l 215 818 z "},"ˇ":{"ha":596,"x_min":19,"x_max":576,"o":"m 19 1061 l 215 1061 l 301 972 l 388 1061 l 576 1061 l 356 818 l 240 818 l 19 1061 z "},"˘":{"ha":478,"x_min":19,"x_max":458,"o":"m 239 818 q 75 889 131 819 q 19 1057 19 958 l 161 1057 q 179 994 161 1022 q 239 965 197 965 q 299 994 279 965 q 318 1057 318 1022 l 458 1057 q 403 889 458 958 q 239 818 347 819 z "},"˙":{"ha":260,"x_min":19,"x_max":239,"o":"m 239 935 q 208 856 239 888 q 131 825 178 825 q 52 856 85 825 q 19 935 19 888 q 52 1014 19 982 q 131 1046 85 1046 q 208 1014 178 1046 q 239 935 239 982 z "},"˚":{"ha":342,"x_min":15,"x_max":326,"o":"m 326 969 q 280 865 326 906 q 171 825 233 825 q 61 865 107 825 q 15 969 15 906 q 61 1074 15 1032 q 171 1117 107 1117 q 280 1074 233 1117 q 326 969 326 1032 m 221 969 q 207 1004 221 990 q 172 1018 193 1018 q 136 1004 151 1018 q 121 969 121 990 q 136 933 121 949 q 172 918 151 918 q 207 933 193 918 q 221 969 221 949 z "},"˜":{"ha":514,"x_min":21,"x_max":494,"o":"m 158 833 l 21 833 q 70 978 21 938 q 178 1018 119 1018 q 260 994 226 1018 q 328 971 293 971 q 353 984 342 971 q 364 1013 364 997 l 494 1013 q 447 867 494 908 q 339 826 399 826 q 260 851 292 826 q 194 875 229 875 q 169 861 181 875 q 158 833 158 847 z "},"˝":{"ha":596,"x_min":19,"x_max":576,"o":"m 383 1061 l 576 1061 l 435 818 l 294 818 l 383 1061 m 110 1061 l 301 1061 l 161 818 l 19 818 l 110 1061 z "},"˛":{"ha":367,"x_min":19,"x_max":347,"o":"m 67 7 l 239 7 q 202 -48 221 -11 q 183 -114 183 -85 q 194 -142 183 -129 q 226 -154 204 -154 q 251 -149 236 -154 q 285 -129 267 -143 l 347 -250 q 278 -290 317 -276 q 196 -303 240 -303 q 66 -251 113 -303 q 19 -131 19 -199 q 34 -58 19 -101 q 67 7 49 -15 z "},"¸":{"ha":363,"x_min":19,"x_max":343,"o":"m 128 18 l 272 18 l 247 -44 q 317 -100 292 -61 q 343 -175 343 -139 q 288 -288 343 -250 q 161 -326 232 -326 q 88 -314 131 -326 q 19 -281 46 -301 l 65 -171 q 108 -187 82 -179 q 151 -196 133 -196 q 183 -191 168 -196 q 197 -172 197 -186 q 165 -135 197 -151 q 76 -112 132 -119 l 128 18 z "},"":{"ha":260,"x_min":18,"x_max":240,"o":"m 240 -162 q 188 -310 240 -242 q 60 -412 135 -379 l 18 -318 q 59 -290 36 -310 q 90 -243 82 -269 q 42 -208 65 -237 q 18 -140 18 -178 q 50 -65 18 -100 q 129 -29 82 -29 q 208 -66 175 -29 q 240 -162 240 -103 z "},"Þ":{"ha":869,"x_min":110,"x_max":818,"o":"m 313 944 l 313 793 l 439 793 q 706 719 594 793 q 818 479 818 644 q 697 237 818 314 q 426 160 575 160 l 313 160 l 313 0 l 110 0 l 110 944 l 313 944 m 432 629 l 313 629 l 313 325 l 435 325 q 554 363 508 325 q 604 472 600 400 q 558 591 604 553 q 432 629 513 629 z "},"Ð":{"ha":994,"x_min":17,"x_max":925,"o":"m 485 0 l 119 0 l 119 394 l 35 394 q 25 474 29 433 q 17 553 21 514 l 119 553 l 119 944 l 485 944 q 816 813 707 944 q 925 478 925 682 q 808 129 925 258 q 485 0 690 0 m 451 394 l 324 394 l 324 167 l 478 167 q 649 240 583 167 q 715 478 715 313 q 659 696 715 615 q 486 776 603 776 l 324 776 l 324 553 l 435 553 l 451 394 z "},"Æ":{"ha":1349,"x_min":4,"x_max":1319,"o":"m 4 26 l 636 944 l 1235 944 l 1260 783 l 853 783 l 853 556 l 1118 556 l 1144 394 l 853 394 l 853 158 l 1293 158 q 1306 79 1299 119 q 1319 0 1313 39 l 647 0 l 647 207 l 344 207 q 272 103 308 156 q 200 0 236 51 l 4 26 m 456 369 l 647 369 l 647 650 l 456 369 z "},"Đ":{"ha":994,"x_min":17,"x_max":925,"o":"m 485 0 l 119 0 l 119 394 l 35 394 q 25 474 29 433 q 17 553 21 514 l 119 553 l 119 944 l 485 944 q 816 813 707 944 q 925 478 925 682 q 808 129 925 258 q 485 0 690 0 m 451 394 l 324 394 l 324 167 l 478 167 q 649 240 583 167 q 715 478 715 313 q 659 696 715 615 q 486 776 603 776 l 324 776 l 324 553 l 435 553 l 451 394 z "},"Ł":{"ha":797,"x_min":6,"x_max":782,"o":"m 782 0 l 140 0 l 140 292 q 112 272 126 282 q 83 251 97 261 l 6 396 l 140 492 l 140 944 l 344 944 l 344 633 q 412 681 379 657 q 479 728 444 706 l 558 583 l 344 435 l 344 158 l 757 158 l 782 0 z "},"Œ":{"ha":1414,"x_min":71,"x_max":1383,"o":"m 526 793 q 353 708 425 793 q 282 469 282 622 q 344 242 282 333 q 515 150 406 150 q 621 163 572 150 q 714 197 669 175 l 714 754 q 622 782 658 771 q 526 793 586 793 m 1383 0 l 714 0 l 714 13 q 615 -10 667 -1 q 519 -18 563 -18 q 183 121 296 -18 q 71 468 71 260 q 193 824 71 686 q 524 963 315 963 q 612 953 561 963 q 714 926 663 944 l 714 944 l 1297 944 l 1325 783 l 917 783 l 917 556 l 1182 556 l 1210 394 l 917 394 l 917 158 l 1357 158 l 1383 0 z "},"Ø":{"ha":1031,"x_min":71,"x_max":958,"o":"m 514 965 q 849 823 739 965 q 958 478 958 681 q 841 119 958 258 q 514 -19 724 -19 q 181 123 292 -19 q 71 468 71 265 q 188 825 71 686 q 514 965 306 964 m 283 469 q 296 347 283 403 q 332 250 308 290 l 556 790 q 536 792 546 792 q 517 793 526 793 q 348 706 413 793 q 283 469 283 618 m 513 151 q 684 232 621 151 q 747 478 747 313 q 737 590 747 538 q 706 681 726 642 l 482 154 q 497 152 488 153 q 513 151 507 151 z "},"ß":{"ha":896,"x_min":92,"x_max":847,"o":"m 431 975 q 678 906 575 975 q 782 703 782 836 q 753 595 782 651 q 679 513 725 539 q 795 427 743 494 q 847 274 847 360 q 755 74 847 149 q 511 0 663 0 l 375 0 l 375 168 l 494 168 q 593 200 551 168 q 635 283 635 232 q 597 374 635 339 q 507 410 558 410 l 383 410 l 383 565 l 428 565 q 533 602 494 565 q 571 686 571 639 q 534 769 571 738 q 439 800 497 800 q 338 760 381 800 q 296 647 296 719 l 296 0 l 92 0 l 92 657 q 182 887 92 799 q 431 975 272 975 z "},"ð":{"ha":803,"x_min":43,"x_max":735,"o":"m 583 849 l 532 808 q 678 610 621 724 q 735 368 735 496 q 627 80 735 176 q 360 -17 519 -17 q 131 76 218 -17 q 43 288 43 168 q 132 486 43 404 q 360 568 221 568 q 435 553 396 568 q 508 517 474 539 q 458 614 490 568 q 386 696 425 660 l 251 592 l 163 717 l 254 788 q 196 814 225 803 q 140 831 167 825 l 233 969 q 319 943 276 961 q 406 903 363 925 l 497 975 l 583 849 m 365 149 q 481 195 438 149 q 538 321 525 242 q 474 391 518 358 q 372 424 431 424 q 272 380 307 424 q 238 281 238 336 q 272 190 238 232 q 365 149 306 149 z "},"þ":{"ha":821,"x_min":92,"x_max":767,"o":"m 557 342 q 524 471 557 414 q 401 528 490 528 q 346 518 374 528 q 294 494 318 508 l 294 194 q 350 165 319 176 q 408 154 381 154 q 524 216 490 154 q 557 342 557 278 m 294 971 l 294 656 q 375 688 333 676 q 454 699 417 699 q 688 597 608 699 q 767 343 767 494 q 687 88 767 190 q 450 -15 607 -15 q 374 -4 415 -15 q 294 25 332 7 l 294 -290 l 92 -304 l 92 958 l 294 971 z "},"ƒ":{"ha":563,"x_min":-111,"x_max":557,"o":"m 42 -171 q -43 -157 3 -171 q -111 -124 -89 -143 l -53 21 q -10 6 -32 11 q 31 0 13 0 q 99 31 78 0 q 121 110 121 61 l 121 489 l 15 489 l 15 649 l 121 649 l 121 718 q 201 908 121 842 q 406 975 281 975 q 489 960 443 975 q 557 926 535 946 l 499 782 q 455 797 476 792 q 417 803 433 803 q 347 772 369 803 q 325 693 325 742 l 325 649 l 472 649 l 518 489 l 325 489 l 325 83 q 246 -104 325 -37 q 42 -171 167 -171 z "},"æ":{"ha":1142,"x_min":58,"x_max":1093,"o":"m 58 201 q 130 359 58 307 q 317 411 201 411 l 432 411 q 407 482 429 450 q 329 514 385 514 q 233 501 286 514 q 143 471 181 488 l 89 631 q 212 675 132 657 q 349 693 292 693 q 463 672 408 693 q 556 618 518 651 q 656 673 599 653 q 779 693 713 693 q 1017 588 940 693 q 1093 340 1093 483 l 1093 275 l 653 275 q 710 185 667 217 q 824 153 753 153 q 910 163 871 153 q 994 196 949 174 q 1024 124 1008 161 q 1054 53 1039 88 q 929 -1 1003 14 q 813 -15 856 -15 q 648 10 721 -15 q 526 86 575 36 q 433 16 493 47 q 304 -15 372 -15 q 119 44 179 -15 q 58 201 58 103 m 775 522 q 694 492 728 522 q 650 406 661 463 l 897 406 q 857 490 888 458 q 775 522 826 522 m 304 146 q 381 165 344 146 q 449 218 418 185 q 442 248 444 232 q 436 281 439 264 l 315 281 q 253 258 275 281 q 231 206 231 236 q 251 163 231 181 q 304 146 272 146 z "},"đ":{"ha":831,"x_min":53,"x_max":819,"o":"m 263 340 q 296 210 263 267 q 417 154 329 154 q 476 166 443 154 q 535 193 508 178 l 535 481 q 474 514 507 500 q 411 528 440 528 q 295 466 328 528 q 263 340 263 404 m 819 750 l 739 750 l 739 0 l 633 0 l 586 65 q 486 8 546 31 q 364 -15 426 -15 q 132 86 211 -15 q 53 339 53 188 q 135 595 53 492 q 374 699 217 699 q 453 687 410 699 q 535 654 496 675 l 535 750 l 424 750 l 404 889 l 535 889 l 535 965 l 739 981 l 739 889 l 801 889 q 811 819 807 854 q 819 750 815 785 z "},"œ":{"ha":1235,"x_min":53,"x_max":1188,"o":"m 874 693 q 1111 589 1035 693 q 1188 342 1188 485 l 1188 275 l 747 275 q 804 186 761 218 q 917 154 847 154 q 1003 165 964 154 q 1089 197 1043 175 l 1149 53 q 1024 -1 1097 14 q 907 -17 950 -17 q 768 1 832 -17 q 657 54 704 19 q 545 1 608 18 q 426 -17 482 -17 q 154 78 256 -17 q 53 336 53 172 q 154 597 53 500 q 426 693 256 693 q 545 676 483 693 q 654 625 607 660 q 753 676 697 658 q 874 693 810 693 m 871 524 q 788 493 821 524 q 746 407 756 463 l 992 407 q 952 492 982 460 q 871 524 922 524 m 438 522 q 310 470 357 522 q 264 336 264 418 q 310 205 264 254 q 438 156 357 156 q 499 161 471 156 q 558 181 526 167 q 535 253 543 214 q 528 336 528 293 q 535 421 528 381 q 557 496 543 461 q 499 515 526 508 q 438 522 471 522 z "},"ĺ":{"ha":386,"x_min":92,"x_max":401,"o":"m 194 1206 l 401 1206 q 333 1103 367 1154 q 267 1000 300 1051 l 113 1000 q 153 1103 132 1051 q 194 1206 174 1154 m 294 960 l 294 0 l 92 0 l 92 944 l 294 960 z "},"ł":{"ha":425,"x_min":-46,"x_max":471,"o":"m 471 594 q 392 536 432 565 q 313 478 351 507 l 313 0 l 108 0 l 108 328 q 63 296 86 313 q 18 263 40 279 q -13 341 3 301 q -46 419 -29 381 l 108 535 l 108 965 l 313 981 l 313 683 l 404 751 l 471 594 z "},"ı":{"ha":376,"x_min":85,"x_max":289,"o":"m 289 674 l 289 0 l 85 0 l 85 674 l 289 674 z "},"ø":{"ha":829,"x_min":53,"x_max":775,"o":"m 53 339 q 152 598 53 503 q 413 693 251 693 q 678 597 581 693 q 775 332 775 500 q 671 76 775 168 q 403 -15 567 -15 q 147 77 242 -15 q 53 339 53 169 m 417 525 q 302 477 344 525 q 260 340 260 429 q 263 293 260 315 q 271 253 265 271 l 425 525 l 417 525 m 568 332 q 564 378 568 356 q 554 419 560 401 q 476 285 515 351 q 399 151 438 219 q 520 194 472 151 q 568 332 568 238 z "},"ģ":{"ha":831,"x_min":53,"x_max":739,"o":"m 276 883 q 329 1030 276 961 q 457 1133 382 1099 l 499 1039 q 458 1010 481 1031 q 428 964 435 990 q 476 928 451 958 q 500 861 500 899 q 467 785 500 821 q 389 750 435 750 q 309 787 342 750 q 276 883 276 824 m 263 340 q 296 210 263 267 q 417 154 329 154 q 476 166 443 154 q 535 193 508 178 l 535 481 q 474 514 507 500 q 411 528 440 528 q 295 466 328 528 q 263 340 263 404 m 739 672 l 739 0 q 652 -211 739 -131 q 386 -292 565 -292 q 260 -272 343 -292 q 119 -214 176 -253 l 181 -71 q 289 -115 244 -101 q 382 -128 333 -128 q 496 -94 457 -128 q 535 -1 535 -60 l 535 29 q 451 -3 496 8 q 364 -15 407 -15 q 132 86 211 -15 q 53 339 53 188 q 135 595 53 492 q 374 699 217 699 q 486 676 425 699 q 592 617 547 653 l 635 672 l 739 672 z "},"À":{"ha":932,"x_min":10,"x_max":921,"o":"m 282 1268 l 486 1268 l 575 1026 l 421 1026 l 282 1268 m 463 679 l 350 374 l 578 374 l 463 679 m 560 944 l 921 25 l 718 0 l 639 210 l 292 210 l 214 0 l 10 0 l 374 944 l 560 944 z "},"Á":{"ha":932,"x_min":10,"x_max":921,"o":"m 443 1268 l 647 1268 l 508 1026 l 354 1026 l 443 1268 m 463 679 l 350 374 l 578 374 l 463 679 m 560 944 l 921 25 l 718 0 l 639 210 l 292 210 l 214 0 l 10 0 l 374 944 l 560 944 z "},"Â":{"ha":932,"x_min":10,"x_max":921,"o":"m 372 1026 l 176 1026 l 397 1271 l 513 1271 l 733 1026 l 544 1026 l 458 1115 l 372 1026 m 463 679 l 350 374 l 578 374 l 463 679 m 560 944 l 921 25 l 718 0 l 639 210 l 292 210 l 214 0 l 10 0 l 374 944 l 560 944 z "},"Ã":{"ha":932,"x_min":10,"x_max":921,"o":"m 357 1042 l 219 1042 q 269 1186 219 1146 q 378 1226 318 1226 q 458 1203 425 1226 q 528 1179 492 1179 q 552 1192 542 1179 q 563 1221 563 1206 l 693 1221 q 645 1076 693 1117 q 538 1035 597 1035 q 459 1059 490 1035 q 393 1083 428 1083 q 368 1069 379 1083 q 357 1042 357 1056 m 463 679 l 350 374 l 578 374 l 463 679 m 560 944 l 921 25 l 718 0 l 639 210 l 292 210 l 214 0 l 10 0 l 374 944 l 560 944 z "},"Ä":{"ha":932,"x_min":10,"x_max":921,"o":"m 421 1143 q 393 1074 421 1103 q 324 1046 365 1046 q 254 1074 283 1046 q 225 1143 225 1103 q 254 1213 225 1185 q 324 1242 283 1242 q 393 1213 365 1242 q 421 1143 421 1185 m 696 1143 q 668 1074 696 1103 q 597 1046 640 1046 q 528 1074 558 1046 q 499 1143 499 1103 q 528 1213 499 1185 q 597 1242 558 1242 q 668 1213 640 1242 q 696 1143 696 1185 m 463 679 l 350 374 l 578 374 l 463 679 m 560 944 l 921 25 l 718 0 l 639 210 l 292 210 l 214 0 l 10 0 l 374 944 l 560 944 z "},"Å":{"ha":932,"x_min":10,"x_max":921,"o":"m 618 1178 q 571 1074 618 1114 q 461 1033 524 1033 q 351 1074 397 1033 q 306 1178 306 1114 q 351 1283 306 1240 q 461 1325 397 1325 q 571 1283 524 1325 q 618 1178 618 1240 m 511 1178 q 497 1213 511 1199 q 463 1226 483 1226 q 426 1213 442 1226 q 411 1178 411 1199 q 426 1142 411 1157 q 463 1126 442 1126 q 497 1142 483 1126 q 511 1178 511 1157 m 463 679 l 350 374 l 578 374 l 463 679 m 560 944 l 921 25 l 718 0 l 639 210 l 292 210 l 214 0 l 10 0 l 374 944 l 560 944 z "},"Ă":{"ha":932,"x_min":10,"x_max":921,"o":"m 463 1026 q 299 1097 354 1028 q 243 1265 243 1167 l 385 1265 q 403 1202 385 1231 q 463 1174 421 1174 q 522 1202 503 1174 q 542 1265 542 1231 l 682 1265 q 626 1097 682 1167 q 463 1026 571 1028 m 463 679 l 350 374 l 578 374 l 463 679 m 560 944 l 921 25 l 718 0 l 639 210 l 292 210 l 214 0 l 10 0 l 374 944 l 560 944 z "},"Ą":{"ha":932,"x_min":10,"x_max":994,"o":"m 715 4 q 676 107 696 56 q 639 210 657 158 l 290 210 l 214 0 l 10 0 l 374 944 l 558 944 l 921 24 q 865 -40 899 6 q 832 -112 832 -85 q 842 -142 832 -129 q 874 -154 851 -154 q 899 -148 883 -154 q 932 -129 915 -142 l 994 -250 q 926 -289 964 -276 q 843 -301 888 -301 q 714 -249 761 -301 q 667 -129 667 -197 q 680 -58 667 -97 q 715 4 693 -19 m 461 678 q 406 526 433 603 q 349 372 378 449 l 578 372 l 461 678 z "},"Ā":{"ha":932,"x_min":10,"x_max":921,"o":"m 269 1221 l 647 1221 l 647 1060 l 269 1060 l 269 1221 m 463 679 l 350 374 l 578 374 l 463 679 m 560 944 l 921 25 l 718 0 l 639 210 l 292 210 l 214 0 l 10 0 l 374 944 l 560 944 z "},"Ç":{"ha":829,"x_min":71,"x_max":776,"o":"m 506 793 q 343 706 403 793 q 283 469 283 618 q 338 242 283 333 q 501 151 392 151 q 610 165 560 151 q 700 197 660 178 l 776 44 q 679 7 735 22 q 571 -14 624 -8 l 560 -44 q 630 -100 604 -61 q 656 -175 656 -139 q 600 -288 656 -250 q 474 -326 544 -326 q 401 -314 443 -326 q 332 -281 358 -301 l 378 -171 q 420 -187 394 -179 q 464 -196 446 -196 q 495 -191 481 -196 q 510 -172 510 -186 q 477 -135 510 -151 q 389 -112 444 -119 l 428 -12 q 158 144 244 11 q 71 468 71 278 q 185 825 71 686 q 508 964 300 964 q 634 948 560 964 q 768 897 708 932 l 706 754 q 601 784 640 775 q 506 793 563 793 z "},"Ć":{"ha":829,"x_min":71,"x_max":776,"o":"m 467 1268 l 672 1268 l 533 1026 l 378 1026 l 467 1268 m 506 793 q 343 706 403 793 q 283 469 283 618 q 338 242 283 333 q 501 151 392 151 q 610 165 560 151 q 700 197 660 178 l 776 44 q 646 -2 722 15 q 506 -19 569 -19 q 176 121 282 -19 q 71 468 71 261 q 185 825 71 686 q 508 964 300 964 q 634 948 560 964 q 768 897 708 932 l 706 754 q 601 784 640 775 q 506 793 563 793 z "},"Č":{"ha":829,"x_min":71,"x_max":785,"o":"m 226 1271 l 422 1271 l 508 1182 l 594 1271 l 785 1271 l 563 1026 l 447 1026 l 226 1271 m 506 793 q 343 706 403 793 q 283 469 283 618 q 338 242 283 333 q 501 151 392 151 q 610 165 560 151 q 700 197 660 178 l 776 44 q 646 -2 722 15 q 506 -19 569 -19 q 176 121 282 -19 q 71 468 71 261 q 185 825 71 686 q 508 964 300 964 q 634 948 560 964 q 768 897 708 932 l 706 754 q 601 784 640 775 q 506 793 563 793 z "},"Ď":{"ha":983,"x_min":110,"x_max":915,"o":"m 169 1269 l 365 1269 q 408 1225 386 1247 q 451 1181 429 1203 q 494 1225 472 1203 q 538 1269 515 1247 l 726 1269 l 506 1026 l 390 1026 l 169 1269 m 475 0 l 110 0 l 110 944 l 475 944 q 806 813 696 944 q 915 478 915 682 q 797 129 915 258 q 475 0 679 0 m 478 776 l 313 776 l 313 167 l 468 167 q 639 240 574 167 q 704 478 704 313 q 649 696 704 615 q 478 776 593 776 z "},"È":{"ha":810,"x_min":110,"x_max":781,"o":"m 247 1267 l 451 1267 q 496 1146 474 1207 q 540 1025 518 1085 l 386 1025 q 317 1146 351 1085 q 247 1267 282 1207 m 781 0 l 110 0 l 110 944 l 694 944 q 707 864 700 904 q 721 783 714 824 l 313 783 l 313 556 l 578 556 l 606 394 l 313 394 l 313 158 l 753 158 l 781 0 z "},"É":{"ha":810,"x_min":110,"x_max":781,"o":"m 396 1267 l 601 1267 l 461 1025 l 307 1025 l 396 1267 m 781 0 l 110 0 l 110 944 l 694 944 q 707 864 700 904 q 721 783 714 824 l 313 783 l 313 556 l 578 556 l 606 394 l 313 394 l 313 158 l 753 158 l 781 0 z "},"Ê":{"ha":810,"x_min":110,"x_max":781,"o":"m 324 1026 l 129 1026 l 350 1269 l 465 1269 l 686 1026 l 496 1026 q 453 1071 475 1049 q 411 1115 432 1093 l 324 1026 m 781 0 l 110 0 l 110 944 l 694 944 q 707 864 700 904 q 721 783 714 824 l 313 783 l 313 556 l 578 556 l 606 394 l 313 394 l 313 158 l 753 158 l 781 0 z "},"Ë":{"ha":810,"x_min":110,"x_max":782,"o":"m 372 1143 q 344 1074 372 1103 q 275 1046 317 1046 q 206 1074 235 1046 q 176 1143 176 1103 q 206 1213 176 1185 q 275 1242 235 1242 q 344 1213 317 1242 q 372 1143 372 1185 m 649 1143 q 620 1074 649 1103 q 549 1046 592 1046 q 480 1074 510 1046 q 450 1143 450 1103 q 480 1213 450 1185 q 549 1242 510 1242 q 620 1213 592 1242 q 649 1143 649 1185 m 782 0 l 110 0 l 110 944 l 694 944 l 721 783 l 314 783 l 314 557 l 579 557 l 606 396 l 314 396 l 314 160 l 754 160 l 782 0 z "},"Ē":{"ha":810,"x_min":110,"x_max":782,"o":"m 218 1221 l 596 1221 l 596 1060 l 218 1060 l 218 1221 m 782 0 l 110 0 l 110 944 l 694 944 l 721 783 l 314 783 l 314 557 l 579 557 l 606 396 l 314 396 l 314 160 l 754 160 l 782 0 z "},"Ė":{"ha":810,"x_min":110,"x_max":781,"o":"m 521 1143 q 490 1065 521 1096 q 413 1033 460 1033 q 334 1065 367 1033 q 301 1143 301 1096 q 334 1222 301 1189 q 413 1254 367 1254 q 490 1222 460 1254 q 521 1143 521 1189 m 781 0 l 110 0 l 110 944 l 694 944 q 707 864 700 904 q 721 783 714 824 l 313 783 l 313 556 l 578 556 l 606 394 l 313 394 l 313 158 l 753 158 l 781 0 z "},"Ę":{"ha":810,"x_min":110,"x_max":788,"o":"m 781 0 l 674 0 q 641 -53 657 -19 q 625 -112 625 -86 q 635 -142 625 -129 q 667 -154 646 -154 q 692 -148 676 -154 q 725 -129 708 -142 l 788 -250 q 719 -289 757 -276 q 636 -301 681 -301 q 508 -249 554 -301 q 461 -129 461 -197 q 474 -63 461 -103 q 503 0 486 -24 l 110 0 l 110 944 l 694 944 q 707 864 700 904 q 721 783 714 824 l 313 783 l 313 556 l 578 556 l 606 394 l 313 394 l 313 158 l 753 158 l 781 0 z "},"Ě":{"ha":810,"x_min":110,"x_max":781,"o":"m 126 1269 l 322 1269 q 366 1225 344 1247 q 408 1181 388 1203 q 452 1225 431 1203 q 494 1269 474 1247 l 685 1269 q 574 1147 629 1208 q 463 1026 518 1086 l 349 1026 q 238 1147 293 1086 q 126 1269 182 1208 m 781 0 l 110 0 l 110 944 l 694 944 q 707 864 700 904 q 721 783 714 824 l 313 783 l 313 556 l 578 556 l 606 394 l 313 394 l 313 158 l 753 158 l 781 0 z "},"Ğ":{"ha":921,"x_min":71,"x_max":829,"o":"m 547 1026 q 383 1097 439 1028 q 328 1265 328 1167 l 471 1265 q 488 1202 471 1231 q 547 1174 506 1174 q 608 1202 589 1174 q 626 1265 626 1231 l 767 1265 q 711 1097 767 1167 q 547 1026 656 1028 m 544 793 q 358 713 432 793 q 283 469 283 632 q 347 233 283 315 q 524 151 411 151 q 591 155 561 151 q 646 164 621 158 l 646 372 l 461 372 l 461 526 l 829 526 l 829 50 q 691 0 774 19 q 525 -19 608 -19 q 186 118 301 -19 q 71 468 71 256 q 200 826 71 689 q 542 964 329 964 q 675 948 593 964 q 817 897 757 932 l 753 754 q 644 784 688 775 q 544 793 601 793 z "},"Ì":{"ha":424,"x_min":38,"x_max":331,"o":"m 38 1267 l 243 1267 l 331 1025 l 176 1025 q 107 1146 142 1085 q 38 1267 72 1207 m 313 944 l 313 0 l 110 0 l 110 944 l 313 944 z "},"Í":{"ha":424,"x_min":97,"x_max":392,"o":"m 186 1267 l 392 1267 q 322 1146 357 1207 q 253 1025 288 1085 l 97 1025 q 142 1146 119 1085 q 186 1267 164 1207 m 313 944 l 313 0 l 110 0 l 110 944 l 313 944 z "},"Î":{"ha":424,"x_min":-67,"x_max":489,"o":"m 126 1026 l -67 1026 l 153 1269 l 268 1269 l 489 1026 l 299 1026 q 256 1071 278 1049 q 214 1115 235 1093 l 126 1026 m 313 944 l 313 0 l 110 0 l 110 944 l 313 944 z "},"Ï":{"ha":424,"x_min":-26,"x_max":444,"o":"m 168 1143 q 140 1074 168 1101 q 72 1046 113 1046 q 2 1074 31 1046 q -26 1143 -26 1101 q 2 1213 -26 1183 q 72 1242 31 1242 q 140 1213 113 1242 q 168 1143 168 1183 m 444 1143 q 416 1074 444 1101 q 344 1046 388 1046 q 276 1074 306 1046 q 247 1143 247 1101 q 276 1213 247 1183 q 344 1242 306 1242 q 416 1213 388 1242 q 444 1143 444 1183 m 313 944 l 313 0 l 110 0 l 110 944 l 313 944 z "},"Ī":{"ha":424,"x_min":19,"x_max":397,"o":"m 19 1221 l 397 1221 l 397 1060 l 19 1060 l 19 1221 m 313 944 l 313 0 l 110 0 l 110 944 l 313 944 z "},"Į":{"ha":424,"x_min":74,"x_max":400,"o":"m 313 944 l 313 0 q 261 -46 285 -10 q 238 -112 238 -82 q 247 -142 238 -129 q 279 -154 257 -154 q 305 -148 289 -154 q 338 -129 321 -142 l 400 -250 q 331 -289 369 -276 q 249 -301 293 -301 q 120 -249 167 -301 q 74 -129 74 -197 q 85 -63 74 -103 q 110 0 97 -24 l 110 944 l 313 944 z "},"İ":{"ha":424,"x_min":94,"x_max":314,"o":"m 314 1143 q 283 1065 314 1096 q 206 1033 253 1033 q 127 1065 160 1033 q 94 1143 94 1096 q 127 1222 94 1189 q 206 1254 160 1254 q 283 1222 253 1254 q 314 1143 314 1189 m 313 944 l 313 0 l 110 0 l 110 944 l 313 944 z "},"Ĺ":{"ha":765,"x_min":110,"x_max":751,"o":"m 219 1267 l 424 1267 q 354 1146 389 1207 q 285 1025 319 1085 l 131 1025 q 175 1146 153 1085 q 219 1267 197 1207 m 751 0 l 110 0 l 110 944 l 313 944 l 313 158 l 725 158 q 738 79 731 119 q 751 0 744 39 z "},"Ľ":{"ha":765,"x_min":110,"x_max":751,"o":"m 696 899 q 640 738 696 819 q 501 615 585 656 l 458 708 q 513 757 489 732 q 544 818 536 782 q 497 853 521 824 q 474 919 474 883 q 505 995 474 960 q 583 1031 536 1031 q 663 994 631 1031 q 696 899 696 958 m 751 0 l 110 0 l 110 944 l 314 944 l 314 160 l 725 160 l 751 0 z "},"Ñ":{"ha":1036,"x_min":110,"x_max":925,"o":"m 418 1042 l 281 1042 q 330 1186 281 1146 q 439 1226 379 1226 q 519 1202 486 1226 q 589 1178 553 1178 q 613 1192 603 1178 q 624 1219 624 1206 l 754 1219 q 706 1075 754 1115 q 599 1035 658 1035 q 520 1059 551 1035 q 454 1083 489 1083 q 429 1069 440 1083 q 418 1042 418 1054 m 925 944 l 925 0 l 726 0 l 313 594 l 313 0 l 110 0 l 110 944 l 307 944 l 721 344 l 721 944 l 925 944 z "},"Ń":{"ha":1036,"x_min":110,"x_max":925,"o":"m 500 1267 l 706 1267 l 565 1025 l 411 1025 q 456 1146 433 1085 q 500 1267 478 1207 m 925 944 l 925 0 l 726 0 l 313 594 l 313 0 l 110 0 l 110 944 l 307 944 l 721 344 l 721 944 l 925 944 z "},"Ň":{"ha":1036,"x_min":110,"x_max":925,"o":"m 243 1269 l 438 1269 l 525 1181 q 567 1225 546 1203 q 610 1269 589 1247 l 800 1269 l 579 1026 l 464 1026 l 243 1269 m 925 944 l 925 0 l 726 0 l 313 594 l 313 0 l 110 0 l 110 944 l 307 944 l 721 344 l 721 944 l 925 944 z "},"Ò":{"ha":1031,"x_min":71,"x_max":958,"o":"m 339 1268 l 543 1268 l 632 1026 l 478 1026 l 339 1268 m 514 965 q 849 823 739 965 q 958 478 958 681 q 841 119 958 258 q 514 -19 724 -19 q 181 123 292 -19 q 71 468 71 265 q 188 825 71 686 q 514 965 306 964 m 513 151 q 684 232 621 151 q 747 478 747 313 q 692 704 747 615 q 517 793 638 793 q 348 706 413 793 q 283 469 283 618 q 338 241 283 331 q 513 151 393 151 z "},"Ó":{"ha":1031,"x_min":71,"x_max":958,"o":"m 494 1268 l 700 1268 l 561 1026 l 406 1026 l 494 1268 m 514 965 q 849 823 739 965 q 958 478 958 681 q 841 119 958 258 q 514 -19 724 -19 q 181 123 292 -19 q 71 468 71 265 q 188 825 71 686 q 514 965 306 964 m 513 151 q 684 232 621 151 q 747 478 747 313 q 692 704 747 615 q 517 793 638 793 q 348 706 413 793 q 283 469 283 618 q 338 241 283 331 q 513 151 393 151 z "},"Ô":{"ha":1031,"x_min":71,"x_max":958,"o":"m 428 1026 l 232 1026 l 454 1271 l 569 1271 l 790 1026 l 600 1026 l 515 1115 l 428 1026 m 514 965 q 849 823 739 965 q 958 478 958 681 q 841 119 958 258 q 514 -19 724 -19 q 181 123 292 -19 q 71 468 71 265 q 188 825 71 686 q 514 965 306 964 m 513 151 q 684 232 621 151 q 747 478 747 313 q 692 704 747 615 q 517 793 638 793 q 348 706 413 793 q 283 469 283 618 q 338 241 283 331 q 513 151 393 151 z "},"Õ":{"ha":1031,"x_min":71,"x_max":958,"o":"m 411 1042 l 274 1042 q 323 1186 274 1146 q 431 1226 372 1226 q 513 1203 479 1226 q 581 1179 546 1179 q 606 1192 594 1179 q 617 1221 617 1206 l 747 1221 q 699 1076 747 1117 q 592 1035 651 1035 q 513 1059 544 1035 q 447 1083 482 1083 q 422 1069 433 1083 q 411 1042 411 1056 m 514 965 q 849 823 739 965 q 958 478 958 681 q 841 119 958 258 q 514 -19 724 -19 q 181 123 292 -19 q 71 468 71 265 q 188 825 71 686 q 514 965 306 964 m 513 151 q 684 232 621 151 q 747 478 747 313 q 692 704 747 615 q 517 793 638 793 q 348 706 413 793 q 283 469 283 618 q 338 241 283 331 q 513 151 393 151 z "},"Ö":{"ha":1031,"x_min":71,"x_max":958,"o":"m 475 1143 q 447 1074 475 1103 q 378 1046 419 1046 q 307 1074 336 1046 q 278 1143 278 1103 q 307 1213 278 1185 q 378 1242 336 1242 q 447 1213 419 1242 q 475 1143 475 1185 m 750 1143 q 722 1074 750 1103 q 651 1046 693 1046 q 583 1074 613 1046 q 553 1143 553 1103 q 583 1213 553 1185 q 651 1242 613 1242 q 722 1213 693 1242 q 750 1143 750 1185 m 514 965 q 849 823 739 965 q 958 478 958 681 q 841 119 958 258 q 514 -19 724 -19 q 181 123 292 -19 q 71 468 71 265 q 188 825 71 686 q 514 965 306 964 m 513 151 q 684 232 621 151 q 747 478 747 313 q 692 704 747 615 q 517 793 638 793 q 348 706 413 793 q 283 469 283 618 q 338 241 283 331 q 513 151 393 151 z "},"Ō":{"ha":1031,"x_min":71,"x_max":958,"o":"m 321 1221 l 699 1221 l 699 1060 l 321 1060 l 321 1221 m 514 965 q 849 823 739 965 q 958 478 958 681 q 841 119 958 258 q 514 -19 724 -19 q 181 123 292 -19 q 71 468 71 265 q 188 825 71 686 q 514 965 306 964 m 513 151 q 684 232 621 151 q 747 478 747 313 q 692 704 747 615 q 517 793 638 793 q 348 706 413 793 q 283 469 283 618 q 338 241 283 331 q 513 151 393 151 z "},"Ő":{"ha":1031,"x_min":71,"x_max":958,"o":"m 658 1268 l 849 1268 l 708 1026 l 569 1026 l 658 1268 m 386 1268 l 576 1268 l 438 1026 l 297 1026 l 386 1268 m 514 965 q 849 823 739 965 q 958 478 958 681 q 841 119 958 258 q 514 -19 724 -19 q 181 123 292 -19 q 71 468 71 265 q 188 825 71 686 q 514 965 306 964 m 513 151 q 684 232 621 151 q 747 478 747 313 q 692 704 747 615 q 517 793 638 793 q 348 706 413 793 q 283 469 283 618 q 338 241 283 331 q 513 151 393 151 z "},"Ŕ":{"ha":906,"x_min":110,"x_max":892,"o":"m 386 1267 l 592 1267 q 522 1146 557 1207 q 453 1025 488 1085 l 299 1025 l 386 1267 m 432 778 l 313 778 l 313 501 l 435 501 q 556 535 508 501 q 604 638 604 569 q 558 744 604 711 q 432 778 513 778 m 667 0 q 574 169 619 83 q 482 339 528 256 q 454 338 468 338 q 426 338 440 338 l 313 338 l 313 0 l 110 0 l 110 944 l 439 944 q 706 872 594 944 q 818 643 818 800 q 776 492 818 556 q 668 394 733 429 q 780 197 724 296 q 892 0 836 97 l 667 0 z "},"Ř":{"ha":906,"x_min":110,"x_max":892,"o":"m 143 1269 l 339 1269 q 383 1225 361 1247 q 425 1181 404 1203 l 511 1269 l 701 1269 q 590 1147 646 1208 q 479 1026 535 1086 l 364 1026 l 143 1269 m 432 778 l 313 778 l 313 501 l 435 501 q 556 535 508 501 q 604 638 604 569 q 558 744 604 711 q 432 778 513 778 m 667 0 q 574 169 619 83 q 482 339 528 256 q 454 338 468 338 q 426 338 440 338 l 313 338 l 313 0 l 110 0 l 110 944 l 439 944 q 706 872 594 944 q 818 643 818 800 q 776 492 818 556 q 668 394 733 429 q 780 197 724 296 q 892 0 836 97 l 667 0 z "},"Ś":{"ha":772,"x_min":58,"x_max":721,"o":"m 347 1268 l 551 1268 l 413 1026 l 258 1026 l 347 1268 m 663 892 l 597 739 q 497 776 543 761 q 394 792 450 792 q 303 769 339 792 q 268 706 268 747 q 315 632 268 663 q 435 564 361 601 q 628 440 536 513 q 721 247 721 367 q 626 58 721 133 q 360 -18 532 -18 q 203 6 296 -18 q 71 61 110 31 l 125 222 q 232 178 165 200 q 356 157 299 157 q 471 183 432 157 q 510 250 510 208 q 457 325 510 290 q 340 390 404 360 q 152 510 246 438 q 58 707 58 583 q 147 891 58 817 q 392 965 235 965 q 535 944 463 965 q 663 892 607 922 z "},"Š":{"ha":772,"x_min":58,"x_max":721,"o":"m 131 1271 l 326 1271 l 413 1182 l 497 1271 l 688 1271 l 467 1026 l 351 1026 l 131 1271 m 663 892 l 597 739 q 497 776 543 761 q 394 792 450 792 q 303 769 339 792 q 268 706 268 747 q 315 632 268 663 q 435 564 361 601 q 628 440 536 513 q 721 247 721 367 q 626 58 721 133 q 360 -18 532 -18 q 203 6 296 -18 q 71 61 110 31 l 125 222 q 232 178 165 200 q 356 157 299 157 q 471 183 432 157 q 510 250 510 208 q 457 325 510 290 q 340 390 404 360 q 152 510 246 438 q 58 707 58 583 q 147 891 58 817 q 392 965 235 965 q 535 944 463 965 q 663 892 607 922 z "},"Ť":{"ha":825,"x_min":10,"x_max":815,"o":"m 132 1269 l 326 1269 l 414 1181 q 456 1225 435 1203 q 499 1269 478 1247 l 689 1269 l 468 1026 l 353 1026 l 132 1269 m 10 944 l 788 944 l 815 783 l 499 783 l 499 0 l 294 0 l 294 783 l 10 783 l 10 944 z "},"Ù":{"ha":999,"x_min":100,"x_max":896,"o":"m 333 1267 l 538 1267 q 582 1146 560 1207 q 626 1025 604 1085 l 472 1025 q 403 1146 438 1085 q 333 1267 368 1207 m 304 944 l 304 361 q 358 202 304 253 q 497 151 413 151 q 638 203 585 151 q 692 361 692 256 l 692 944 l 896 944 l 896 349 q 788 85 896 186 q 497 -15 679 -15 q 208 84 317 -15 q 100 349 100 183 l 100 944 l 304 944 z "},"Ú":{"ha":999,"x_min":100,"x_max":896,"o":"m 454 1267 l 660 1267 q 590 1146 625 1207 q 521 1025 556 1085 l 365 1025 q 410 1146 388 1085 q 454 1267 432 1207 m 304 944 l 304 361 q 358 202 304 253 q 497 151 413 151 q 638 203 585 151 q 692 361 692 256 l 692 944 l 896 944 l 896 349 q 788 85 896 186 q 497 -15 679 -15 q 208 84 317 -15 q 100 349 100 183 l 100 944 l 304 944 z "},"Û":{"ha":999,"x_min":100,"x_max":896,"o":"m 413 1026 l 217 1026 l 438 1269 l 553 1269 l 774 1026 l 585 1026 l 499 1115 l 413 1026 m 304 944 l 304 361 q 358 202 304 253 q 497 151 413 151 q 638 203 585 151 q 692 361 692 256 l 692 944 l 896 944 l 896 349 q 788 85 896 186 q 497 -15 679 -15 q 208 84 317 -15 q 100 349 100 183 l 100 944 l 304 944 z "},"Ü":{"ha":999,"x_min":100,"x_max":896,"o":"m 458 1143 q 431 1074 458 1101 q 361 1046 403 1046 q 292 1074 321 1046 q 263 1143 263 1101 q 292 1213 263 1183 q 361 1242 321 1242 q 431 1213 403 1242 q 458 1143 458 1183 m 733 1143 q 706 1074 733 1101 q 635 1046 678 1046 q 566 1074 596 1046 q 536 1143 536 1101 q 566 1213 536 1183 q 635 1242 596 1242 q 706 1213 678 1242 q 733 1143 733 1183 m 304 944 l 304 361 q 358 202 304 253 q 497 151 413 151 q 638 203 585 151 q 692 361 692 256 l 692 944 l 896 944 l 896 349 q 788 85 896 186 q 497 -15 679 -15 q 208 84 317 -15 q 100 349 100 183 l 100 944 l 304 944 z "},"Ū":{"ha":999,"x_min":100,"x_max":896,"o":"m 310 1221 l 686 1221 l 686 1060 l 310 1060 l 310 1221 m 304 944 l 304 361 q 358 202 304 253 q 497 151 413 151 q 638 203 585 151 q 692 361 692 256 l 692 944 l 896 944 l 896 349 q 788 85 896 186 q 497 -15 679 -15 q 208 84 317 -15 q 100 349 100 183 l 100 944 l 304 944 z "},"Ů":{"ha":999,"x_min":100,"x_max":896,"o":"m 647 1176 q 600 1073 647 1113 q 492 1033 553 1033 q 382 1073 428 1033 q 336 1176 336 1113 q 382 1281 336 1239 q 492 1324 428 1324 q 600 1281 553 1324 q 647 1176 647 1239 m 542 1176 q 528 1211 542 1197 q 493 1225 514 1225 q 456 1211 471 1225 q 442 1176 442 1197 q 456 1141 442 1157 q 493 1125 471 1125 q 528 1141 514 1125 q 542 1176 542 1157 m 304 944 l 304 361 q 358 202 304 253 q 497 151 413 151 q 638 203 585 151 q 692 361 692 256 l 692 944 l 896 944 l 896 349 q 788 85 896 186 q 497 -15 679 -15 q 208 84 317 -15 q 100 349 100 183 l 100 944 l 304 944 z "},"Ű":{"ha":999,"x_min":100,"x_max":896,"o":"m 631 1267 l 822 1267 q 752 1146 788 1207 q 682 1025 717 1085 l 542 1025 q 586 1146 564 1085 q 631 1267 608 1207 m 360 1267 l 550 1267 l 410 1025 l 271 1025 l 360 1267 m 304 944 l 304 361 q 358 202 304 253 q 497 151 413 151 q 638 203 585 151 q 692 361 692 256 l 692 944 l 896 944 l 896 349 q 788 85 896 186 q 497 -15 679 -15 q 208 84 317 -15 q 100 349 100 183 l 100 944 l 304 944 z "},"Ų":{"ha":999,"x_min":100,"x_max":896,"o":"m 304 944 l 304 361 q 358 202 304 253 q 497 151 413 151 q 638 203 585 151 q 692 361 692 256 l 692 944 l 896 944 l 896 349 q 829 131 896 221 q 646 4 763 40 q 610 -49 628 -12 q 593 -112 593 -85 q 603 -142 593 -129 q 635 -154 613 -154 q 660 -148 644 -154 q 693 -129 676 -142 l 756 -250 q 687 -289 725 -276 q 604 -301 649 -301 q 476 -249 525 -301 q 428 -129 428 -197 q 438 -74 428 -107 q 460 -14 447 -40 q 198 94 296 -4 q 100 349 100 193 l 100 944 l 304 944 z "},"Ý":{"ha":869,"x_min":10,"x_max":860,"o":"m 385 1268 l 590 1268 l 450 1026 l 296 1026 l 385 1268 m 328 0 l 328 369 l 10 921 l 221 944 l 429 568 l 647 944 l 860 944 l 532 364 l 532 0 l 328 0 z "},"Ÿ":{"ha":869,"x_min":10,"x_max":860,"o":"m 668 1143 q 640 1074 668 1103 q 569 1046 613 1046 q 501 1074 531 1046 q 471 1143 471 1103 q 501 1213 471 1185 q 569 1242 531 1242 q 640 1213 613 1242 q 668 1143 668 1185 m 393 1143 q 365 1074 393 1103 q 296 1046 338 1046 q 226 1074 256 1046 q 196 1143 196 1103 q 226 1213 196 1185 q 296 1242 256 1242 q 365 1213 338 1242 q 393 1143 393 1185 m 328 0 l 328 369 l 10 921 l 221 944 l 429 568 l 647 944 l 860 944 l 532 364 l 532 0 l 328 0 z "},"Ź":{"ha":815,"x_min":24,"x_max":789,"o":"m 364 1267 l 568 1267 q 499 1146 533 1207 q 429 1025 464 1085 l 275 1025 q 319 1146 297 1085 q 364 1267 342 1207 m 783 790 l 264 158 l 768 158 l 789 0 l 46 0 l 24 151 l 529 783 l 85 783 l 64 944 l 761 944 l 783 790 z "},"Ż":{"ha":815,"x_min":24,"x_max":789,"o":"m 519 1143 q 489 1065 519 1096 q 411 1033 458 1033 q 333 1065 365 1033 q 300 1143 300 1096 q 333 1222 300 1189 q 411 1254 365 1254 q 489 1222 458 1254 q 519 1143 519 1189 m 783 790 l 264 158 l 768 158 l 789 0 l 46 0 l 24 151 l 529 783 l 85 783 l 64 944 l 761 944 l 783 790 z "},"Ž":{"ha":815,"x_min":24,"x_max":789,"o":"m 138 1269 l 332 1269 l 419 1181 q 462 1225 440 1203 q 504 1269 483 1247 l 694 1269 l 474 1026 l 358 1026 l 138 1269 m 783 790 l 264 158 l 768 158 l 789 0 l 46 0 l 24 151 l 529 783 l 85 783 l 64 944 l 761 944 l 783 790 z "},"Ş":{"ha":772,"x_min":58,"x_max":721,"o":"m 58 704 q 147 891 60 817 q 392 965 235 965 q 535 944 463 965 q 663 892 607 922 l 597 739 q 497 776 543 761 q 394 792 450 792 q 303 769 339 792 q 268 706 268 747 q 315 632 268 663 q 435 564 361 601 q 628 440 536 513 q 721 247 721 367 q 647 74 721 146 q 435 -12 572 3 l 422 -44 q 491 -100 465 -61 q 517 -175 517 -139 q 461 -288 517 -250 q 336 -326 406 -326 q 263 -314 304 -326 q 194 -281 221 -301 l 239 -171 q 283 -187 257 -179 q 325 -196 308 -196 q 357 -191 343 -196 q 371 -172 371 -186 q 339 -135 371 -151 q 251 -112 307 -119 l 290 -12 q 165 18 229 -3 q 71 61 101 39 l 125 222 q 232 178 165 200 q 356 157 299 157 q 471 183 432 157 q 510 250 510 208 q 457 325 510 290 q 340 390 404 360 q 150 512 242 440 q 58 704 58 583 z "},"Ģ":{"ha":921,"x_min":71,"x_max":829,"o":"m 544 793 q 358 713 432 793 q 283 469 283 632 q 347 233 283 315 q 524 151 411 151 q 591 155 561 151 q 646 164 621 158 l 646 372 l 461 372 l 461 526 l 829 526 l 829 50 q 728 10 788 28 q 603 -14 668 -7 l 592 -44 q 660 -100 635 -61 q 686 -175 686 -139 q 630 -288 686 -250 q 504 -326 574 -326 q 431 -314 472 -326 q 363 -281 389 -301 l 407 -171 q 451 -187 425 -179 q 494 -196 476 -196 q 525 -191 511 -196 q 539 -172 539 -186 q 507 -135 539 -151 q 419 -112 475 -119 l 457 -15 q 169 139 267 6 q 71 468 71 272 q 200 826 71 689 q 542 964 329 964 q 675 948 593 964 q 817 897 757 932 l 753 754 q 644 784 688 775 q 544 793 601 793 z "},"Ķ":{"ha":915,"x_min":97,"x_max":915,"o":"m 301 944 l 301 571 l 664 965 l 818 849 l 525 532 l 915 0 l 658 0 l 386 383 l 301 292 l 301 0 l 97 0 l 97 944 l 301 944 m 572 -161 q 519 -309 572 -240 q 392 -411 467 -378 l 350 -318 q 390 -288 368 -308 q 422 -242 413 -268 q 374 -206 397 -236 q 350 -139 350 -176 q 382 -64 350 -99 q 461 -29 414 -29 q 540 -65 507 -29 q 572 -161 572 -101 z "},"Ļ":{"ha":765,"x_min":110,"x_max":751,"o":"m 751 0 l 110 0 l 110 944 l 313 944 l 313 158 l 725 158 q 738 79 731 119 q 751 0 744 39 m 549 -161 q 496 -309 549 -240 q 368 -411 443 -378 l 326 -318 q 367 -288 344 -308 q 399 -242 390 -268 q 350 -206 374 -236 q 326 -139 326 -176 q 358 -64 326 -99 q 436 -29 389 -29 q 516 -65 483 -29 q 549 -161 549 -101 z "},"Ņ":{"ha":1036,"x_min":110,"x_max":925,"o":"m 925 944 l 925 0 l 726 0 l 313 594 l 313 0 l 110 0 l 110 944 l 307 944 l 721 344 l 721 944 l 925 944 m 635 -161 q 582 -309 635 -240 q 456 -411 529 -378 l 413 -318 q 453 -288 431 -308 q 485 -242 476 -268 q 438 -206 461 -236 q 414 -139 414 -176 q 445 -64 414 -99 q 522 -29 476 -29 q 602 -65 569 -29 q 635 -161 635 -101 z "},"Ŗ":{"ha":906,"x_min":110,"x_max":892,"o":"m 432 778 l 313 778 l 313 501 l 435 501 q 556 535 508 501 q 604 638 604 569 q 558 744 604 711 q 432 778 513 778 m 667 0 q 574 169 619 83 q 482 339 528 256 q 454 338 468 338 q 426 338 440 338 l 313 338 l 313 0 l 110 0 l 110 944 l 439 944 q 706 872 594 944 q 818 643 818 800 q 776 492 818 556 q 668 394 733 429 q 780 197 724 296 q 892 0 836 97 l 667 0 m 589 -161 q 536 -309 589 -240 q 408 -411 483 -378 l 365 -318 q 408 -288 385 -308 q 440 -242 431 -268 q 390 -206 414 -236 q 367 -139 367 -176 q 398 -64 367 -99 q 476 -29 429 -29 q 556 -65 524 -29 q 589 -161 589 -101 z "},"Ţ":{"ha":825,"x_min":10,"x_max":815,"o":"m 10 944 l 788 944 l 815 783 l 499 783 l 499 0 l 471 0 l 454 -44 q 523 -99 497 -61 q 549 -174 549 -137 q 492 -287 549 -249 q 367 -325 436 -325 q 294 -312 336 -325 q 225 -281 251 -300 l 271 -169 q 313 -187 288 -178 q 357 -196 339 -196 q 388 -190 374 -196 q 401 -171 401 -185 q 369 -135 401 -151 q 282 -112 338 -118 q 304 -56 293 -85 q 326 0 315 -26 l 294 0 l 294 783 l 10 783 l 10 944 z "},"Ș":{"ha":772,"x_min":58,"x_max":721,"o":"m 58 704 q 147 891 60 817 q 392 965 235 965 q 535 944 463 965 q 663 892 607 922 l 597 739 q 497 776 543 761 q 394 792 450 792 q 303 769 339 792 q 268 706 268 747 q 314 632 268 663 q 435 563 360 601 q 628 439 536 511 q 721 247 721 367 q 626 58 721 133 q 360 -18 532 -18 q 203 6 296 -18 q 71 61 110 31 l 125 222 q 232 178 165 200 q 356 157 299 157 q 471 183 432 157 q 510 250 510 208 q 457 325 510 290 q 340 390 404 360 q 150 512 242 440 q 58 704 58 583 m 475 -162 q 422 -310 475 -242 q 296 -412 369 -379 l 253 -318 q 293 -290 271 -310 q 325 -243 315 -269 q 276 -208 300 -237 q 253 -140 253 -178 q 285 -65 253 -100 q 364 -29 317 -29 q 442 -66 410 -29 q 475 -162 475 -103 z "},"Ț":{"ha":825,"x_min":10,"x_max":815,"o":"m 10 944 l 788 944 l 815 783 l 499 783 l 499 0 l 294 0 l 294 783 l 10 783 l 10 944 m 510 -161 q 457 -309 510 -240 q 329 -411 404 -378 l 288 -318 q 328 -288 306 -308 q 360 -242 351 -268 q 310 -206 335 -236 q 286 -139 286 -176 q 318 -64 286 -99 q 397 -29 350 -29 q 477 -65 444 -29 q 510 -161 510 -101 z "},"à":{"ha":714,"x_min":58,"x_max":638,"o":"m 174 1061 l 381 1061 l 471 818 l 314 818 l 174 1061 m 304 147 q 369 162 336 147 q 433 204 403 176 l 433 289 l 317 289 q 254 265 276 289 q 232 210 232 242 q 253 166 232 185 q 304 147 274 147 m 349 693 q 556 621 475 693 q 638 435 638 549 l 638 0 l 538 0 l 493 56 q 408 4 458 25 q 304 -17 357 -17 q 119 45 179 -17 q 58 207 58 107 q 130 367 58 313 q 317 421 201 421 l 432 421 q 402 489 429 464 q 331 514 375 514 q 235 501 288 514 q 143 471 182 489 l 89 632 q 213 675 132 657 q 349 693 293 693 z "},"á":{"ha":714,"x_min":58,"x_max":638,"o":"m 322 1061 l 529 1061 l 389 818 l 233 818 l 322 1061 m 304 147 q 369 162 336 147 q 433 204 403 176 l 433 289 l 317 289 q 254 265 276 289 q 232 210 232 242 q 253 166 232 185 q 304 147 274 147 m 349 693 q 556 621 475 693 q 638 435 638 549 l 638 0 l 538 0 l 493 56 q 408 4 458 25 q 304 -17 357 -17 q 119 45 179 -17 q 58 207 58 107 q 130 367 58 313 q 317 421 201 421 l 432 421 q 402 489 429 464 q 331 514 375 514 q 235 501 288 514 q 143 471 182 489 l 89 632 q 213 675 132 657 q 349 693 293 693 z "},"â":{"ha":714,"x_min":58,"x_max":643,"o":"m 281 818 l 85 818 l 307 1061 l 421 1061 l 643 818 l 453 818 l 367 907 l 281 818 m 304 147 q 369 162 336 147 q 433 204 403 176 l 433 289 l 317 289 q 254 265 276 289 q 232 210 232 242 q 253 166 232 185 q 304 147 274 147 m 349 693 q 556 621 475 693 q 638 435 638 549 l 638 0 l 538 0 l 493 56 q 408 4 458 25 q 304 -17 357 -17 q 119 45 179 -17 q 58 207 58 107 q 130 367 58 313 q 317 421 201 421 l 432 421 q 402 489 429 464 q 331 514 375 514 q 235 501 288 514 q 143 471 182 489 l 89 632 q 213 675 132 657 q 349 693 293 693 z "},"ã":{"ha":714,"x_min":58,"x_max":638,"o":"m 253 833 l 114 833 q 164 978 114 938 q 274 1018 214 1018 q 354 994 321 1018 q 422 971 388 971 q 447 984 436 971 q 458 1013 458 997 l 590 1013 q 542 867 590 908 q 433 826 493 826 q 354 851 385 826 q 289 875 324 875 q 264 861 275 875 q 253 833 253 847 m 304 147 q 369 162 336 147 q 433 204 403 176 l 433 289 l 317 289 q 254 265 276 289 q 232 210 232 242 q 253 166 232 185 q 304 147 274 147 m 349 693 q 556 621 475 693 q 638 435 638 549 l 638 0 l 538 0 l 493 56 q 408 4 458 25 q 304 -17 357 -17 q 119 45 179 -17 q 58 207 58 107 q 130 367 58 313 q 317 421 201 421 l 432 421 q 402 489 429 464 q 331 514 375 514 q 235 501 288 514 q 143 471 182 489 l 89 632 q 213 675 132 657 q 349 693 293 693 z "},"ä":{"ha":714,"x_min":58,"x_max":638,"o":"m 322 935 q 294 866 322 894 q 224 838 265 838 q 154 866 183 838 q 125 935 125 894 q 154 1005 125 976 q 224 1033 183 1033 q 294 1005 265 1033 q 322 935 322 976 m 597 935 q 569 866 597 894 q 499 838 542 838 q 430 866 460 838 q 400 935 400 894 q 430 1005 400 976 q 499 1033 460 1033 q 569 1005 542 1033 q 597 935 597 976 m 304 147 q 369 162 336 147 q 433 204 403 176 l 433 289 l 317 289 q 254 265 276 289 q 232 210 232 242 q 253 166 232 185 q 304 147 274 147 m 349 693 q 556 621 475 693 q 638 435 638 549 l 638 0 l 538 0 l 493 56 q 408 4 458 25 q 304 -17 357 -17 q 119 45 179 -17 q 58 207 58 107 q 130 367 58 313 q 317 421 201 421 l 432 421 q 402 489 429 464 q 331 514 375 514 q 235 501 288 514 q 143 471 182 489 l 89 632 q 213 675 132 657 q 349 693 293 693 z "},"å":{"ha":714,"x_min":58,"x_max":638,"o":"m 515 969 q 468 865 515 906 q 358 825 421 825 q 248 865 294 825 q 201 969 201 906 q 248 1074 201 1032 q 358 1117 294 1117 q 468 1074 421 1117 q 515 969 515 1032 m 408 969 q 394 1004 408 990 q 358 1018 381 1018 q 324 1004 339 1018 q 308 969 308 990 q 324 933 308 949 q 358 918 339 918 q 394 933 381 918 q 408 969 408 949 m 304 147 q 369 162 336 147 q 433 204 403 176 l 433 289 l 317 289 q 254 265 276 289 q 232 210 232 242 q 253 166 232 185 q 304 147 274 147 m 349 693 q 556 621 475 693 q 638 435 638 549 l 638 0 l 538 0 l 493 56 q 408 4 458 25 q 304 -17 357 -17 q 119 45 179 -17 q 58 207 58 107 q 130 367 58 313 q 317 421 201 421 l 432 421 q 402 489 429 464 q 331 514 375 514 q 235 501 288 514 q 143 471 182 489 l 89 632 q 213 675 132 657 q 349 693 293 693 z "},"ā":{"ha":714,"x_min":58,"x_max":638,"o":"m 175 1013 l 551 1013 l 551 851 l 175 851 l 175 1013 m 304 147 q 369 162 336 147 q 433 204 403 176 l 433 289 l 317 289 q 254 265 276 289 q 232 210 232 242 q 253 166 232 185 q 304 147 274 147 m 349 693 q 556 621 475 693 q 638 435 638 549 l 638 0 l 538 0 l 493 56 q 408 4 458 25 q 304 -17 357 -17 q 119 45 179 -17 q 58 207 58 107 q 130 367 58 313 q 317 421 201 421 l 432 421 q 402 489 429 464 q 331 514 375 514 q 235 501 288 514 q 143 471 182 489 l 89 632 q 213 675 132 657 q 349 693 293 693 z "},"ă":{"ha":714,"x_min":58,"x_max":638,"o":"m 358 818 q 194 889 250 819 q 138 1057 138 958 l 281 1057 q 298 994 281 1022 q 358 965 315 965 q 417 994 399 965 q 436 1057 436 1022 l 578 1057 q 522 889 578 958 q 358 818 465 819 m 304 147 q 369 162 336 147 q 433 204 403 176 l 433 289 l 317 289 q 254 265 276 289 q 232 210 232 242 q 253 166 232 185 q 304 147 274 147 m 349 693 q 556 621 475 693 q 638 435 638 549 l 638 0 l 538 0 l 493 56 q 408 4 458 25 q 304 -17 357 -17 q 119 45 179 -17 q 58 207 58 107 q 130 367 58 313 q 317 421 201 421 l 432 421 q 402 489 429 464 q 331 514 375 514 q 235 501 288 514 q 143 471 182 489 l 89 632 q 213 675 132 657 q 349 693 293 693 z "},"ą":{"ha":714,"x_min":58,"x_max":751,"o":"m 349 693 q 556 621 475 693 q 638 435 638 549 l 638 0 q 604 -53 619 -21 q 589 -114 589 -85 q 599 -142 589 -129 q 631 -154 608 -154 q 656 -149 640 -154 q 689 -129 671 -143 l 751 -250 q 683 -290 722 -276 q 599 -303 643 -303 q 471 -251 518 -303 q 424 -131 424 -199 q 448 -31 424 -75 q 501 44 472 14 l 493 56 q 408 4 458 25 q 304 -17 357 -17 q 119 45 179 -17 q 58 207 58 107 q 130 367 58 313 q 317 421 201 421 l 432 421 q 402 489 429 464 q 331 514 375 514 q 235 501 288 514 q 143 471 182 489 l 89 632 q 213 675 132 657 q 349 693 293 693 m 304 147 q 369 162 336 147 q 433 204 403 176 l 433 289 l 317 289 q 254 265 276 289 q 232 210 232 242 q 253 166 232 185 q 304 147 274 147 z "},"ç":{"ha":675,"x_min":53,"x_max":633,"o":"m 417 522 q 306 470 349 522 q 264 336 264 418 q 306 205 264 254 q 417 156 349 156 q 494 165 460 156 q 576 197 529 175 l 633 53 q 554 11 599 26 q 471 -11 510 -4 l 458 -44 q 527 -100 501 -61 q 553 -175 553 -139 q 498 -288 553 -250 q 372 -326 443 -326 q 298 -314 340 -326 q 229 -281 256 -301 l 275 -171 q 318 -187 292 -179 q 363 -196 344 -196 q 392 -191 379 -196 q 406 -172 406 -186 q 374 -135 406 -151 q 288 -112 343 -119 l 328 -8 q 126 102 199 11 q 53 336 53 193 q 148 597 53 500 q 407 693 243 693 q 516 678 450 693 q 633 624 582 663 l 576 479 q 494 512 529 501 q 417 522 460 522 z "},"ć":{"ha":675,"x_min":53,"x_max":633,"o":"m 375 1061 l 583 1061 l 442 818 l 286 818 l 375 1061 m 417 522 q 306 470 349 522 q 264 336 264 418 q 306 205 264 254 q 417 156 349 156 q 494 165 460 156 q 576 197 529 175 l 633 53 q 517 -1 583 14 q 407 -17 450 -17 q 148 78 243 -17 q 53 336 53 172 q 148 597 53 500 q 407 693 243 693 q 516 678 450 693 q 633 624 582 663 l 576 479 q 494 512 529 501 q 417 522 460 522 z "},"č":{"ha":675,"x_min":53,"x_max":660,"o":"m 101 1061 l 297 1061 l 383 972 l 471 1061 l 660 1061 l 438 818 l 324 818 l 101 1061 m 417 522 q 306 470 349 522 q 264 336 264 418 q 306 205 264 254 q 417 156 349 156 q 494 165 460 156 q 576 197 529 175 l 633 53 q 517 -1 583 14 q 407 -17 450 -17 q 148 78 243 -17 q 53 336 53 172 q 148 597 53 500 q 407 693 243 693 q 516 678 450 693 q 633 624 582 663 l 576 479 q 494 512 529 501 q 417 522 460 522 z "},"ď":{"ha":1092,"x_min":53,"x_max":1078,"o":"m 1078 899 q 1022 738 1078 819 q 882 614 967 656 l 840 708 q 895 757 871 732 q 928 818 919 782 q 878 853 901 824 q 854 919 854 883 q 886 994 854 958 q 965 1031 918 1031 q 1044 994 1011 1031 q 1078 899 1078 958 m 418 156 q 476 167 444 156 q 535 194 508 178 l 535 481 q 475 515 508 501 q 411 528 442 528 q 297 467 329 528 q 264 342 264 406 q 297 212 264 268 q 418 156 331 156 m 740 981 l 740 0 l 635 0 l 586 67 q 487 8 546 32 q 364 -17 428 -17 q 132 85 211 -17 q 53 339 53 188 q 135 595 53 492 q 375 699 218 699 q 453 688 410 699 q 535 656 496 676 l 535 965 l 740 981 z "},"è":{"ha":761,"x_min":53,"x_max":711,"o":"m 218 1061 l 424 1061 l 515 818 l 360 818 l 218 1061 m 400 693 q 635 589 558 693 q 711 342 711 485 l 711 275 l 272 275 q 330 186 286 218 q 442 154 374 154 q 527 165 488 154 q 613 197 567 175 l 672 53 q 547 -1 621 14 q 431 -17 474 -17 q 156 76 260 -17 q 53 336 53 168 q 149 597 53 500 q 400 693 244 693 m 394 524 q 314 493 347 524 q 271 407 281 463 l 517 407 q 476 492 507 460 q 394 524 446 524 z "},"é":{"ha":761,"x_min":53,"x_max":711,"o":"m 371 1061 l 579 1061 l 438 818 l 282 818 l 371 1061 m 400 693 q 635 589 558 693 q 711 342 711 485 l 711 275 l 272 275 q 330 186 286 218 q 442 154 374 154 q 527 165 488 154 q 613 197 567 175 l 672 53 q 547 -1 621 14 q 431 -17 474 -17 q 156 76 260 -17 q 53 336 53 168 q 149 597 53 500 q 400 693 244 693 m 394 524 q 314 493 347 524 q 271 407 281 463 l 517 407 q 476 492 507 460 q 394 524 446 524 z "},"ê":{"ha":761,"x_min":53,"x_max":711,"o":"m 319 818 l 124 818 l 346 1061 l 460 1061 l 682 818 l 493 818 l 407 907 l 319 818 m 400 693 q 635 589 558 693 q 711 342 711 485 l 711 275 l 272 275 q 330 186 286 218 q 442 154 374 154 q 527 165 488 154 q 613 197 567 175 l 672 53 q 547 -1 621 14 q 431 -17 474 -17 q 156 76 260 -17 q 53 336 53 168 q 149 597 53 500 q 400 693 244 693 m 394 524 q 314 493 347 524 q 271 407 281 463 l 517 407 q 476 492 507 460 q 394 524 446 524 z "},"ë":{"ha":761,"x_min":53,"x_max":711,"o":"m 633 935 q 605 866 633 894 q 535 838 576 838 q 465 866 494 838 q 436 935 436 894 q 465 1005 436 976 q 535 1033 494 1033 q 605 1005 576 1033 q 633 935 633 976 m 358 935 q 330 866 358 894 q 260 838 301 838 q 190 866 221 838 q 160 935 160 894 q 190 1005 160 976 q 260 1033 221 1033 q 330 1005 301 1033 q 358 935 358 976 m 400 693 q 635 589 558 693 q 711 342 711 485 l 711 275 l 272 275 q 330 186 286 218 q 442 154 374 154 q 527 165 488 154 q 613 197 567 175 l 672 53 q 547 -1 621 14 q 431 -17 474 -17 q 156 76 260 -17 q 53 336 53 168 q 149 597 53 500 q 400 693 244 693 m 394 524 q 314 493 347 524 q 271 407 281 463 l 517 407 q 476 492 507 460 q 394 524 446 524 z "},"ē":{"ha":761,"x_min":53,"x_max":711,"o":"m 203 1013 l 579 1013 l 579 851 l 203 851 l 203 1013 m 400 693 q 635 589 558 693 q 711 342 711 485 l 711 275 l 272 275 q 330 186 286 218 q 442 154 374 154 q 527 165 488 154 q 613 197 567 175 l 672 53 q 547 -1 621 14 q 431 -17 474 -17 q 156 76 260 -17 q 53 336 53 168 q 149 597 53 500 q 400 693 244 693 m 394 524 q 314 493 347 524 q 271 407 281 463 l 517 407 q 476 492 507 460 q 394 524 446 524 z "},"ė":{"ha":761,"x_min":53,"x_max":711,"o":"m 504 935 q 474 856 504 888 q 396 825 443 825 q 317 856 350 825 q 285 935 285 888 q 317 1014 285 982 q 396 1046 350 1046 q 474 1014 443 1046 q 504 935 504 982 m 400 693 q 635 589 558 693 q 711 342 711 485 l 711 275 l 272 275 q 330 186 286 218 q 442 154 374 154 q 527 165 488 154 q 613 197 567 175 l 672 53 q 547 -1 621 14 q 431 -17 474 -17 q 156 76 260 -17 q 53 336 53 168 q 149 597 53 500 q 400 693 244 693 m 394 524 q 314 493 347 524 q 271 407 281 463 l 517 407 q 476 492 507 460 q 394 524 446 524 z "},"ę":{"ha":761,"x_min":53,"x_max":711,"o":"m 400 693 q 635 589 558 693 q 711 342 711 485 l 711 275 l 272 275 q 330 186 286 218 q 442 154 374 154 q 527 165 488 154 q 613 197 567 175 l 672 53 q 622 24 650 36 q 564 3 593 11 q 530 -51 546 -17 q 514 -114 514 -86 q 523 -142 514 -129 q 554 -154 532 -154 q 581 -149 565 -154 q 613 -129 596 -143 l 675 -250 q 606 -290 644 -276 q 524 -303 568 -303 q 396 -251 443 -303 q 349 -131 349 -199 q 358 -74 349 -107 q 381 -14 367 -40 q 142 89 231 -1 q 53 336 53 179 q 149 597 53 500 q 400 693 244 693 m 394 524 q 314 493 347 524 q 271 407 281 463 l 517 407 q 476 492 507 460 q 394 524 446 524 z "},"ě":{"ha":761,"x_min":53,"x_max":711,"o":"m 117 1061 l 313 1061 l 400 972 l 485 1061 l 675 1061 l 454 818 l 339 818 l 117 1061 m 400 693 q 635 589 558 693 q 711 342 711 485 l 711 275 l 272 275 q 330 186 286 218 q 442 154 374 154 q 527 165 488 154 q 613 197 567 175 l 672 53 q 547 -1 621 14 q 431 -17 474 -17 q 156 76 260 -17 q 53 336 53 168 q 149 597 53 500 q 400 693 244 693 m 394 524 q 314 493 347 524 q 271 407 281 463 l 517 407 q 476 492 507 460 q 394 524 446 524 z "},"ğ":{"ha":831,"x_min":53,"x_max":739,"o":"m 407 817 q 243 888 299 818 q 188 1056 188 958 l 329 1056 q 347 992 329 1021 q 407 964 365 964 q 463 992 440 964 q 486 1056 486 1019 l 628 1056 q 572 888 628 958 q 407 817 515 818 m 263 340 q 296 210 263 267 q 417 154 329 154 q 476 166 443 154 q 535 193 508 178 l 535 481 q 474 514 507 500 q 411 528 440 528 q 295 466 328 528 q 263 340 263 404 m 739 672 l 739 0 q 652 -211 739 -131 q 386 -292 565 -292 q 260 -272 343 -292 q 119 -214 176 -253 l 181 -71 q 289 -114 244 -101 q 382 -126 333 -126 q 496 -93 457 -126 q 535 -1 535 -60 l 535 29 q 451 -3 496 8 q 364 -15 407 -15 q 132 86 211 -15 q 53 339 53 188 q 135 595 53 492 q 374 699 217 699 q 486 676 425 699 q 592 617 547 653 l 635 672 l 739 672 z "},"ì":{"ha":376,"x_min":-1,"x_max":293,"o":"m -1 1061 l 206 1061 l 293 817 l 138 817 l -1 1061 m 289 674 l 289 0 l 85 0 l 85 674 l 289 674 z "},"í":{"ha":376,"x_min":81,"x_max":379,"o":"m 171 1061 l 379 1061 l 238 817 l 81 817 l 171 1061 m 289 674 l 289 0 l 85 0 l 85 674 l 289 674 z "},"î":{"ha":376,"x_min":-89,"x_max":467,"o":"m 106 817 l -89 817 l 131 1061 l 244 1061 l 467 817 l 276 817 q 234 861 256 839 q 192 906 213 883 q 148 861 169 883 q 106 817 126 839 m 289 674 l 289 0 l 85 0 l 85 674 l 289 674 z "},"ï":{"ha":376,"x_min":-46,"x_max":424,"o":"m 149 935 q 120 865 149 893 q 50 838 92 838 q -17 865 11 838 q -46 935 -46 893 q -17 1004 -46 975 q 50 1033 11 1033 q 120 1004 92 1033 q 149 935 149 975 m 424 935 q 395 865 424 893 q 325 838 367 838 q 256 865 285 838 q 226 935 226 893 q 256 1004 226 975 q 325 1033 285 1033 q 395 1004 367 1033 q 424 935 424 975 m 289 674 l 289 0 l 85 0 l 85 674 l 289 674 z "},"ī":{"ha":376,"x_min":0,"x_max":375,"o":"m 0 1013 l 375 1013 l 375 851 l 0 851 l 0 1013 m 289 674 l 289 0 l 85 0 l 85 674 l 289 674 z "},"į":{"ha":376,"x_min":60,"x_max":389,"o":"m 301 881 q 267 801 301 833 q 186 768 233 768 q 107 801 139 768 q 75 881 75 833 q 107 961 75 928 q 186 994 139 994 q 267 961 233 994 q 301 881 301 928 m 289 674 l 289 0 l 275 0 q 241 -53 257 -19 q 225 -112 225 -86 q 235 -142 225 -129 q 268 -154 246 -154 q 293 -148 278 -154 q 325 -129 308 -142 l 389 -250 q 319 -289 358 -276 q 236 -301 281 -301 q 107 -249 154 -301 q 60 -129 60 -197 q 72 -63 60 -103 q 101 0 85 -24 l 85 0 l 85 674 l 289 674 z "},"ľ":{"ha":647,"x_min":92,"x_max":633,"o":"m 633 899 q 577 738 633 819 q 438 614 521 656 l 396 707 q 450 756 426 731 q 482 817 474 782 q 434 852 457 822 q 411 919 411 882 q 442 994 411 958 q 519 1031 474 1031 q 600 994 567 1031 q 633 899 633 957 m 294 981 l 294 0 l 92 0 l 92 965 l 294 981 z "},"ñ":{"ha":826,"x_min":85,"x_max":749,"o":"m 319 833 l 181 833 q 231 978 181 938 q 340 1018 281 1018 q 421 994 388 1018 q 490 971 454 971 q 515 984 504 971 q 526 1013 526 997 l 657 1013 q 608 867 657 908 q 500 826 560 826 q 422 851 451 826 q 356 875 392 875 q 331 861 342 875 q 319 833 319 847 m 492 699 q 690 619 631 699 q 749 421 749 539 l 749 0 l 544 0 l 544 413 q 516 498 544 468 q 438 528 488 528 q 363 510 404 528 q 289 471 322 493 l 289 0 l 85 0 l 85 674 l 190 674 l 244 606 q 358 672 289 644 q 492 699 428 699 z "},"ń":{"ha":826,"x_min":85,"x_max":749,"o":"m 381 1061 l 586 1061 l 446 818 l 290 818 l 381 1061 m 492 699 q 690 619 631 699 q 749 421 749 539 l 749 0 l 544 0 l 544 413 q 516 498 544 468 q 438 528 488 528 q 363 510 404 528 q 289 471 322 493 l 289 0 l 85 0 l 85 674 l 190 674 l 244 606 q 358 672 289 644 q 492 699 428 699 z "},"ň":{"ha":826,"x_min":85,"x_max":749,"o":"m 150 1061 l 347 1061 l 433 972 l 519 1061 l 707 1061 l 486 818 l 372 818 l 150 1061 m 492 699 q 690 619 631 699 q 749 421 749 539 l 749 0 l 544 0 l 544 413 q 516 498 544 468 q 438 528 488 528 q 363 510 404 528 q 289 471 322 493 l 289 0 l 85 0 l 85 674 l 190 674 l 244 606 q 358 672 289 644 q 492 699 428 699 z "},"ò":{"ha":829,"x_min":53,"x_max":776,"o":"m 240 1061 l 449 1061 l 538 818 l 381 818 l 240 1061 m 414 693 q 678 597 581 693 q 776 332 776 500 q 672 76 776 168 q 404 -17 568 -17 q 148 77 243 -17 q 53 339 53 171 q 153 599 53 504 q 414 693 253 693 m 407 156 q 522 198 478 156 q 565 332 565 240 q 526 470 565 418 q 417 522 488 522 q 305 476 346 522 q 264 340 264 431 q 300 203 264 251 q 407 156 336 156 z "},"ó":{"ha":829,"x_min":53,"x_max":776,"o":"m 383 1061 l 589 1061 l 450 818 l 293 818 l 383 1061 m 414 693 q 678 597 581 693 q 776 332 776 500 q 672 76 776 168 q 404 -17 568 -17 q 148 77 243 -17 q 53 339 53 171 q 153 599 53 504 q 414 693 253 693 m 407 156 q 522 198 478 156 q 565 332 565 240 q 526 470 565 418 q 417 522 488 522 q 305 476 346 522 q 264 340 264 431 q 300 203 264 251 q 407 156 336 156 z "},"ô":{"ha":829,"x_min":53,"x_max":776,"o":"m 328 818 l 132 818 l 354 1061 l 468 1061 l 690 818 l 500 818 l 415 907 l 328 818 m 414 693 q 678 597 581 693 q 776 332 776 500 q 672 76 776 168 q 404 -17 568 -17 q 148 77 243 -17 q 53 339 53 171 q 153 599 53 504 q 414 693 253 693 m 407 156 q 522 198 478 156 q 565 332 565 240 q 526 470 565 418 q 417 522 488 522 q 305 476 346 522 q 264 340 264 431 q 300 203 264 251 q 407 156 336 156 z "},"õ":{"ha":829,"x_min":53,"x_max":776,"o":"m 310 833 l 171 833 q 220 978 171 938 q 329 1018 269 1018 q 410 994 376 1018 q 478 971 443 971 q 503 984 493 971 q 514 1013 514 997 l 647 1013 q 598 867 647 908 q 489 826 549 826 q 410 851 442 826 q 344 875 379 875 q 320 861 331 875 q 310 833 310 847 m 414 693 q 678 597 581 693 q 776 332 776 500 q 672 76 776 168 q 404 -17 568 -17 q 148 77 243 -17 q 53 339 53 171 q 153 599 53 504 q 414 693 253 693 m 407 156 q 522 198 478 156 q 565 332 565 240 q 526 470 565 418 q 417 522 488 522 q 305 476 346 522 q 264 340 264 431 q 300 203 264 251 q 407 156 336 156 z "},"ö":{"ha":829,"x_min":53,"x_max":776,"o":"m 372 935 q 344 866 372 894 q 274 838 315 838 q 206 866 235 838 q 176 935 176 894 q 206 1005 176 976 q 274 1033 235 1033 q 344 1005 315 1033 q 372 935 372 976 m 647 935 q 619 866 647 894 q 549 838 592 838 q 480 866 510 838 q 450 935 450 894 q 480 1005 450 976 q 549 1033 510 1033 q 619 1005 592 1033 q 647 935 647 976 m 414 693 q 678 597 581 693 q 776 332 776 500 q 672 76 776 168 q 404 -17 568 -17 q 148 77 243 -17 q 53 339 53 171 q 153 599 53 504 q 414 693 253 693 m 407 156 q 522 198 478 156 q 565 332 565 240 q 526 470 565 418 q 417 522 488 522 q 305 476 346 522 q 264 340 264 431 q 300 203 264 251 q 407 156 336 156 z "},"ō":{"ha":829,"x_min":53,"x_max":776,"o":"m 219 1013 l 597 1013 l 597 851 l 219 851 l 219 1013 m 414 693 q 678 597 581 693 q 776 332 776 500 q 672 76 776 168 q 404 -17 568 -17 q 148 77 243 -17 q 53 339 53 171 q 153 599 53 504 q 414 693 253 693 m 407 156 q 522 198 478 156 q 565 332 565 240 q 526 470 565 418 q 417 522 488 522 q 305 476 346 522 q 264 340 264 431 q 300 203 264 251 q 407 156 336 156 z "},"ő":{"ha":829,"x_min":53,"x_max":776,"o":"m 551 1061 l 743 1061 l 601 818 l 460 818 l 551 1061 m 275 1061 l 469 1061 l 328 818 l 186 818 l 275 1061 m 414 693 q 678 597 581 693 q 776 332 776 500 q 672 76 776 168 q 404 -17 568 -17 q 148 77 243 -17 q 53 339 53 171 q 153 599 53 504 q 414 693 253 693 m 407 156 q 522 198 478 156 q 565 332 565 240 q 526 470 565 418 q 417 522 488 522 q 305 476 346 522 q 264 340 264 431 q 300 203 264 251 q 407 156 336 156 z "},"ŕ":{"ha":514,"x_min":85,"x_max":506,"o":"m 228 1061 l 435 1061 l 293 817 l 138 817 q 183 939 160 878 q 228 1061 206 1000 m 464 674 l 506 510 q 400 488 458 510 q 289 419 342 465 l 289 0 l 85 0 l 85 672 l 189 672 l 250 583 q 350 646 292 618 q 464 674 408 674 z "},"ř":{"ha":514,"x_min":-21,"x_max":536,"o":"m -21 1061 l 174 1061 l 260 972 l 346 1061 l 536 1061 q 424 939 481 1000 q 313 817 368 878 l 200 817 l -21 1061 m 464 674 l 506 510 q 400 488 458 510 q 289 419 342 465 l 289 0 l 85 0 l 85 672 l 189 672 l 250 583 q 350 646 292 618 q 464 674 408 674 z "},"ś":{"ha":619,"x_min":46,"x_max":578,"o":"m 286 1061 l 493 1061 l 353 818 l 196 818 l 286 1061 m 346 426 q 504 342 431 396 q 578 200 578 289 q 507 41 578 99 q 297 -17 436 -17 q 176 3 254 -17 q 46 61 97 22 l 106 206 q 201 169 151 183 q 286 156 250 156 q 349 167 328 156 q 369 196 369 179 q 348 235 369 218 q 279 268 326 253 q 124 344 197 294 q 50 482 50 394 q 123 638 50 582 q 325 693 196 693 q 438 675 367 693 q 563 618 510 657 l 503 474 q 414 509 457 496 q 328 522 371 522 q 278 510 294 522 q 261 481 261 499 q 280 455 261 467 q 346 426 299 443 z "},"š":{"ha":619,"x_min":33,"x_max":590,"o":"m 33 1061 l 229 1061 l 317 972 l 403 1061 l 590 1061 l 369 818 l 256 818 l 33 1061 m 346 426 q 504 342 431 396 q 578 200 578 289 q 507 41 578 99 q 297 -17 436 -17 q 176 3 254 -17 q 46 61 97 22 l 106 206 q 201 169 151 183 q 286 156 250 156 q 349 167 328 156 q 369 196 369 179 q 348 235 369 218 q 279 268 326 253 q 124 344 197 294 q 50 482 50 394 q 123 638 50 582 q 325 693 196 693 q 438 675 367 693 q 563 618 510 657 l 503 474 q 414 509 457 496 q 328 522 371 522 q 278 510 294 522 q 261 481 261 499 q 280 455 261 467 q 346 426 299 443 z "},"ť":{"ha":789,"x_min":10,"x_max":775,"o":"m 775 899 q 719 738 775 819 q 581 614 664 656 l 538 708 q 592 757 568 732 q 625 818 615 782 q 576 853 600 824 q 551 919 551 883 q 584 994 551 958 q 663 1031 617 1031 q 742 994 708 1031 q 775 899 775 958 m 393 -24 q 187 40 268 -24 q 106 228 106 104 l 106 506 l 10 506 l 10 664 l 106 664 l 106 831 l 308 864 l 308 664 l 444 664 l 489 506 l 308 506 l 308 258 q 333 178 308 210 q 406 147 358 147 q 444 153 424 147 q 486 168 465 158 l 546 24 q 476 -10 522 4 q 393 -24 431 -24 z "},"ù":{"ha":817,"x_min":76,"x_max":731,"o":"m 224 1061 l 431 1061 l 521 818 l 365 818 l 224 1061 m 331 -26 q 134 54 192 -26 q 76 251 76 135 l 76 674 l 282 674 l 282 260 q 309 174 282 204 q 386 144 336 144 q 456 160 418 144 q 526 197 494 176 l 526 674 l 731 674 l 731 0 l 625 0 l 574 64 q 462 0 529 26 q 331 -26 394 -26 z "},"ú":{"ha":817,"x_min":76,"x_max":731,"o":"m 378 1061 l 586 1061 l 444 818 l 289 818 l 378 1061 m 331 -26 q 134 54 192 -26 q 76 251 76 135 l 76 674 l 282 674 l 282 260 q 309 174 282 204 q 386 144 336 144 q 456 160 418 144 q 526 197 494 176 l 526 674 l 731 674 l 731 0 l 625 0 l 574 64 q 462 0 529 26 q 331 -26 394 -26 z "},"û":{"ha":817,"x_min":76,"x_max":731,"o":"m 324 818 l 128 818 l 350 1061 l 464 1061 l 686 818 l 496 818 l 411 907 l 324 818 m 331 -26 q 134 54 192 -26 q 76 251 76 135 l 76 674 l 282 674 l 282 260 q 309 174 282 204 q 386 144 336 144 q 456 160 418 144 q 526 197 494 176 l 526 674 l 731 674 l 731 0 l 625 0 l 574 64 q 462 0 529 26 q 331 -26 394 -26 z "},"ü":{"ha":817,"x_min":76,"x_max":731,"o":"m 643 935 q 615 866 643 894 q 546 838 588 838 q 476 866 506 838 q 447 935 447 894 q 476 1005 447 976 q 546 1033 506 1033 q 615 1005 588 1033 q 643 935 643 976 m 368 935 q 340 866 368 894 q 271 838 313 838 q 201 866 231 838 q 171 935 171 894 q 201 1005 171 976 q 271 1033 231 1033 q 340 1005 313 1033 q 368 935 368 976 m 331 -26 q 134 54 192 -26 q 76 251 76 135 l 76 674 l 282 674 l 282 260 q 309 174 282 204 q 386 144 336 144 q 456 160 418 144 q 526 197 494 176 l 526 674 l 731 674 l 731 0 l 625 0 l 574 64 q 462 0 529 26 q 331 -26 394 -26 z "},"ū":{"ha":817,"x_min":76,"x_max":731,"o":"m 210 1013 l 588 1013 l 588 851 l 210 851 l 210 1013 m 331 -26 q 134 54 192 -26 q 76 251 76 135 l 76 674 l 282 674 l 282 260 q 309 174 282 204 q 386 144 336 144 q 456 160 418 144 q 526 197 494 176 l 526 674 l 731 674 l 731 0 l 625 0 l 574 64 q 462 0 529 26 q 331 -26 394 -26 z "},"ů":{"ha":817,"x_min":76,"x_max":731,"o":"m 560 969 q 513 865 560 906 q 404 825 465 825 q 294 865 340 825 q 247 969 247 906 q 294 1074 247 1032 q 404 1117 340 1117 q 513 1074 465 1117 q 560 969 560 1032 m 453 969 q 439 1004 453 990 q 404 1018 425 1018 q 369 1004 383 1018 q 354 969 354 990 q 369 933 354 949 q 404 918 383 918 q 439 933 425 918 q 453 969 453 949 m 331 -26 q 134 54 192 -26 q 76 251 76 135 l 76 674 l 282 674 l 282 260 q 309 174 282 204 q 386 144 336 144 q 456 160 418 144 q 526 197 494 176 l 526 674 l 731 674 l 731 0 l 625 0 l 574 64 q 462 0 529 26 q 331 -26 394 -26 z "},"ű":{"ha":817,"x_min":76,"x_max":743,"o":"m 275 1061 l 468 1061 l 328 818 l 185 818 l 275 1061 m 550 1061 l 743 1061 l 601 818 l 460 818 l 550 1061 m 331 -26 q 134 54 192 -26 q 76 251 76 135 l 76 674 l 282 674 l 282 260 q 309 174 282 204 q 386 144 336 144 q 456 160 418 144 q 526 197 494 176 l 526 674 l 731 674 l 731 0 l 625 0 l 574 64 q 462 0 529 26 q 331 -26 394 -26 z "},"ų":{"ha":817,"x_min":76,"x_max":843,"o":"m 331 -26 q 134 54 192 -26 q 76 251 76 135 l 76 674 l 282 674 l 282 260 q 309 174 282 204 q 386 144 336 144 q 456 160 418 144 q 526 197 494 176 l 526 674 l 731 674 l 731 0 q 697 -51 713 -18 q 681 -114 681 -83 q 690 -142 681 -129 q 722 -154 700 -154 q 748 -149 732 -154 q 781 -129 764 -143 l 843 -250 q 774 -290 813 -276 q 692 -303 736 -303 q 563 -251 610 -303 q 517 -131 517 -199 q 540 -30 517 -75 q 590 43 564 15 l 574 64 q 462 0 529 26 q 331 -26 394 -26 z "},"ý":{"ha":726,"x_min":10,"x_max":717,"o":"m 324 1061 l 532 1061 l 390 817 l 233 817 l 324 1061 m 231 -22 l 254 35 l 10 649 l 215 674 q 290 474 253 574 q 364 274 328 374 l 506 674 l 717 674 l 417 -85 q 301 -226 383 -167 q 126 -307 219 -285 l 56 -142 q 160 -93 106 -122 q 231 -22 214 -64 z "},"ÿ":{"ha":726,"x_min":10,"x_max":717,"o":"m 600 935 q 572 865 600 893 q 503 838 544 838 q 433 865 463 838 q 404 935 404 893 q 433 1004 404 975 q 503 1033 463 1033 q 572 1004 544 1033 q 600 935 600 975 m 326 935 q 297 865 326 893 q 226 838 268 838 q 158 865 188 838 q 128 935 128 893 q 158 1004 128 975 q 226 1033 188 1033 q 297 1004 268 1033 q 326 935 326 975 m 231 -22 l 254 35 l 10 649 l 215 674 q 290 474 253 574 q 364 274 328 374 l 506 674 l 717 674 l 417 -85 q 301 -226 383 -167 q 126 -307 219 -285 l 56 -142 q 160 -93 106 -122 q 231 -22 214 -64 z "},"ź":{"ha":639,"x_min":24,"x_max":611,"o":"m 314 1061 l 521 1061 l 379 817 l 224 817 q 269 939 246 878 q 314 1061 292 1000 m 593 568 l 290 163 l 594 163 l 611 0 l 49 0 l 24 107 l 325 518 l 75 518 l 44 683 l 583 683 l 593 568 z "},"ż":{"ha":639,"x_min":24,"x_max":611,"o":"m 453 935 q 421 856 453 888 q 343 825 389 825 q 264 856 296 825 q 232 935 232 888 q 264 1013 232 981 q 343 1046 296 1046 q 421 1013 389 1046 q 453 935 453 981 m 593 568 l 290 163 l 594 163 l 611 0 l 49 0 l 24 107 l 325 518 l 75 518 l 44 683 l 583 683 l 593 568 z "},"ž":{"ha":639,"x_min":24,"x_max":611,"o":"m 51 1061 l 247 1061 q 290 1017 268 1039 q 333 972 311 994 q 377 1017 356 994 q 419 1061 399 1039 l 610 1061 l 388 817 l 274 817 l 51 1061 m 593 568 l 290 163 l 594 163 l 611 0 l 49 0 l 24 107 l 325 518 l 75 518 l 44 683 l 583 683 l 593 568 z "},"ş":{"ha":619,"x_min":46,"x_max":578,"o":"m 346 426 q 504 342 431 396 q 578 200 578 289 q 523 56 578 111 q 363 -12 468 0 l 350 -44 q 419 -100 393 -61 q 444 -175 444 -139 q 389 -288 444 -250 q 264 -326 333 -326 q 190 -314 232 -326 q 122 -281 149 -301 l 167 -171 q 210 -187 185 -179 q 254 -196 236 -196 q 285 -191 271 -196 q 299 -172 299 -186 q 266 -135 299 -151 q 178 -112 233 -119 l 221 -7 q 128 18 176 1 q 46 61 79 35 l 106 206 q 201 169 151 183 q 286 156 250 156 q 349 167 328 156 q 369 196 369 179 q 348 235 369 218 q 279 268 326 253 q 124 344 197 294 q 50 482 50 394 q 123 638 50 582 q 325 693 196 693 q 438 675 367 693 q 563 618 510 657 l 503 474 q 414 509 457 496 q 328 522 371 522 q 278 510 294 522 q 261 481 261 499 q 280 455 261 467 q 346 426 299 443 z "},"ķ":{"ha":750,"x_min":92,"x_max":744,"o":"m 294 981 l 294 444 l 571 693 q 630 621 600 657 q 689 550 660 585 l 501 393 q 623 196 561 294 q 744 0 685 97 l 515 0 l 357 272 q 326 245 342 258 q 294 219 310 232 l 294 0 l 92 0 l 92 965 l 294 981 m 500 -161 q 447 -309 500 -240 q 319 -411 393 -378 l 276 -318 q 317 -288 294 -308 q 349 -242 340 -268 q 301 -206 325 -236 q 276 -139 276 -176 q 308 -64 276 -99 q 386 -29 340 -29 q 467 -65 433 -29 q 500 -161 500 -101 z "},"ļ":{"ha":386,"x_min":90,"x_max":313,"o":"m 294 981 l 294 0 l 92 0 l 92 965 l 294 981 m 313 -161 q 260 -309 313 -240 q 132 -411 207 -378 l 90 -318 q 131 -288 108 -308 q 163 -242 154 -268 q 114 -206 138 -236 q 90 -139 90 -176 q 122 -64 90 -99 q 201 -29 154 -29 q 280 -65 247 -29 q 313 -161 313 -101 z "},"ņ":{"ha":826,"x_min":85,"x_max":749,"o":"m 492 699 q 690 619 631 699 q 749 421 749 539 l 749 0 l 544 0 l 544 413 q 516 498 544 468 q 438 528 488 528 q 363 510 404 528 q 289 471 322 493 l 289 0 l 85 0 l 85 674 l 190 674 l 244 606 q 358 672 289 644 q 492 699 428 699 m 522 -162 q 469 -310 522 -242 q 343 -412 417 -379 l 300 -318 q 341 -290 318 -310 q 372 -243 364 -269 q 325 -208 349 -237 q 301 -140 301 -178 q 333 -65 301 -100 q 411 -29 364 -29 q 490 -66 458 -29 q 522 -162 522 -103 z "},"ŗ":{"ha":514,"x_min":82,"x_max":506,"o":"m 464 674 l 506 510 q 400 488 458 510 q 289 419 342 465 l 289 0 l 85 0 l 85 672 l 189 672 l 250 583 q 350 646 292 618 q 464 674 408 674 m 304 -161 q 252 -309 304 -240 q 125 -411 200 -378 l 82 -318 q 124 -288 100 -308 q 156 -242 147 -268 q 106 -206 129 -236 q 82 -139 82 -176 q 114 -64 82 -99 q 193 -29 146 -29 q 272 -65 239 -29 q 304 -161 304 -101 z "},"ţ":{"ha":560,"x_min":10,"x_max":546,"o":"m 546 24 q 488 -6 525 6 q 417 -21 451 -18 l 408 -44 q 477 -99 451 -61 q 503 -174 503 -137 q 448 -287 503 -249 q 322 -325 393 -325 q 248 -312 290 -325 q 179 -281 206 -300 l 225 -169 q 268 -187 242 -178 q 313 -196 294 -196 q 343 -190 329 -196 q 357 -171 357 -185 q 325 -135 357 -151 q 238 -112 293 -118 q 258 -60 247 -86 q 279 -8 268 -35 q 147 83 190 17 q 104 258 104 150 l 104 504 l 10 504 l 10 663 l 104 663 l 104 831 l 308 863 l 308 663 l 443 663 l 489 504 l 308 504 l 308 257 q 333 178 308 208 q 404 147 357 147 q 444 152 422 147 q 486 168 465 157 q 515 95 500 132 q 546 24 531 58 z "},"ș":{"ha":619,"x_min":46,"x_max":578,"o":"m 346 426 q 504 342 431 396 q 578 200 578 289 q 507 41 578 99 q 297 -17 436 -17 q 176 3 254 -17 q 46 61 97 22 l 106 206 q 201 169 151 183 q 286 156 250 156 q 349 167 328 156 q 369 196 369 179 q 348 235 369 218 q 279 268 326 253 q 124 344 197 294 q 50 482 50 394 q 123 638 50 582 q 325 693 196 693 q 438 675 367 693 q 563 618 510 657 l 503 474 q 414 509 457 496 q 328 522 371 522 q 278 510 294 522 q 261 481 261 499 q 280 455 261 467 q 346 426 299 443 m 419 -162 q 367 -310 419 -242 q 239 -412 314 -379 l 197 -318 q 238 -290 215 -310 q 268 -243 261 -269 q 220 -208 244 -237 q 196 -140 196 -178 q 228 -65 196 -100 q 307 -29 261 -29 q 386 -66 353 -29 q 419 -162 419 -103 z "},"ț":{"ha":560,"x_min":10,"x_max":546,"o":"m 393 -24 q 187 40 268 -24 q 106 228 106 104 l 106 506 l 10 506 l 10 664 l 106 664 l 106 831 l 308 864 l 308 664 l 444 664 l 489 506 l 308 506 l 308 258 q 333 178 308 210 q 406 147 358 147 q 444 153 424 147 q 486 168 465 158 l 546 24 q 476 -10 522 4 q 393 -24 431 -24 m 478 -162 q 426 -310 478 -242 q 299 -412 374 -379 l 256 -318 q 297 -290 274 -310 q 329 -243 319 -269 q 280 -208 304 -237 q 256 -140 256 -178 q 288 -65 256 -100 q 367 -29 319 -29 q 445 -66 413 -29 q 478 -162 478 -103 z "},"­":{"ha":182,"x_min":0,"x_max":0,"o":""},"µ":{"ha":817,"x_min":92,"x_max":743,"o":"m 344 -26 q 317 -25 331 -26 q 294 -21 304 -24 l 294 -290 l 92 -304 l 92 672 l 294 672 l 294 258 q 322 175 294 207 q 400 143 350 143 q 469 159 432 143 q 539 196 507 175 l 539 672 l 743 672 l 743 0 l 639 0 q 613 31 625 15 q 589 63 601 47 q 476 -1 543 25 q 344 -26 408 -26 z "},"ˉ":{"ha":415,"x_min":19,"x_max":396,"o":"m 19 1013 l 396 1013 l 396 851 l 19 851 l 19 1013 z "},"ℓ":{"ha":636,"x_min":28,"x_max":594,"o":"m 28 396 q 79 422 51 407 q 136 456 107 438 l 136 754 q 208 916 136 857 q 374 975 279 975 q 531 919 467 975 q 594 765 594 864 q 519 564 594 665 q 342 379 444 463 l 342 247 q 359 180 342 203 q 417 157 376 157 q 456 162 431 157 q 510 188 481 167 l 575 54 q 490 4 539 22 q 397 -14 440 -14 q 204 47 272 -14 q 136 226 136 108 l 136 244 q 107 230 122 238 q 76 217 92 222 l 28 396 m 339 746 l 339 604 q 384 678 367 639 q 401 757 401 717 q 392 794 401 783 q 369 804 383 804 q 347 790 356 804 q 339 746 339 776 z "},"Ω":{"ha":1032,"x_min":67,"x_max":964,"o":"m 514 793 q 346 708 410 793 q 282 475 282 622 q 316 284 282 375 q 418 163 350 193 l 418 0 l 78 0 l 67 163 l 175 163 q 97 308 124 222 q 71 478 71 393 q 189 831 71 696 q 514 965 307 965 q 842 831 724 965 q 960 478 960 696 q 933 308 960 393 q 856 163 907 222 l 964 163 l 951 0 l 611 0 q 613 142 613 121 q 613 163 613 163 q 715 285 681 194 q 749 475 749 375 q 685 708 749 622 q 514 793 621 793 z "},"∆":{"ha":926,"x_min":10,"x_max":917,"o":"m 540 944 l 917 25 l 726 0 l 10 0 l 388 944 l 540 944 m 460 654 l 269 163 l 654 163 l 460 654 z "},"∕":{"ha":642,"x_min":8,"x_max":635,"o":"m 635 981 l 219 0 l 8 0 l 422 981 l 635 981 z "},"∙":{"ha":401,"x_min":43,"x_max":358,"o":"m 43 458 q 89 569 43 522 q 200 617 135 617 q 312 569 265 617 q 358 458 358 522 q 312 348 358 393 q 200 303 265 303 q 89 348 135 303 q 43 458 43 393 z "},"₺":{"ha":843,"x_min":42,"x_max":808,"o":"m 363 981 l 363 844 q 456 876 410 860 q 550 910 503 893 q 567 837 558 874 q 585 765 575 800 l 363 688 l 363 633 l 550 700 q 567 627 558 664 q 585 556 575 590 l 363 476 l 363 182 q 531 256 464 183 q 599 458 599 329 q 703 458 650 458 q 808 457 757 457 q 685 125 808 250 q 363 0 561 0 l 158 0 l 158 404 q 110 388 135 396 q 64 372 86 381 l 42 521 q 100 541 71 531 q 158 561 129 551 l 158 615 l 64 581 l 42 731 q 100 751 71 740 q 158 771 129 761 l 158 964 l 363 981 z "},"₽":{"ha":910,"x_min":57,"x_max":856,"o":"m 708 138 l 368 138 l 368 0 l 164 0 l 164 138 l 72 138 l 57 289 l 164 289 l 164 349 l 58 349 l 58 513 l 164 513 l 164 944 l 478 944 q 744 878 633 944 q 856 647 856 813 q 736 416 856 483 q 467 349 617 349 l 368 349 l 368 289 l 694 289 l 708 138 m 472 778 l 368 778 l 368 513 l 475 513 q 594 541 549 513 q 643 640 639 569 q 598 751 643 724 q 472 778 553 778 z "},"¢":{"ha":675,"x_min":53,"x_max":633,"o":"m 417 522 q 306 470 349 522 q 264 336 264 418 q 306 205 264 254 q 417 156 349 156 q 494 165 460 156 q 576 197 529 175 l 633 53 q 570 16 606 31 q 500 -6 535 1 l 500 -169 l 310 -156 l 310 -7 q 121 108 189 19 q 53 336 53 197 q 120 565 53 474 q 308 682 188 656 l 308 858 l 499 858 l 499 681 q 569 660 533 675 q 633 624 604 646 l 576 479 q 494 512 529 501 q 417 522 460 522 z "},"£":{"ha":713,"x_min":61,"x_max":697,"o":"m 61 550 l 168 550 l 168 693 q 240 879 168 810 q 433 949 313 949 q 527 937 476 949 q 607 900 578 925 q 576 829 592 865 q 547 757 561 793 q 504 772 526 767 q 465 778 482 778 q 396 747 418 778 q 374 668 374 715 l 374 550 l 544 550 l 592 393 l 374 393 l 374 272 q 368 211 374 240 q 351 158 363 182 l 671 158 q 685 79 678 119 q 697 0 692 39 l 76 0 l 76 158 l 86 158 q 149 190 129 160 q 168 268 168 221 l 168 393 l 61 393 l 61 550 z "},"¤":{"ha":999,"x_min":29,"x_max":971,"o":"m 342 340 q 390 224 343 272 q 500 176 436 176 q 614 224 567 176 q 661 340 661 272 q 613 456 661 410 q 500 503 565 503 q 389 455 435 501 q 342 340 343 408 m 501 -18 q 403 -5 451 -17 q 315 28 356 7 l 165 -126 l 35 19 l 179 165 q 148 247 160 203 q 136 339 136 290 q 148 433 136 388 q 181 514 160 478 l 29 661 l 168 804 l 315 653 q 403 686 356 674 q 501 699 450 699 q 598 687 551 699 q 683 654 644 675 l 833 807 l 965 660 l 822 518 q 856 435 843 479 q 868 342 868 390 q 856 246 868 290 q 822 163 843 201 l 971 19 l 831 -124 l 683 26 q 598 -5 644 7 q 501 -18 551 -17 z "},"¥":{"ha":869,"x_min":10,"x_max":860,"o":"m 746 83 l 532 83 l 532 0 l 328 0 l 328 83 l 125 83 l 110 226 l 328 226 l 328 294 l 125 294 l 110 436 l 289 436 q 149 678 218 557 q 10 919 79 800 l 221 944 l 428 567 l 646 944 l 860 944 l 572 436 l 732 436 l 746 294 l 532 294 l 532 226 l 732 226 l 746 83 z "},"€":{"ha":904,"x_min":47,"x_max":871,"o":"m 708 281 l 414 281 q 488 185 440 221 q 606 150 536 150 q 709 163 664 150 q 794 196 754 176 q 833 120 814 158 q 871 44 853 82 q 743 -2 818 14 q 606 -18 668 -18 q 339 65 436 -18 q 206 281 242 149 l 64 281 l 47 422 l 183 422 q 181 445 182 433 q 181 468 181 457 q 181 492 181 479 q 183 517 182 504 l 64 517 l 47 660 l 207 660 q 349 878 247 794 q 608 963 451 963 q 731 947 660 963 q 863 896 803 931 l 800 753 q 688 786 722 779 q 611 793 654 793 q 493 758 543 793 q 414 660 443 724 l 694 660 l 708 517 l 379 517 q 378 494 379 506 q 378 469 378 482 q 378 445 378 457 q 379 422 379 433 l 694 422 l 708 281 z "},"$":{"ha":772,"x_min":57,"x_max":719,"o":"m 204 -174 l 204 4 q 126 32 163 17 q 69 61 89 47 q 97 140 83 100 q 124 221 110 181 q 231 178 164 199 q 354 157 299 157 q 469 182 431 157 q 508 250 508 207 q 283 422 508 350 q 57 704 57 494 q 97 837 57 778 q 213 929 138 896 l 213 1118 l 347 1113 l 347 963 q 369 965 357 964 q 390 965 381 965 q 406 965 399 965 q 421 963 413 964 l 421 1118 l 558 1118 l 558 935 q 613 915 586 926 q 661 892 639 903 q 629 815 646 853 q 596 739 613 778 q 497 776 543 761 q 393 792 450 792 q 306 767 343 792 q 268 706 268 742 q 494 527 268 603 q 719 247 719 451 q 676 110 719 171 q 553 15 632 50 l 553 -175 l 415 -160 l 415 -15 q 387 -17 401 -17 q 358 -18 372 -18 l 340 -18 l 340 -174 l 204 -174 z "},",":{"ha":272,"x_min":14,"x_max":253,"o":"m 253 71 q 197 -90 253 -8 q 57 -214 140 -172 l 14 -119 q 69 -71 44 -96 q 101 -11 93 -46 q 53 25 76 -6 q 31 92 31 56 q 62 167 31 132 q 139 203 93 203 q 219 166 186 203 q 253 71 253 129 z "},".":{"ha":249,"x_min":14,"x_max":233,"o":"m 233 110 q 202 31 233 63 q 125 0 171 0 q 46 31 78 0 q 14 110 14 63 q 46 188 14 157 q 125 219 78 219 q 202 188 171 219 q 233 110 233 157 z "},"!":{"ha":346,"x_min":63,"x_max":283,"o":"m 92 340 l 67 981 l 278 981 l 254 278 l 92 340 m 283 110 q 251 31 283 63 q 172 0 219 0 q 94 31 126 0 q 63 110 63 63 q 94 188 63 157 q 172 219 126 219 q 251 188 219 219 q 283 110 283 157 z "},"¡":{"ha":346,"x_min":63,"x_max":283,"o":"m 63 871 q 94 949 63 917 q 172 981 126 981 q 251 949 219 981 q 283 871 283 917 q 251 792 283 824 q 172 760 219 760 q 94 792 126 760 q 63 871 63 824 m 254 640 l 276 0 l 67 0 l 90 701 l 254 640 z "},":":{"ha":249,"x_min":14,"x_max":233,"o":"m 233 549 q 202 471 233 503 q 125 439 171 439 q 46 471 78 439 q 14 549 14 503 q 46 627 14 594 q 125 660 78 660 q 202 627 171 660 q 233 549 233 594 m 233 110 q 202 31 233 63 q 125 0 171 0 q 46 31 78 0 q 14 110 14 63 q 46 188 14 157 q 125 219 78 219 q 202 188 171 219 q 233 110 233 157 z "},";":{"ha":268,"x_min":8,"x_max":249,"o":"m 249 549 q 217 471 249 503 q 139 439 185 439 q 59 471 92 439 q 26 549 26 503 q 59 627 26 594 q 139 660 92 660 q 217 627 185 660 q 249 549 249 594 m 247 88 q 192 -74 247 8 q 53 -197 136 -156 l 8 -103 q 63 -54 39 -79 q 96 6 88 -29 q 49 42 72 11 q 25 108 25 72 q 57 184 25 149 q 135 219 89 219 q 215 183 182 219 q 247 88 247 146 z "},"?":{"ha":610,"x_min":19,"x_max":582,"o":"m 582 719 q 519 566 582 640 q 349 440 457 492 l 326 260 l 175 314 l 165 540 q 324 619 261 571 q 386 718 386 668 q 356 782 386 758 q 283 806 326 806 q 182 787 243 806 q 46 721 121 768 l 19 897 q 151 956 85 938 q 288 974 217 974 q 505 903 428 974 q 582 719 582 832 m 350 110 q 318 31 350 63 q 240 0 286 0 q 161 31 193 0 q 129 110 129 63 q 161 188 129 157 q 240 219 193 219 q 318 188 286 219 q 350 110 350 157 z "},"¿":{"ha":650,"x_min":53,"x_max":615,"o":"m 285 813 q 317 890 285 858 q 394 922 349 922 q 474 890 442 922 q 506 813 506 858 q 474 733 506 765 q 394 701 442 701 q 317 733 349 701 q 285 813 285 765 m 53 203 q 115 357 53 282 q 286 483 178 432 l 308 663 l 460 608 l 471 382 q 311 303 374 351 q 249 203 249 254 q 278 140 249 164 q 351 117 308 117 q 453 135 393 117 q 589 201 514 153 l 615 25 q 483 -33 550 -15 q 346 -51 417 -51 q 129 19 206 -51 q 53 203 53 90 z "},"*":{"ha":556,"x_min":15,"x_max":542,"o":"m 279 710 q 229 642 271 700 q 182 575 188 585 l 54 667 l 151 799 q 90 812 131 804 q 24 824 50 819 q 19 824 22 824 q 15 825 17 825 l 58 969 l 196 936 q 197 1003 196 958 q 199 1072 197 1047 l 360 1072 l 360 936 l 499 969 l 542 825 l 406 799 l 503 667 l 376 575 l 279 710 z "},"\"":{"ha":529,"x_min":10,"x_max":515,"o":"m 515 899 q 460 738 515 819 q 321 614 404 656 l 278 708 q 332 757 308 732 q 365 818 356 782 q 317 853 340 824 q 293 919 293 883 q 325 994 293 958 q 404 1031 357 1031 q 483 994 450 1031 q 515 899 515 958 m 247 899 q 192 738 247 819 q 53 614 136 656 l 10 708 q 64 757 40 732 q 96 818 88 782 q 49 853 72 824 q 25 919 25 883 q 56 994 25 958 q 135 1031 88 1031 q 215 994 182 1031 q 247 899 247 958 z "},"'":{"ha":261,"x_min":10,"x_max":247,"o":"m 247 899 q 192 738 247 819 q 53 614 136 656 l 10 708 q 64 757 40 732 q 96 818 88 782 q 49 853 72 824 q 25 919 25 883 q 56 994 25 958 q 135 1031 88 1031 q 215 994 182 1031 q 247 899 247 958 z "},"‘":{"ha":261,"x_min":14,"x_max":253,"o":"m 14 747 q 69 909 14 826 q 208 1031 125 992 l 253 938 q 198 890 222 914 q 165 828 174 865 q 213 792 189 822 q 236 725 236 763 q 205 650 236 686 q 126 614 174 614 q 47 651 79 614 q 14 747 14 689 z "},"’":{"ha":261,"x_min":10,"x_max":247,"o":"m 247 899 q 192 738 247 819 q 53 614 136 656 l 10 708 q 64 757 40 732 q 96 818 88 782 q 49 853 72 824 q 25 919 25 883 q 56 994 25 958 q 135 1031 88 1031 q 215 994 182 1031 q 247 899 247 958 z "},"‚":{"ha":261,"x_min":10,"x_max":247,"o":"m 247 71 q 192 -90 247 -8 q 53 -214 136 -172 l 10 -119 q 64 -71 40 -96 q 96 -11 88 -46 q 49 25 72 -6 q 25 92 25 56 q 56 167 25 132 q 135 203 88 203 q 215 166 182 203 q 247 71 247 129 z "},"“":{"ha":529,"x_min":14,"x_max":521,"o":"m 14 747 q 69 909 14 826 q 208 1031 125 992 l 253 938 q 198 890 222 914 q 165 828 174 865 q 213 792 189 822 q 236 725 236 763 q 205 650 236 686 q 126 614 174 614 q 47 651 79 614 q 14 747 14 689 m 282 747 q 338 909 282 826 q 476 1031 393 992 l 521 938 q 466 890 490 914 q 433 828 442 865 q 481 792 457 822 q 506 725 506 763 q 473 650 506 686 q 394 614 440 614 q 315 651 349 614 q 282 747 282 689 z "},"”":{"ha":529,"x_min":10,"x_max":515,"o":"m 515 899 q 460 738 515 819 q 321 614 404 656 l 278 708 q 332 757 308 732 q 365 818 356 782 q 317 853 340 824 q 293 919 293 883 q 325 994 293 958 q 404 1031 357 1031 q 483 994 450 1031 q 515 899 515 958 m 247 899 q 192 738 247 819 q 53 614 136 656 l 10 708 q 64 757 40 732 q 96 818 88 782 q 49 853 72 824 q 25 919 25 883 q 56 994 25 958 q 135 1031 88 1031 q 215 994 182 1031 q 247 899 247 958 z "},"„":{"ha":529,"x_min":10,"x_max":515,"o":"m 515 71 q 460 -90 515 -8 q 321 -214 404 -172 l 278 -119 q 332 -71 308 -96 q 365 -11 356 -46 q 317 25 340 -6 q 293 92 293 56 q 325 167 293 132 q 404 203 357 203 q 483 166 450 203 q 515 71 515 129 m 247 71 q 192 -90 247 -8 q 53 -214 136 -172 l 10 -119 q 64 -71 40 -96 q 96 -11 88 -46 q 49 25 72 -6 q 25 92 25 56 q 56 167 25 132 q 135 203 88 203 q 215 166 182 203 q 247 71 247 129 z "},"·":{"ha":249,"x_min":14,"x_max":233,"o":"m 233 364 q 202 286 233 318 q 125 254 171 254 q 46 286 78 254 q 14 364 14 318 q 46 443 14 411 q 125 475 78 475 q 202 443 171 475 q 233 364 233 411 z "},"(":{"ha":426,"x_min":57,"x_max":403,"o":"m 57 446 q 103 703 57 581 q 233 947 149 826 l 403 896 q 298 683 343 814 q 253 447 253 551 q 297 206 253 340 q 401 -1 342 71 l 233 -54 q 104 181 151 54 q 57 446 57 308 z "},")":{"ha":426,"x_min":24,"x_max":369,"o":"m 369 446 q 322 190 369 313 q 192 -54 275 67 l 24 -3 q 128 210 83 79 q 172 446 172 342 q 128 687 172 551 q 25 893 85 822 l 193 947 q 322 711 274 839 q 369 446 369 583 z "},"[":{"ha":508,"x_min":96,"x_max":499,"o":"m 299 806 l 299 38 l 472 38 q 485 -42 479 -1 q 499 -121 492 -82 l 96 -121 l 96 967 l 499 967 q 486 886 493 926 q 472 806 479 846 l 299 806 z "},"]":{"ha":508,"x_min":10,"x_max":413,"o":"m 207 38 l 207 806 l 33 806 q 22 886 28 846 q 10 967 15 926 l 413 967 l 413 -121 l 10 -121 l 33 38 l 207 38 z "},"{":{"ha":429,"x_min":42,"x_max":419,"o":"m 342 550 q 328 476 342 506 q 293 429 315 447 q 328 378 318 406 q 338 318 338 350 q 315 229 338 271 q 293 140 293 188 q 305 114 293 128 q 346 100 317 100 l 401 100 l 419 -57 l 325 -57 q 167 -10 217 -57 q 117 118 117 38 q 140 217 117 163 q 163 301 163 272 q 144 344 163 328 q 104 360 126 360 l 42 360 l 42 497 l 104 497 q 144 513 126 497 q 163 556 163 529 q 140 647 163 603 q 117 740 117 690 q 169 869 117 824 q 335 915 221 915 l 419 915 l 401 757 l 346 757 q 306 743 318 757 q 294 717 294 729 q 318 635 294 675 q 342 550 342 596 z "},"}":{"ha":429,"x_min":10,"x_max":386,"o":"m 86 307 q 99 381 86 351 q 135 428 113 410 q 102 469 117 444 q 88 536 88 494 q 110 627 88 581 q 132 717 132 674 q 122 742 132 728 q 82 757 113 757 l 25 757 l 10 915 l 93 915 q 259 869 206 915 q 313 740 313 824 q 289 640 313 694 q 265 556 265 585 q 283 513 265 529 q 324 497 301 497 l 386 497 l 386 360 l 324 360 q 283 344 301 360 q 265 301 265 328 q 289 209 265 256 q 313 118 313 163 q 259 -11 313 35 q 93 -57 206 -57 l 10 -57 l 25 100 l 82 100 q 122 114 113 100 q 132 140 132 128 q 109 221 132 182 q 86 307 86 260 z "},"/":{"ha":642,"x_min":8,"x_max":635,"o":"m 635 981 l 219 0 l 8 0 l 422 981 l 635 981 z "},"\\":{"ha":642,"x_min":8,"x_max":635,"o":"m 422 -6 l 8 986 l 219 986 l 635 -6 l 422 -6 z "},"|":{"ha":422,"x_min":110,"x_max":313,"o":"m 313 974 l 313 -15 q 211 -8 261 -12 q 110 0 161 -3 l 110 990 q 211 981 161 986 q 313 974 261 976 z "},"¦":{"ha":422,"x_min":110,"x_max":313,"o":"m 313 974 l 313 558 l 110 575 l 110 990 q 211 981 161 986 q 313 974 261 976 m 313 399 l 313 -15 q 211 -8 261 -12 q 110 0 161 -3 l 110 414 q 282 401 254 404 q 313 399 310 399 z "},"«":{"ha":544,"x_min":29,"x_max":525,"o":"m 490 111 l 269 308 l 269 374 l 490 572 l 525 443 l 417 342 l 525 239 l 490 111 m 250 111 l 29 308 l 29 374 l 250 572 l 286 443 l 176 342 l 286 239 l 250 111 z "},"»":{"ha":544,"x_min":17,"x_max":515,"o":"m 53 572 l 274 374 l 274 308 l 53 111 l 17 240 l 126 342 l 17 443 l 53 572 m 293 572 l 515 374 l 515 308 l 293 111 l 258 240 l 367 342 l 258 443 l 293 572 z "},"π":{"ha":1039,"x_min":53,"x_max":986,"o":"m 649 0 l 649 514 l 390 514 l 390 0 l 188 0 l 188 514 l 53 514 l 53 674 l 986 674 l 986 514 l 853 514 l 853 0 l 649 0 z "},"†":{"ha":631,"x_min":33,"x_max":597,"o":"m 424 1083 l 424 868 l 572 868 l 597 689 l 408 689 l 408 0 l 211 0 l 211 689 l 60 689 l 33 868 l 211 868 l 211 1083 l 424 1083 z "},"‡":{"ha":668,"x_min":43,"x_max":624,"o":"m 218 -8 l 225 214 l 69 214 l 43 393 l 225 393 l 225 689 l 69 689 l 43 868 l 221 868 l 221 1083 l 444 1083 l 444 868 l 599 868 l 624 689 l 444 689 l 444 393 l 599 393 l 624 214 l 440 214 l 447 1 l 218 -8 z "},"•":{"ha":401,"x_min":43,"x_max":358,"o":"m 43 458 q 89 569 43 522 q 200 617 135 617 q 312 569 265 617 q 358 458 358 522 q 312 348 358 393 q 200 303 265 303 q 89 348 135 303 q 43 458 43 393 z "},"…":{"ha":731,"x_min":14,"x_max":717,"o":"m 215 100 q 186 28 215 57 q 115 0 157 0 q 44 28 74 0 q 14 100 14 57 q 44 172 14 143 q 115 201 74 201 q 186 172 157 201 q 215 100 215 143 m 717 99 q 688 28 717 57 q 615 0 658 0 q 546 28 575 0 q 517 99 517 57 q 546 171 517 142 q 615 200 575 200 q 688 171 658 200 q 717 99 717 142 m 467 99 q 438 28 467 57 q 368 0 408 0 q 296 28 325 0 q 267 99 267 57 q 296 171 267 142 q 368 200 325 200 q 438 171 408 200 q 467 99 467 142 z "},"‹":{"ha":321,"x_min":29,"x_max":300,"o":"m 264 104 l 29 306 l 29 381 l 264 585 l 300 436 l 194 343 l 300 251 l 264 104 z "},"›":{"ha":321,"x_min":22,"x_max":293,"o":"m 58 585 l 293 381 l 293 307 l 58 104 l 22 251 l 125 343 l 22 436 l 58 585 z "},"-":{"ha":435,"x_min":24,"x_max":411,"o":"m 411 300 l 39 300 l 24 461 l 397 461 l 411 300 z "},"_":{"ha":585,"x_min":24,"x_max":561,"o":"m 561 0 l 39 0 l 24 160 l 547 160 l 561 0 z "},"–":{"ha":585,"x_min":24,"x_max":561,"o":"m 561 300 l 39 300 l 24 461 l 547 461 l 561 300 z "},"—":{"ha":738,"x_min":24,"x_max":714,"o":"m 714 300 l 39 300 l 24 461 l 701 461 l 714 300 z "},"#":{"ha":814,"x_min":28,"x_max":785,"o":"m 740 718 q 725 645 733 682 q 708 574 717 608 l 771 574 l 785 424 l 674 424 l 640 283 l 771 283 l 785 133 l 606 133 q 588 56 596 94 q 571 -21 581 17 l 400 -14 l 433 133 l 278 133 q 260 56 268 94 q 242 -21 251 17 l 72 -14 l 106 133 l 43 133 l 28 283 l 140 283 q 156 353 147 318 q 172 424 164 389 l 43 424 l 28 574 l 208 574 l 242 718 l 414 718 q 397 645 406 682 q 379 574 389 608 l 535 574 l 568 718 l 740 718 m 346 424 q 329 353 338 389 q 314 283 321 318 l 467 283 l 500 424 l 346 424 z "},"%":{"ha":1326,"x_min":38,"x_max":1288,"o":"m 971 981 l 557 0 l 349 0 l 763 981 l 971 981 m 38 733 q 108 910 38 846 q 275 975 179 975 q 444 910 375 975 q 513 733 513 846 q 441 557 513 622 q 272 492 369 492 q 107 556 176 492 q 38 733 38 621 m 276 831 q 224 806 246 831 q 203 735 203 782 q 222 659 203 683 q 274 635 242 635 q 327 659 306 635 q 349 732 349 683 q 329 805 349 779 q 276 831 310 831 m 814 242 q 884 418 814 354 q 1051 482 954 482 q 1219 418 1150 482 q 1288 242 1288 354 q 1216 65 1288 131 q 1049 0 1144 0 q 883 65 951 0 q 814 242 814 129 m 1051 339 q 999 315 1021 339 q 978 243 978 290 q 997 167 978 192 q 1050 142 1017 142 q 1103 167 1082 142 q 1124 240 1124 192 q 1104 313 1124 288 q 1051 339 1085 339 z "},"+":{"ha":732,"x_min":24,"x_max":708,"o":"m 708 301 l 467 301 l 467 4 l 276 11 l 276 301 l 36 301 l 24 460 l 276 460 l 276 738 l 467 738 l 467 460 l 694 460 l 708 301 z "},"÷":{"ha":674,"x_min":24,"x_max":649,"o":"m 450 617 q 416 537 450 569 q 335 504 382 504 q 254 537 288 504 q 221 617 221 569 q 254 697 221 664 q 335 731 288 731 q 416 697 382 731 q 450 617 450 664 m 649 303 l 38 303 l 24 458 l 635 458 l 649 303 m 450 136 q 416 56 450 89 q 335 22 382 22 q 254 56 288 22 q 221 136 221 89 q 254 217 221 183 q 335 250 288 250 q 416 217 382 250 q 450 136 450 183 z "},"×":{"ha":782,"x_min":28,"x_max":753,"o":"m 28 64 q 149 211 89 138 q 269 358 210 285 l 39 647 l 226 675 l 383 478 l 543 672 l 753 672 l 485 347 q 607 192 539 276 q 729 40 675 108 l 524 40 l 372 228 l 214 33 q 121 49 167 42 q 28 64 75 56 z "},"±":{"ha":661,"x_min":29,"x_max":632,"o":"m 632 411 l 419 411 l 419 199 l 249 207 l 249 411 l 44 411 l 29 550 l 249 550 l 249 756 l 419 756 l 419 550 l 618 550 l 632 411 m 631 0 l 43 0 l 32 140 l 622 140 l 631 0 z "},"<":{"ha":496,"x_min":29,"x_max":458,"o":"m 422 17 l 29 299 l 29 389 l 422 669 l 458 497 l 240 344 l 458 190 l 422 17 z "},"=":{"ha":703,"x_min":29,"x_max":675,"o":"m 675 424 l 44 424 l 29 575 l 661 575 l 675 424 m 675 133 l 44 133 l 29 283 l 661 283 l 675 133 z "},">":{"ha":496,"x_min":38,"x_max":468,"o":"m 75 669 l 468 389 l 468 297 l 75 17 l 38 189 l 256 343 l 38 496 l 75 669 z "},"°":{"ha":369,"x_min":10,"x_max":358,"o":"m 358 838 q 306 719 358 767 q 185 672 253 672 q 62 719 114 672 q 10 838 10 767 q 62 955 10 906 q 185 1004 114 1004 q 306 955 253 1004 q 358 838 358 906 m 186 885 q 152 870 167 885 q 138 838 138 856 q 152 801 138 818 q 186 785 167 785 q 219 800 206 785 q 233 833 233 815 q 219 869 233 854 q 186 885 206 885 z "},"¹":{"ha":538,"x_min":71,"x_max":479,"o":"m 82 600 l 206 600 l 206 860 l 142 828 l 71 958 l 264 1060 l 378 1060 l 378 600 l 465 600 q 477 489 475 507 q 479 468 479 471 l 94 468 l 82 600 z "},"²":{"ha":561,"x_min":47,"x_max":503,"o":"m 483 886 q 451 768 483 822 q 343 650 418 714 l 283 601 l 483 601 l 503 468 l 47 468 l 47 586 l 233 742 q 295 809 275 776 q 315 881 315 842 q 297 915 315 900 q 249 931 279 931 q 169 906 211 931 q 118 872 128 881 l 50 992 q 133 1044 81 1017 q 258 1071 185 1071 q 431 1011 379 1071 q 483 886 483 951 z "},"³":{"ha":592,"x_min":26,"x_max":519,"o":"m 507 888 q 481 803 507 843 q 424 750 454 764 q 488 695 456 739 q 519 593 519 651 q 449 447 519 506 q 263 388 379 388 q 141 408 204 388 q 26 457 78 429 l 106 576 q 180 538 149 550 q 250 526 211 526 q 317 545 292 526 q 342 594 342 564 q 315 656 342 635 q 242 678 289 678 l 178 678 l 160 811 l 233 811 q 311 833 292 811 q 331 881 331 856 q 314 913 331 897 q 253 929 297 929 q 182 915 214 929 q 121 878 150 900 l 47 996 q 156 1051 99 1032 q 275 1071 213 1071 q 447 1017 388 1071 q 507 888 507 964 z "},"¼":{"ha":1318,"x_min":71,"x_max":1278,"o":"m 82 600 l 206 600 l 206 860 l 142 828 l 71 958 l 264 1060 l 378 1060 l 378 600 l 465 600 q 477 489 475 507 q 479 468 479 471 l 94 468 l 82 600 m 911 685 q 714 340 813 514 q 515 0 615 167 l 310 0 l 703 685 l 911 685 m 1264 -110 l 1157 -110 l 1157 -229 l 982 -229 l 982 -110 l 699 -110 l 679 26 l 1032 449 l 1157 449 l 1157 29 l 1278 29 q 1270 -40 1274 -4 q 1264 -110 1267 -75 m 868 29 l 982 29 l 982 165 l 868 29 z "},"½":{"ha":1347,"x_min":71,"x_max":1301,"o":"m 82 600 l 206 600 l 206 860 l 142 828 l 71 958 l 264 1060 l 378 1060 l 378 600 l 465 600 q 477 489 475 507 q 479 468 479 471 l 94 468 l 82 600 m 921 685 l 525 0 l 318 0 l 711 685 l 921 685 m 1282 265 q 1250 148 1282 201 q 1143 31 1218 94 q 1113 6 1128 17 q 1083 -19 1097 -6 l 1283 -19 q 1293 -85 1289 -53 q 1301 -151 1297 -118 l 847 -151 l 847 -33 q 940 43 894 4 q 1033 121 986 82 q 1095 188 1075 156 q 1115 260 1115 221 q 1097 295 1115 279 q 1049 311 1079 311 q 982 290 1026 311 q 917 253 938 268 q 883 312 900 282 q 850 372 865 342 q 932 423 881 396 q 1057 450 983 450 q 1230 390 1178 450 q 1282 265 1282 331 z "},"¾":{"ha":1332,"x_min":26,"x_max":1292,"o":"m 928 686 l 532 0 l 322 0 l 718 686 l 928 686 m 507 888 q 481 803 507 843 q 424 750 454 764 q 488 695 456 739 q 519 593 519 651 q 449 447 519 506 q 263 388 379 388 q 141 408 204 388 q 26 457 78 429 l 106 576 q 180 538 149 550 q 250 526 211 526 q 317 545 292 526 q 342 594 342 564 q 315 656 342 635 q 242 678 289 678 l 178 678 l 160 811 l 233 811 q 311 833 292 811 q 331 881 331 856 q 314 913 331 897 q 253 929 297 929 q 182 915 214 929 q 121 878 150 900 l 47 996 q 156 1051 99 1032 q 275 1071 213 1071 q 447 1017 388 1071 q 507 888 507 964 m 1279 -110 l 1172 -110 l 1172 -229 l 997 -229 l 997 -110 l 714 -110 l 694 26 l 1047 449 l 1172 449 l 1172 31 l 1292 31 l 1279 -110 m 882 31 l 997 31 l 997 165 l 882 31 z "},"℮":{"ha":736,"x_min":33,"x_max":692,"o":"m 379 693 q 616 589 540 693 q 692 342 692 485 l 692 275 l 253 275 q 310 186 267 218 q 421 154 353 154 q 508 165 468 154 q 594 197 549 175 l 653 53 q 528 -1 601 14 q 411 -17 454 -17 q 136 76 239 -17 q 33 336 33 168 q 130 597 33 500 q 379 693 226 693 m 375 524 q 295 493 328 524 q 251 407 263 463 l 496 407 q 457 492 488 460 q 375 524 426 524 z "},"∂":{"ha":803,"x_min":43,"x_max":735,"o":"m 360 585 q 426 574 392 585 q 490 547 460 564 q 358 676 442 622 q 190 749 274 731 l 285 886 q 608 694 481 847 q 735 379 735 540 q 627 90 735 186 q 360 -6 519 -6 q 131 88 218 -6 q 43 299 43 181 q 132 499 43 414 q 360 585 221 585 m 365 161 q 480 206 436 161 q 536 328 524 250 q 473 398 517 365 q 372 431 429 431 q 272 389 307 431 q 238 292 238 347 q 272 201 238 242 q 365 161 306 161 z "},"∏":{"ha":960,"x_min":110,"x_max":850,"o":"m 644 0 l 644 785 l 313 785 l 313 0 l 110 0 l 110 944 l 850 944 l 850 0 l 644 0 z "},"∑":{"ha":685,"x_min":46,"x_max":667,"o":"m 667 0 l 46 0 l 46 153 l 272 478 l 50 789 l 50 944 l 582 944 l 610 783 l 276 783 l 464 513 l 464 446 l 271 158 l 640 158 q 653 79 646 119 q 667 0 660 39 z "},"−":{"ha":638,"x_min":24,"x_max":614,"o":"m 614 300 l 38 300 l 24 461 l 599 461 l 614 300 z "},"√":{"ha":922,"x_min":8,"x_max":915,"o":"m 915 981 l 501 0 l 253 0 l 8 460 l 228 460 l 372 193 l 706 981 l 915 981 z "},"∞":{"ha":1197,"x_min":46,"x_max":1150,"o":"m 826 488 q 736 435 776 486 q 679 325 696 385 l 672 300 q 739 234 699 260 q 826 208 779 208 q 924 253 886 208 q 963 358 963 299 q 924 449 963 410 q 826 488 886 488 m 371 206 q 468 269 422 206 q 524 396 514 333 q 458 459 499 433 q 371 485 417 485 q 273 440 311 485 q 235 336 235 396 q 273 245 235 285 q 371 206 311 206 m 607 551 q 701 630 642 597 q 829 663 761 663 q 1061 578 972 663 q 1150 356 1150 493 q 1060 126 1150 218 q 832 33 969 33 q 696 64 758 33 q 590 143 633 94 q 496 64 556 97 q 368 31 436 31 q 137 116 228 31 q 46 339 46 201 q 137 569 46 478 q 365 661 228 661 q 501 630 439 661 q 607 551 563 599 z "},"∫":{"ha":664,"x_min":8,"x_max":657,"o":"m 156 -249 q 74 -234 117 -249 q 8 -200 31 -219 l 65 -57 q 106 -72 88 -67 q 143 -76 125 -76 q 210 -46 190 -76 q 229 33 229 -15 l 229 832 q 306 1021 229 954 q 510 1088 383 1088 q 592 1074 549 1088 q 657 1040 635 1060 l 597 896 q 558 911 576 906 q 521 917 539 917 q 453 886 474 917 q 433 807 433 856 l 433 8 q 358 -182 433 -115 q 156 -249 282 -249 z "},"≈":{"ha":728,"x_min":29,"x_max":697,"o":"m 506 404 q 380 431 449 404 q 242 458 311 458 q 201 442 224 458 q 178 394 179 425 l 29 424 q 92 576 29 536 q 231 615 156 615 q 358 588 278 615 q 494 561 439 561 q 529 578 513 561 q 547 625 546 594 l 697 596 q 639 444 697 483 q 506 404 581 404 m 506 121 q 380 148 449 121 q 242 175 311 175 q 201 159 224 175 q 178 113 179 143 l 29 140 q 92 294 29 256 q 231 333 154 333 q 358 306 278 333 q 494 279 439 279 q 529 296 513 281 q 547 343 546 311 l 697 315 q 639 162 697 203 q 506 121 581 121 z "},"≠":{"ha":717,"x_min":28,"x_max":688,"o":"m 617 718 l 553 575 l 675 575 l 688 419 l 485 419 l 425 283 l 675 283 l 688 128 l 354 128 l 288 -21 l 103 -14 q 135 57 119 21 q 167 128 150 93 l 43 128 l 28 283 l 235 283 l 297 419 l 43 419 l 28 575 l 364 575 l 429 718 l 617 718 z "},"≤":{"ha":508,"x_min":29,"x_max":482,"o":"m 446 178 l 32 401 l 32 513 l 446 738 l 481 572 l 258 457 l 481 343 l 446 178 m 482 0 l 40 0 l 29 140 l 472 140 l 482 0 z "},"≥":{"ha":508,"x_min":24,"x_max":476,"o":"m 475 400 q 269 288 372 344 q 63 176 165 232 q 44 259 53 218 q 26 342 35 300 l 247 456 q 137 513 192 483 q 26 571 82 542 q 44 653 35 613 q 63 736 53 694 q 269 624 165 681 q 475 511 372 568 l 475 400 m 476 0 l 35 0 l 24 139 l 465 139 l 476 0 z "},"‰":{"ha":1878,"x_min":38,"x_max":1839,"o":"m 974 981 l 558 0 l 351 0 l 764 981 l 974 981 m 38 733 q 108 910 38 846 q 275 975 179 975 q 444 910 375 975 q 513 733 513 846 q 441 557 513 622 q 272 492 369 492 q 107 556 176 492 q 38 733 38 621 m 276 831 q 224 806 246 831 q 203 735 203 782 q 222 659 203 683 q 274 635 242 635 q 327 659 306 635 q 349 732 349 683 q 329 805 349 779 q 276 831 310 831 m 1364 242 q 1434 418 1364 354 q 1603 482 1504 482 q 1769 418 1700 482 q 1839 242 1839 354 q 1767 65 1839 131 q 1600 0 1696 0 q 1433 65 1503 0 q 1364 242 1364 129 m 814 242 q 884 418 814 354 q 1051 482 954 482 q 1219 418 1150 482 q 1288 242 1288 354 q 1216 65 1288 131 q 1049 0 1144 0 q 883 65 951 0 q 814 242 814 129 m 1603 339 q 1550 315 1572 339 q 1528 243 1528 290 q 1547 167 1528 192 q 1601 142 1567 142 q 1654 167 1633 142 q 1675 240 1675 192 q 1656 313 1675 288 q 1603 339 1636 339 m 1051 339 q 999 315 1021 339 q 978 243 978 290 q 997 167 978 192 q 1050 142 1017 142 q 1103 167 1082 142 q 1124 240 1124 192 q 1104 313 1124 288 q 1051 339 1085 339 z "},"⁄":{"ha":642,"x_min":8,"x_max":635,"o":"m 635 981 l 219 0 l 8 0 l 422 981 l 635 981 z "},"◊":{"ha":796,"x_min":29,"x_max":767,"o":"m 358 0 l 29 388 l 29 444 l 358 833 l 439 833 l 767 444 l 767 388 l 439 0 l 358 0 m 224 415 l 397 208 l 572 415 l 397 624 l 224 415 z "},"©":{"ha":1211,"x_min":67,"x_max":1146,"o":"m 606 -62 q 213 92 360 -62 q 67 467 67 247 q 213 843 67 689 q 606 997 360 997 q 999 843 853 997 q 1146 467 1146 689 q 999 92 1146 247 q 606 -62 853 -62 m 606 64 q 897 181 790 64 q 1004 468 1004 297 q 900 756 1004 640 q 606 872 796 872 q 314 756 422 872 q 206 468 206 640 q 314 181 206 297 q 606 64 422 64 m 638 626 q 544 584 579 626 q 508 468 508 542 q 544 351 508 393 q 638 310 579 310 q 708 319 676 310 q 781 350 739 329 l 833 210 q 727 160 788 174 q 629 147 667 147 q 395 233 482 147 q 308 468 308 319 q 399 703 308 617 q 629 789 489 789 q 726 776 667 789 q 833 728 786 763 l 781 586 q 708 617 739 607 q 638 626 678 626 z "},"®":{"ha":1035,"x_min":29,"x_max":978,"o":"m 503 203 q 157 339 285 203 q 29 671 29 475 q 157 1006 29 869 q 503 1143 285 1143 q 850 1006 722 1143 q 978 671 978 869 q 850 339 978 475 q 503 203 722 203 m 503 315 q 760 418 667 317 q 854 672 854 519 q 760 926 854 825 q 503 1028 667 1028 q 244 926 338 1028 q 151 672 151 825 q 244 418 151 519 q 503 315 338 317 m 486 825 l 440 825 l 440 710 l 488 710 q 553 722 528 710 q 579 767 579 735 q 554 815 579 804 q 486 825 529 825 m 585 419 l 507 604 l 440 604 l 440 419 l 307 419 l 307 933 l 514 933 q 660 894 597 933 q 722 771 722 854 q 697 685 722 721 q 635 632 672 650 l 735 419 l 585 419 z "},"™":{"ha":1117,"x_min":42,"x_max":1063,"o":"m 42 944 l 500 944 l 517 829 l 342 829 l 342 417 l 200 417 l 200 829 l 42 829 l 42 944 m 797 564 l 703 668 l 703 417 l 558 417 l 558 944 l 643 944 l 819 733 l 982 943 q 999 944 986 943 q 1063 944 1011 944 l 1063 417 l 918 417 l 918 654 q 882 613 900 633 q 847 571 864 592 l 797 564 z "},"&":{"ha":958,"x_min":57,"x_max":929,"o":"m 456 793 q 378 764 403 793 q 353 703 353 735 q 377 628 353 665 q 457 543 401 592 l 665 358 q 693 451 682 401 q 707 551 704 500 q 799 515 753 533 q 889 478 844 496 q 866 343 883 408 q 821 221 849 278 l 929 128 q 869 52 899 90 q 808 -22 839 14 l 703 71 q 583 3 651 28 q 431 -21 514 -21 q 167 60 276 -21 q 57 301 57 142 q 93 442 57 374 q 186 560 129 510 q 156 623 167 589 q 144 696 144 657 q 227 885 144 804 q 444 967 310 967 q 585 944 517 967 q 710 890 653 922 l 646 738 q 556 776 601 760 q 456 793 510 793 m 432 156 q 502 167 469 156 q 561 199 535 178 q 452 298 507 249 q 342 397 397 347 l 314 422 q 282 366 293 396 q 271 306 271 336 q 318 192 271 229 q 432 156 365 156 z "},"@":{"ha":1135,"x_min":61,"x_max":1081,"o":"m 817 538 l 785 271 q 792 247 785 256 q 807 238 800 238 q 877 286 842 238 q 913 419 913 335 q 835 612 913 533 q 619 690 757 690 q 356 588 471 690 q 242 314 242 486 q 340 93 242 172 q 564 14 438 14 q 674 23 607 14 q 796 58 742 32 q 822 -10 810 24 q 846 -79 833 -44 q 693 -131 767 -121 q 551 -140 619 -140 q 213 -19 365 -140 q 61 318 61 103 q 211 689 61 529 q 618 849 361 849 q 949 727 817 849 q 1081 426 1081 606 q 994 167 1081 256 q 796 79 908 79 q 740 88 768 79 q 690 113 713 96 q 637 90 667 99 q 576 82 607 82 q 386 147 447 82 q 325 311 325 211 q 418 526 325 443 q 636 608 511 608 q 701 606 668 608 q 765 603 733 604 l 817 538 m 574 242 q 627 323 619 242 q 644 463 635 404 q 541 424 585 463 q 497 315 497 385 q 515 265 497 289 q 574 242 532 242 z "},"^":{"ha":650,"x_min":18,"x_max":631,"o":"m 225 197 l 18 197 l 256 557 l 394 557 l 631 197 l 426 197 l 326 356 l 225 197 z "},"~":{"ha":671,"x_min":25,"x_max":646,"o":"m 190 239 l 25 239 q 78 428 25 364 q 215 492 131 492 q 339 469 285 492 q 436 447 393 447 q 465 463 451 447 q 481 504 479 478 l 646 504 q 597 315 646 379 q 467 251 549 251 q 344 274 396 251 q 243 297 292 297 q 210 281 228 297 q 190 239 192 265 z "},"§":{"ha":911,"x_min":53,"x_max":857,"o":"m 431 415 q 523 365 478 392 q 607 306 568 338 q 637 333 626 317 q 647 368 647 350 q 594 443 647 408 q 478 508 542 478 q 386 558 433 531 q 300 618 339 585 q 273 593 282 608 q 264 560 264 578 q 310 485 264 517 q 431 415 357 454 m 196 826 q 285 1010 197 936 q 531 1083 372 1083 q 672 1063 600 1083 q 799 1011 743 1042 l 735 858 l 724 863 q 628 897 672 883 q 532 911 583 911 q 441 888 476 911 q 406 825 406 865 q 453 750 406 782 q 572 682 500 718 q 765 558 674 631 q 857 367 857 486 q 818 238 857 296 q 708 149 779 181 q 714 126 713 138 q 715 101 715 114 q 621 -90 714 -14 q 356 -165 528 -165 q 199 -140 292 -165 q 65 -85 106 -115 l 121 74 q 228 31 161 53 q 351 10 294 10 q 465 35 426 10 q 504 104 504 61 q 451 178 504 143 q 336 243 399 213 q 145 365 238 293 q 53 560 53 438 q 92 688 53 631 q 200 776 131 746 q 197 801 199 786 q 196 826 196 815 z "},"ª":{"ha":494,"x_min":33,"x_max":432,"o":"m 208 628 q 247 634 228 628 q 283 654 267 640 l 283 681 l 217 681 q 187 673 197 681 q 176 653 176 665 q 184 635 176 643 q 208 628 192 628 m 232 975 q 375 925 318 975 q 432 799 432 875 l 432 503 l 360 503 l 326 539 q 270 506 304 519 q 201 492 236 492 q 75 535 117 492 q 33 646 33 578 q 82 756 33 717 q 210 794 131 794 l 276 794 q 256 824 271 814 q 218 835 242 835 q 153 826 189 835 q 92 806 118 817 l 54 933 q 138 963 83 950 q 232 975 193 975 z "},"¬":{"ha":721,"x_min":19,"x_max":696,"o":"m 696 494 l 696 154 l 517 163 l 517 411 l 32 411 l 19 571 l 679 571 l 696 494 z "},"¶":{"ha":1361,"x_min":65,"x_max":1331,"o":"m 975 0 l 975 783 l 704 783 l 704 0 l 500 0 l 500 307 l 467 307 q 188 385 310 307 q 65 631 65 464 q 178 872 65 800 q 450 944 292 944 l 1331 944 l 1331 783 l 1179 783 l 1179 0 l 975 0 z "},"º":{"ha":546,"x_min":33,"x_max":511,"o":"m 33 733 q 98 910 33 844 q 271 975 163 975 q 449 908 386 975 q 511 731 511 840 q 444 557 511 622 q 264 492 376 492 q 94 558 156 492 q 33 733 33 624 m 274 835 q 219 811 239 835 q 199 733 199 788 q 215 657 199 683 q 268 631 231 631 q 326 655 307 631 q 346 731 346 679 q 331 806 346 778 q 274 835 315 835 z "},"ऀ":{"ha":0,"x_min":11,"x_max":710,"o":"m 710 1301 l 561 1210 q 472 1307 526 1276 q 361 1338 417 1338 q 248 1305 306 1338 q 160 1210 190 1272 l 11 1301 q 163 1458 67 1413 q 361 1504 260 1504 q 558 1458 461 1504 q 710 1301 654 1413 m 249 1160 q 281 1240 249 1207 q 360 1272 314 1272 q 440 1240 407 1272 q 472 1160 472 1207 q 440 1081 472 1114 q 360 1049 407 1049 q 281 1081 314 1049 q 249 1160 249 1114 z "},"ँ":{"ha":0,"x_min":72,"x_max":771,"o":"m 310 1388 q 342 1467 310 1433 q 421 1500 375 1500 q 501 1467 468 1500 q 533 1388 533 1433 q 501 1308 533 1340 q 421 1275 468 1275 q 342 1308 375 1275 q 310 1388 310 1340 m 422 1043 q 224 1089 321 1043 q 72 1246 128 1135 l 222 1338 q 309 1242 251 1275 q 422 1210 367 1210 q 533 1240 478 1210 q 622 1338 588 1271 l 771 1246 q 619 1089 715 1135 q 422 1043 522 1043 z "},"ं":{"ha":0,"x_min":18,"x_max":246,"o":"m 18 1185 q 51 1266 18 1232 q 131 1300 83 1300 q 213 1266 179 1300 q 246 1185 246 1232 q 213 1104 246 1138 q 131 1071 179 1071 q 51 1104 83 1071 q 18 1185 18 1138 z "},"ः":{"ha":308,"x_min":40,"x_max":269,"o":"m 40 633 q 74 714 40 681 q 154 747 107 747 q 235 714 201 747 q 269 633 269 681 q 235 553 269 586 q 154 519 201 519 q 74 553 107 519 q 40 633 40 586 m 40 167 q 74 247 40 213 q 154 281 107 281 q 235 247 201 281 q 269 167 269 213 q 235 85 269 118 q 154 53 201 53 q 74 85 107 53 q 40 167 40 118 z "},"ऄ":{"ha":1354,"x_min":82,"x_max":1369,"o":"m 758 1276 q 781 1221 758 1236 q 840 1206 803 1206 l 939 1206 q 1130 1147 1051 1206 q 1208 1003 1208 1088 l 1208 944 l 1346 944 l 1369 775 l 1214 775 l 1214 -22 l 1000 0 l 1000 407 l 704 407 q 747 344 732 383 q 763 264 763 304 q 668 61 763 143 q 396 -21 574 -21 q 229 0 313 -21 q 82 56 146 21 l 121 229 q 250 172 186 190 q 381 153 314 153 q 498 184 449 153 q 547 274 547 215 q 503 374 547 338 q 356 410 460 410 l 215 410 l 193 567 l 361 567 q 486 603 444 567 q 528 693 528 640 q 493 766 528 735 q 394 797 458 797 q 271 778 332 797 q 135 714 210 760 l 100 888 q 249 949 168 926 q 411 971 329 971 q 663 892 581 971 q 744 701 744 814 q 727 628 744 667 q 685 567 710 590 l 1000 567 l 1000 775 l 868 775 l 844 944 l 1011 944 q 988 1010 1011 986 q 925 1035 964 1035 l 838 1035 q 644 1091 717 1036 q 571 1233 571 1146 l 571 1303 l 758 1276 z "},"अ":{"ha":1354,"x_min":82,"x_max":1369,"o":"m 1000 0 l 1000 407 l 704 407 q 747 344 732 383 q 763 264 763 304 q 668 61 763 143 q 396 -21 574 -21 q 229 0 313 -21 q 82 56 146 21 l 121 229 q 250 172 186 190 q 381 153 314 153 q 498 184 449 153 q 547 274 547 215 q 503 374 547 338 q 356 410 460 410 l 215 410 l 193 567 l 361 567 q 486 603 444 567 q 528 693 528 640 q 493 766 528 735 q 394 797 458 797 q 271 778 332 797 q 135 714 210 760 l 100 888 q 249 949 168 926 q 411 971 329 971 q 663 892 581 971 q 744 701 744 814 q 727 628 744 667 q 685 567 710 590 l 1000 567 l 1000 775 l 868 775 l 844 944 l 1346 944 l 1369 775 l 1214 775 l 1214 -22 l 1000 0 z "},"आ":{"ha":1833,"x_min":82,"x_max":1849,"o":"m 1478 0 l 1478 775 l 1213 775 l 1213 -22 l 1000 0 l 1000 407 l 703 407 q 747 342 732 382 q 761 263 761 303 q 667 60 761 142 q 396 -21 574 -21 q 229 0 313 -21 q 82 56 146 21 l 119 228 q 249 170 185 189 q 381 151 314 151 q 497 183 449 151 q 546 272 546 214 q 502 374 546 338 q 354 410 458 410 l 215 410 l 192 565 l 360 565 q 483 603 440 565 q 526 692 526 642 q 492 765 526 735 q 393 796 457 796 q 270 777 331 796 q 133 713 210 758 l 100 888 q 248 949 168 926 q 411 971 328 971 q 661 892 579 971 q 743 700 743 813 q 726 627 743 665 q 683 565 708 589 l 1000 565 l 1000 775 l 867 775 l 844 944 l 1825 944 l 1849 775 l 1694 775 l 1694 -22 l 1478 0 z "},"इ":{"ha":786,"x_min":-15,"x_max":801,"o":"m 393 153 q 478 174 446 154 q 510 225 510 194 q 494 266 510 249 q 442 283 478 283 l 321 283 q 151 342 229 283 q 74 503 74 400 q 144 666 74 611 q 318 721 215 721 l 446 721 l 446 775 l 3 775 l -15 944 l 783 944 l 801 775 l 647 775 l 647 544 l 329 544 q 290 533 304 544 q 275 503 275 521 q 291 472 275 486 q 332 458 307 458 l 432 458 q 644 405 560 458 q 728 226 728 351 q 647 60 728 133 q 421 -21 565 -14 q 477 -94 449 -58 q 513 -140 506 -131 l 372 -240 l 197 -6 q 113 58 154 15 q 71 161 71 100 q 100 231 71 204 q 172 257 129 257 q 267 228 224 257 q 329 157 310 199 q 360 154 344 156 q 393 153 376 153 z "},"ई":{"ha":786,"x_min":-15,"x_max":801,"o":"m 393 153 q 478 174 446 154 q 510 225 510 194 q 494 266 510 249 q 442 283 478 283 l 321 283 q 151 342 229 283 q 74 503 74 400 q 144 666 74 611 q 318 721 215 721 l 446 721 l 446 775 l 3 775 l -15 944 l 406 944 q 372 1022 385 976 q 360 1104 360 1068 q 422 1261 360 1192 q 589 1331 483 1331 q 703 1306 651 1331 q 779 1254 754 1282 l 697 1114 q 659 1142 678 1132 q 618 1151 640 1151 q 569 1129 588 1151 q 551 1081 551 1107 q 569 1006 551 1043 q 606 944 586 969 l 783 944 l 801 775 l 647 775 l 647 544 l 329 544 q 290 533 304 544 q 275 503 275 521 q 291 472 275 486 q 332 458 307 458 l 432 458 q 644 405 560 458 q 728 226 728 351 q 647 60 728 133 q 421 -21 565 -14 q 477 -94 449 -58 q 513 -140 506 -131 l 372 -240 l 197 -6 q 113 58 154 15 q 71 161 71 100 q 100 231 71 204 q 172 257 129 257 q 267 228 224 257 q 329 157 310 199 q 360 154 344 156 q 393 153 376 153 z "},"उ":{"ha":864,"x_min":-15,"x_max":879,"o":"m 879 775 l 733 775 q 742 739 739 758 q 744 701 744 719 q 712 572 744 635 q 615 481 679 508 q 724 401 683 461 q 764 268 764 342 q 668 63 764 147 q 396 -21 572 -21 q 231 0 314 -21 q 83 56 147 21 l 122 229 q 250 172 186 190 q 381 153 314 153 q 499 184 450 153 q 547 274 547 215 q 503 374 547 338 q 356 410 458 410 l 215 410 l 193 567 l 363 567 q 487 603 446 567 q 528 693 528 640 q 515 740 528 718 q 479 775 503 761 l 8 775 l -15 944 l 856 944 l 879 775 z "},"ऊ":{"ha":1257,"x_min":-15,"x_max":1272,"o":"m 889 379 q 809 360 839 379 q 757 317 779 342 q 761 293 760 306 q 763 268 763 281 q 667 63 763 147 q 394 -21 572 -21 q 231 0 314 -21 q 82 56 147 21 l 121 229 q 250 172 186 190 q 381 153 314 153 q 497 184 449 153 q 546 274 546 215 q 502 374 546 338 q 354 410 458 410 l 215 410 l 193 567 l 361 567 q 486 603 444 567 q 528 693 528 640 q 515 740 528 718 q 478 775 501 761 l 8 775 l -15 944 l 1249 944 l 1272 775 l 732 775 q 741 739 738 758 q 744 701 744 719 q 712 572 744 635 q 615 481 679 508 q 642 470 628 478 q 667 457 657 463 q 761 522 701 492 q 897 551 821 551 q 1126 472 1044 551 q 1208 264 1208 393 q 1113 48 1208 121 q 888 -26 1017 -25 l 851 146 q 968 178 928 146 q 1008 264 1008 211 q 976 347 1008 315 q 889 379 944 379 z "},"ऋ":{"ha":1278,"x_min":-15,"x_max":1293,"o":"m 499 0 l 499 229 l 225 58 l 110 217 q 274 317 192 267 q 438 417 356 368 q 352 472 390 457 q 281 486 314 486 q 220 472 267 486 q 122 433 174 457 l 42 611 q 166 654 90 635 q 268 674 242 674 q 382 663 329 674 q 499 613 435 651 l 499 775 l 7 775 q -4 860 1 818 q -15 944 -10 901 l 1269 944 l 1293 775 l 714 775 l 714 506 q 806 523 753 510 q 875 550 858 536 q 862 586 867 567 q 857 629 857 606 q 888 705 857 681 q 958 729 918 729 q 1076 692 1024 729 q 1129 594 1129 656 q 1124 558 1129 578 q 1108 526 1119 539 q 1191 399 1164 467 q 1218 281 1218 331 q 1147 108 1218 165 q 967 50 1075 50 q 882 57 925 50 q 803 78 839 64 l 850 243 q 913 226 896 229 q 956 222 931 222 q 1005 238 986 222 q 1024 281 1024 254 q 1014 337 1024 303 q 978 410 1004 371 q 854 358 939 379 q 714 335 769 338 l 714 -22 l 499 0 z "},"ऌ":{"ha":1211,"x_min":-15,"x_max":1226,"o":"m 968 -72 q 1010 -69 982 -72 q 1071 -54 1038 -65 l 1106 -221 q 1029 -236 1068 -232 q 954 -240 990 -240 q 790 -182 865 -240 q 715 -15 715 -124 q 756 115 715 61 q 857 193 797 169 l 857 421 q 824 488 849 463 q 765 514 800 514 q 699 475 725 514 q 672 376 672 436 l 672 179 l 483 199 l 483 376 q 459 473 483 436 q 376 510 435 510 q 304 482 332 510 q 276 419 276 454 q 306 278 276 357 q 422 22 335 199 l 240 -35 q 117 226 157 125 q 76 433 76 328 q 163 613 76 538 q 372 689 249 689 q 488 666 435 689 q 575 608 542 643 q 658 667 608 644 q 768 689 707 689 q 814 685 790 689 q 857 671 838 681 l 857 775 l 8 775 l -15 944 l 1203 944 l 1226 775 l 1072 775 l 1072 42 l 960 42 q 911 26 929 42 q 893 -14 893 10 q 913 -56 893 -40 q 968 -72 933 -72 z "},"ऍ":{"ha":1044,"x_min":-15,"x_max":1061,"o":"m 526 1044 q 331 1090 426 1044 q 179 1247 235 1136 l 328 1339 q 415 1244 358 1276 q 526 1211 471 1211 q 636 1242 582 1211 q 726 1339 690 1274 l 874 1247 q 722 1090 818 1135 q 526 1044 626 1044 m 693 396 l 693 775 l 354 775 l 354 243 q 363 181 354 211 q 408 128 372 150 l 754 -89 l 651 -250 l 279 -29 q 172 71 204 14 q 139 221 139 128 l 139 775 l 8 775 l -15 944 l 1039 944 l 1061 775 l 908 775 l 908 367 q 839 200 908 263 q 632 92 769 138 l 540 253 q 657 310 621 281 q 693 396 693 339 z "},"ऎ":{"ha":1044,"x_min":-15,"x_max":1061,"o":"m 319 1276 q 342 1221 319 1236 q 403 1206 364 1206 l 625 1206 q 815 1147 736 1206 q 893 1003 893 1088 l 893 944 l 1039 944 l 1061 775 l 908 775 l 908 367 q 839 200 908 263 q 632 92 769 138 l 540 253 q 658 310 622 281 q 693 396 693 339 l 693 775 l 354 775 l 354 243 q 363 181 354 211 q 408 128 372 150 l 754 -89 l 651 -250 l 279 -29 q 172 71 204 14 q 139 221 139 128 l 139 775 l 8 775 l -15 944 l 697 944 q 674 1010 697 986 q 611 1035 650 1035 l 400 1035 q 206 1090 279 1035 q 132 1233 132 1146 l 132 1303 l 319 1276 z "},"ए":{"ha":1044,"x_min":-15,"x_max":1061,"o":"m 693 396 l 693 775 l 354 775 l 354 243 q 363 181 354 211 q 408 128 372 150 l 754 -89 l 651 -250 l 279 -29 q 172 71 204 14 q 139 221 139 128 l 139 775 l 8 775 l -15 944 l 1039 944 l 1061 775 l 908 775 l 908 367 q 839 200 908 263 q 632 92 769 138 l 540 253 q 657 310 621 281 q 693 396 693 339 z "},"ऐ":{"ha":1044,"x_min":-15,"x_max":1061,"o":"m 693 396 l 693 775 l 354 775 l 354 243 q 363 181 354 211 q 408 128 372 150 l 754 -89 l 651 -250 l 279 -29 q 172 71 204 14 q 139 221 139 128 l 139 775 l 8 775 l -15 944 l 626 944 l 315 1228 l 475 1340 l 874 944 l 1039 944 l 1061 775 l 908 775 l 908 367 q 839 200 908 263 q 632 92 769 138 l 540 253 q 657 310 621 281 q 693 396 693 339 z "},"ऑ":{"ha":1833,"x_min":82,"x_max":1849,"o":"m 1553 1338 l 1701 1247 q 1551 1090 1647 1135 q 1354 1044 1456 1044 q 1158 1090 1254 1044 q 1008 1247 1063 1135 l 1156 1338 q 1243 1242 1186 1275 q 1354 1210 1300 1210 q 1464 1241 1410 1210 q 1553 1338 1518 1272 m 1478 0 l 1478 775 l 1213 775 l 1213 -22 l 1000 0 l 1000 407 l 703 407 q 747 342 732 382 q 761 263 761 303 q 667 60 761 142 q 396 -21 574 -21 q 229 0 313 -21 q 82 56 146 21 l 119 228 q 249 170 185 189 q 381 151 314 151 q 497 183 449 151 q 546 272 546 214 q 502 374 546 338 q 354 410 458 410 l 215 410 l 192 565 l 360 565 q 483 603 440 565 q 526 692 526 642 q 492 765 526 735 q 393 796 457 796 q 270 777 331 796 q 133 713 210 758 l 100 888 q 248 949 168 926 q 411 971 328 971 q 661 892 579 971 q 743 700 743 813 q 726 627 743 665 q 683 565 708 589 l 1000 565 l 1000 775 l 867 775 l 844 944 l 1825 944 l 1849 775 l 1694 775 l 1694 -22 l 1478 0 z "},"ऒ":{"ha":1833,"x_min":82,"x_max":1849,"o":"m 1000 0 l 1000 407 l 704 407 q 747 344 732 383 q 763 264 763 304 q 668 61 763 143 q 396 -21 574 -21 q 229 0 313 -21 q 82 56 146 21 l 121 229 q 250 172 186 190 q 381 153 314 153 q 498 184 449 153 q 547 274 547 215 q 503 374 547 338 q 356 410 460 410 l 215 410 l 193 567 l 361 567 q 486 603 444 567 q 528 693 528 640 q 493 766 528 735 q 394 797 458 797 q 271 778 332 797 q 135 714 210 760 l 100 888 q 249 949 168 926 q 411 971 329 971 q 663 892 581 971 q 744 701 744 814 q 727 628 744 667 q 685 567 710 590 l 1000 567 l 1000 775 l 868 775 l 844 944 l 1488 944 q 1464 1010 1488 986 q 1400 1035 1440 1035 l 1210 1035 q 1015 1090 1089 1035 q 942 1233 942 1146 l 942 1303 l 1131 1276 q 1152 1221 1131 1236 q 1211 1206 1174 1206 l 1415 1206 q 1604 1147 1526 1206 q 1682 1003 1682 1088 l 1682 944 l 1825 944 l 1849 775 l 1694 775 l 1694 -22 l 1479 0 l 1479 775 l 1214 775 l 1214 -22 l 1000 0 z "},"ओ":{"ha":1833,"x_min":82,"x_max":1849,"o":"m 1000 0 l 1000 407 l 704 407 q 747 344 732 383 q 763 264 763 304 q 668 61 763 143 q 396 -21 574 -21 q 229 0 313 -21 q 82 56 146 21 l 121 229 q 250 172 186 190 q 381 153 314 153 q 498 184 449 153 q 547 274 547 215 q 503 374 547 338 q 356 410 460 410 l 215 410 l 193 567 l 361 567 q 486 603 444 567 q 528 693 528 640 q 493 766 528 735 q 394 797 458 797 q 271 778 332 797 q 135 714 210 760 l 100 888 q 249 949 168 926 q 411 971 329 971 q 663 892 581 971 q 744 701 744 814 q 727 628 744 667 q 685 567 710 590 l 1000 567 l 1000 775 l 868 775 l 844 944 l 1411 944 l 1101 1228 l 1261 1340 l 1660 944 l 1825 944 l 1849 775 l 1694 775 l 1694 -22 l 1479 0 l 1479 775 l 1214 775 l 1214 -22 l 1000 0 z "},"औ":{"ha":1833,"x_min":82,"x_max":1849,"o":"m 1000 0 l 1000 407 l 704 407 q 747 344 732 383 q 763 264 763 304 q 668 61 763 143 q 396 -21 574 -21 q 229 0 313 -21 q 82 56 146 21 l 121 229 q 250 172 186 190 q 381 153 314 153 q 498 184 449 153 q 547 274 547 215 q 503 374 547 338 q 356 410 460 410 l 215 410 l 193 567 l 361 567 q 486 603 444 567 q 528 693 528 640 q 493 766 528 735 q 394 797 458 797 q 271 778 332 797 q 135 714 210 760 l 100 888 q 249 949 168 926 q 411 971 329 971 q 663 892 581 971 q 744 701 744 814 q 727 628 744 667 q 685 567 710 590 l 1000 567 l 1000 775 l 868 775 l 844 944 l 1463 944 q 1392 997 1429 978 q 1285 1015 1356 1015 l 1142 1015 l 1101 1197 l 1276 1197 q 1347 1194 1314 1197 q 1413 1178 1381 1192 l 1350 1361 l 1543 1415 l 1651 944 l 1825 944 l 1849 775 l 1694 775 l 1694 -22 l 1479 0 l 1479 775 l 1214 775 l 1214 -22 l 1000 0 z "},"क":{"ha":1272,"x_min":-15,"x_max":1286,"o":"m 54 382 q 144 599 54 511 q 379 686 233 686 q 467 672 418 686 q 533 639 515 657 l 533 775 l 7 775 q -4 860 1 818 q -15 944 -10 901 l 1264 944 l 1286 775 l 747 775 l 747 640 q 811 672 764 656 q 897 688 858 688 q 1135 600 1044 688 q 1225 382 1225 513 q 1121 152 1225 231 q 888 72 1017 74 q 866 162 876 117 q 844 251 856 207 q 967 288 919 251 q 1015 383 1015 324 q 979 476 1015 439 q 888 514 943 514 q 796 489 828 514 q 747 439 764 464 l 747 -22 l 533 0 l 533 125 q 467 92 515 107 q 379 78 418 78 q 144 165 233 78 q 54 382 54 253 m 400 251 q 483 274 450 251 q 533 322 517 297 l 533 440 q 483 489 517 465 q 400 513 450 513 q 303 475 344 513 q 263 381 263 438 q 303 288 263 325 q 400 251 344 251 z "},"ख":{"ha":1390,"x_min":-15,"x_max":1404,"o":"m 672 151 q 746 160 708 151 q 815 185 783 168 q 680 279 732 211 q 628 435 628 347 q 709 634 628 553 q 925 715 790 715 q 986 710 956 715 q 1035 696 1017 704 l 1035 775 l 533 775 q 550 704 544 742 q 556 639 556 667 q 506 464 556 539 q 378 353 457 389 q 478 220 406 289 q 672 151 550 151 m 939 542 q 869 513 897 542 q 840 438 840 485 q 869 363 840 390 q 939 335 899 335 q 1010 367 986 335 q 1035 438 1035 399 q 1010 511 1035 481 q 939 542 985 542 m 1035 0 l 1035 90 q 869 3 964 35 q 668 -28 775 -28 q 329 83 454 -28 q 165 319 204 193 q 76 333 110 319 q 38 385 43 347 q 98 522 38 456 q 225 588 158 588 q 266 565 247 588 q 294 517 285 543 q 337 569 319 532 q 354 642 354 606 q 343 717 354 681 q 310 775 332 753 l 7 775 q -4 860 1 818 q -15 944 -10 901 l 1382 944 l 1404 775 l 1250 775 l 1250 -22 l 1035 0 z "},"ग":{"ha":1014,"x_min":-15,"x_max":1028,"o":"m 874 -22 l 658 0 l 658 775 l 400 775 q 399 532 400 654 q 399 289 399 410 q 375 204 399 235 q 301 174 351 174 q 153 241 222 174 q 83 388 83 308 q 112 449 83 426 q 183 472 140 472 l 183 775 l 7 775 q -4 860 1 818 q -15 944 -10 901 l 1004 944 l 1028 775 l 874 775 l 874 -22 z "},"घ":{"ha":1021,"x_min":-15,"x_max":1035,"o":"m 665 0 l 665 168 q 556 110 625 136 q 417 85 486 85 q 181 156 274 85 q 89 364 89 226 q 113 472 89 419 q 174 553 138 524 q 123 630 142 585 q 104 722 104 675 q 106 746 104 731 q 111 775 108 761 l 7 775 q -4 860 1 818 q -15 944 -10 901 l 1011 944 l 1035 775 l 881 775 l 881 -22 l 665 0 m 419 269 q 581 328 507 269 q 665 496 654 388 l 665 775 l 331 775 q 315 749 321 767 q 310 718 310 732 q 338 656 310 682 q 422 629 367 629 l 496 629 q 512 547 504 589 q 526 464 519 506 l 440 464 q 338 436 372 464 q 304 364 304 408 q 338 294 304 319 q 419 269 371 269 z "},"ङ":{"ha":946,"x_min":-15,"x_max":961,"o":"m 718 492 q 751 572 718 539 q 832 606 785 606 q 913 572 879 606 q 947 492 947 539 q 913 411 947 444 q 832 378 879 378 q 751 411 785 378 q 718 492 718 444 m 378 153 q 469 174 438 153 q 500 225 500 194 q 484 266 500 249 q 433 283 468 283 l 317 283 q 147 342 225 283 q 69 503 69 400 q 140 666 69 611 q 314 721 210 721 l 449 721 l 449 775 l 8 775 l -15 944 l 938 944 l 961 775 l 638 775 l 638 544 l 325 544 q 285 533 300 544 q 271 503 271 521 q 287 472 271 486 q 326 458 303 458 l 422 458 q 634 405 550 458 q 718 226 718 351 q 633 55 718 131 q 389 -21 549 -21 q 222 -2 307 -21 q 74 51 138 17 l 111 225 q 243 169 176 186 q 378 153 310 153 z "},"च":{"ha":1022,"x_min":-15,"x_max":1038,"o":"m 668 0 l 668 114 q 586 93 633 101 q 503 85 539 85 q 263 158 365 85 q 161 371 161 231 q 167 428 161 401 q 185 481 174 456 l 60 481 l 38 649 l 542 649 l 567 481 l 508 481 q 398 451 435 479 q 361 371 361 422 q 403 290 361 319 q 503 260 446 260 q 602 287 550 260 q 668 354 654 314 l 668 775 l 8 775 l -15 944 l 1014 944 l 1038 775 l 882 775 l 882 -22 l 668 0 z "},"छ":{"ha":1156,"x_min":-15,"x_max":1171,"o":"m 121 694 q 124 735 121 714 q 135 775 128 756 l 8 775 l -15 944 l 1147 944 l 1171 775 l 972 775 l 972 696 q 1058 609 1032 667 q 1083 496 1083 551 q 928 150 1083 321 q 501 -21 774 -21 q 210 60 318 -21 q 103 276 103 140 q 141 403 103 344 q 244 483 179 463 q 152 575 183 514 q 121 694 121 636 m 671 529 q 703 636 671 590 q 789 703 736 682 l 789 775 l 390 775 q 353 738 365 761 q 340 693 340 715 q 378 605 340 642 q 500 568 417 568 l 533 568 l 554 408 l 510 408 q 367 376 413 408 q 322 283 322 343 q 377 194 322 228 q 513 161 432 161 q 713 216 626 161 q 839 339 800 271 q 719 398 768 346 q 671 529 671 450 z "},"ज":{"ha":1147,"x_min":-15,"x_max":1164,"o":"m 794 0 l 794 479 l 647 479 q 660 430 654 457 q 665 375 665 403 q 561 138 665 214 q 324 61 457 61 q 158 90 239 61 q 21 156 78 118 l 57 349 q 187 268 121 297 q 315 239 253 239 q 424 275 383 239 q 465 367 465 311 q 437 446 465 413 q 342 479 408 479 l 250 479 l 225 646 l 794 646 l 794 775 l 8 775 l -15 944 l 1140 944 l 1164 775 l 1008 775 l 1008 -22 l 794 0 z "},"झ":{"ha":1251,"x_min":-15,"x_max":1267,"o":"m 896 775 l 646 775 l 646 544 l 328 544 q 289 532 303 544 q 275 503 275 519 q 291 472 275 486 q 331 457 307 457 l 431 457 q 569 438 507 457 q 671 379 632 419 q 783 380 726 379 q 896 381 840 381 l 896 775 m 896 0 l 896 225 l 726 225 q 643 60 713 133 q 419 -19 574 -14 q 422 -24 421 -21 q 425 -29 424 -26 q 476 -95 456 -68 q 511 -140 497 -122 l 371 -240 l 197 -6 q 112 58 154 15 q 69 161 69 100 q 99 231 69 204 q 171 257 128 257 q 265 227 222 257 q 329 156 308 197 q 359 153 343 154 q 392 151 375 151 q 477 174 446 151 q 508 225 508 196 q 493 266 508 249 q 442 283 478 283 l 319 283 q 151 342 228 283 q 74 503 74 400 q 144 665 74 610 q 318 721 214 721 l 446 721 l 446 775 l 7 775 q -4 860 1 818 q -15 944 -10 901 l 1243 944 l 1267 775 l 1111 775 l 1111 -22 l 896 0 z "},"ञ":{"ha":1143,"x_min":-15,"x_max":1158,"o":"m 319 254 q 419 292 379 254 q 458 392 458 329 q 420 488 458 450 q 321 526 382 526 q 253 522 293 526 q 167 503 214 517 l 119 668 q 233 697 182 690 q 326 703 283 703 q 532 644 443 703 q 647 471 621 585 l 788 471 l 788 775 l 7 775 q -4 860 1 818 q -15 944 -10 901 l 1135 944 l 1158 775 l 1001 775 l 1001 -22 l 788 0 l 788 300 l 644 300 q 531 133 619 189 q 326 78 443 78 q 163 106 243 78 q 25 172 83 133 l 64 365 q 187 283 118 313 q 319 254 256 254 z "},"ट":{"ha":925,"x_min":-15,"x_max":939,"o":"m 525 151 q 664 169 592 151 q 807 236 736 186 l 840 53 q 694 -3 782 17 q 518 -24 607 -24 q 212 58 346 -24 q 78 329 78 140 q 215 591 78 503 q 533 679 351 679 l 533 775 l 7 775 q -4 860 1 818 q -15 944 -10 901 l 917 944 l 939 775 l 749 775 l 749 507 q 641 506 694 507 q 533 506 588 506 q 356 457 426 506 q 285 328 285 408 q 361 189 285 226 q 525 151 438 151 z "},"ठ":{"ha":1004,"x_min":-15,"x_max":1019,"o":"m 79 328 q 169 561 79 476 q 399 668 260 646 l 399 775 l 8 775 l -15 944 l 996 944 l 1019 775 l 615 775 l 615 668 q 838 568 744 647 q 932 331 932 489 q 807 65 932 156 q 504 -25 682 -25 q 210 56 340 -25 q 79 328 79 138 m 724 328 q 657 463 724 424 q 504 501 590 501 q 346 453 407 501 q 285 325 285 404 q 352 190 285 229 q 504 150 419 150 q 664 198 604 150 q 724 328 724 246 z "},"ड":{"ha":763,"x_min":-15,"x_max":778,"o":"m 378 153 q 469 174 438 153 q 500 225 500 194 q 484 266 500 249 q 433 283 468 283 l 317 283 q 147 342 225 283 q 69 503 69 400 q 140 666 69 611 q 314 721 210 721 l 449 721 l 449 775 l 8 775 l -15 944 l 754 944 l 778 775 l 638 775 l 638 544 l 325 544 q 285 533 300 544 q 271 503 271 521 q 287 472 271 486 q 326 458 303 458 l 422 458 q 634 405 550 458 q 718 226 718 351 q 633 55 718 131 q 389 -21 549 -21 q 222 -2 307 -21 q 74 51 138 17 l 111 225 q 243 169 176 186 q 378 153 310 153 z "},"ढ":{"ha":911,"x_min":-15,"x_max":928,"o":"m 75 342 q 213 610 75 521 q 532 700 350 700 l 532 775 l 7 775 q -4 860 1 818 q -15 944 -10 901 l 904 944 l 928 775 l 746 775 l 746 692 q 747 608 746 650 q 747 526 747 567 l 529 526 q 350 478 421 526 q 279 338 279 429 q 331 200 279 258 q 481 140 383 142 q 468 176 471 154 q 465 224 465 197 q 515 342 465 288 q 653 396 564 396 q 785 345 731 396 q 839 217 839 294 q 750 42 839 110 q 511 -25 661 -25 q 215 54 354 -25 q 75 342 75 133 z "},"ण":{"ha":1365,"x_min":-15,"x_max":1382,"o":"m 1011 0 l 1011 775 l 779 775 l 779 471 q 679 239 779 318 q 447 160 579 160 q 214 239 314 160 q 114 471 114 318 l 114 775 l 7 775 q -4 860 1 818 q -15 944 -10 901 l 1358 944 l 1382 775 l 1225 775 l 1225 -22 l 1011 0 m 447 338 q 542 385 515 338 q 568 525 568 433 l 568 775 l 325 775 l 325 525 q 351 386 325 435 q 447 338 376 338 z "},"त":{"ha":982,"x_min":-15,"x_max":997,"o":"m 629 0 l 629 475 l 396 475 q 315 454 344 475 q 286 394 286 433 q 338 247 286 339 q 475 22 390 156 l 283 -31 q 146 188 215 68 q 76 407 76 307 q 146 583 76 519 q 336 646 215 646 l 629 646 l 629 775 l 8 775 l -15 944 l 975 944 l 997 775 l 843 775 l 843 -22 l 629 0 z "},"थ":{"ha":1031,"x_min":64,"x_max":1046,"o":"m 676 0 l 676 239 q 599 213 643 222 q 496 203 556 203 q 259 290 365 203 q 153 494 153 378 l 193 544 q 268 583 222 554 q 315 676 314 611 q 284 649 308 661 q 229 638 260 638 q 115 678 165 638 q 64 790 64 719 q 122 920 64 869 q 268 971 179 971 q 440 894 372 971 q 507 706 507 817 q 467 550 507 611 q 371 451 426 489 q 423 404 389 428 q 515 381 457 381 q 621 411 574 381 q 676 492 668 442 l 676 775 l 560 775 l 538 944 l 1022 944 l 1046 775 l 892 775 l 892 -22 l 676 0 z "},"द":{"ha":883,"x_min":-15,"x_max":899,"o":"m 835 -1 q 747 -33 792 -17 q 658 -67 701 -50 l 574 90 q 515 82 543 85 q 468 79 486 79 q 179 162 289 79 q 69 407 69 244 q 187 640 69 563 q 474 717 304 717 l 474 775 l 7 775 q -4 860 1 818 q -15 944 -10 901 l 875 944 l 899 775 l 693 775 l 693 550 l 483 550 q 324 514 388 550 q 261 406 261 478 q 322 294 261 333 q 475 256 383 256 q 488 256 481 256 q 500 257 494 256 q 530 346 506 310 q 611 382 554 382 q 725 346 671 382 q 779 251 779 310 q 768 204 779 229 q 739 157 757 179 l 835 -1 z "},"ध":{"ha":1068,"x_min":72,"x_max":1083,"o":"m 714 0 l 714 172 q 600 106 674 138 q 436 75 526 75 q 167 155 261 75 q 72 364 72 235 q 102 474 72 419 q 174 553 132 529 q 115 628 139 579 q 92 724 92 676 q 162 890 92 818 q 349 963 232 963 q 463 939 417 963 q 538 889 510 915 l 436 751 q 399 770 415 765 q 363 775 382 775 q 317 756 338 775 q 297 714 297 738 q 326 653 297 678 q 410 629 354 629 l 468 629 l 514 464 l 415 464 q 321 437 356 464 q 286 364 286 410 q 326 291 286 319 q 439 263 365 263 q 631 347 549 263 q 714 572 714 431 l 714 775 l 597 775 l 575 944 l 1060 944 l 1083 775 l 928 775 l 928 -22 l 714 0 z "},"न":{"ha":936,"x_min":-15,"x_max":961,"o":"m 590 0 l 590 372 l 335 372 q 317 294 335 333 q 260 256 299 256 q 110 313 186 256 q 35 453 35 371 q 64 517 35 493 q 143 542 93 542 l 590 542 l 590 775 l 8 775 l -15 944 l 938 944 l 961 775 l 806 775 l 806 -22 l 590 0 z "},"ऩ":{"ha":946,"x_min":-15,"x_max":961,"o":"m 590 0 l 590 372 l 335 372 q 319 294 335 333 q 260 256 304 256 q 110 313 186 256 q 35 453 35 371 q 64 517 35 493 q 143 542 93 542 l 590 542 l 590 775 l 8 775 l -15 944 l 938 944 l 961 775 l 806 775 l 806 -22 l 590 0 m 136 0 q 169 81 136 47 q 250 115 203 115 q 331 81 297 115 q 365 0 365 47 q 331 -81 365 -47 q 250 -114 297 -114 q 169 -81 203 -114 q 136 0 136 -47 z "},"प":{"ha":972,"x_min":-15,"x_max":988,"o":"m 618 0 l 618 232 q 542 205 590 217 q 453 193 493 193 q 211 275 315 193 q 107 510 107 357 l 107 775 l 7 775 q -4 860 1 818 q -15 944 -10 901 l 964 944 l 988 775 l 832 775 l 832 -22 l 618 0 m 464 371 q 564 402 522 371 q 618 481 606 433 l 618 775 l 317 775 l 317 522 q 355 410 317 449 q 464 371 393 371 z "},"फ":{"ha":1357,"x_min":-15,"x_max":1372,"o":"m 464 371 q 565 402 522 371 q 618 481 608 433 l 618 775 l 317 775 l 317 522 q 355 410 317 449 q 464 371 393 371 m 618 0 l 618 232 q 542 205 590 217 q 453 193 493 193 q 211 275 315 193 q 107 510 107 357 l 107 775 l 7 775 q -4 860 1 818 q -15 944 -10 901 l 1349 944 l 1372 775 l 832 775 l 832 642 q 900 672 854 658 q 983 685 946 685 q 1221 597 1131 685 q 1311 379 1311 510 q 1206 149 1311 228 q 972 69 1101 71 l 931 249 q 1053 285 1006 249 q 1101 381 1101 322 q 1065 474 1101 436 q 974 511 1029 511 q 882 486 914 511 q 832 436 850 461 l 832 -22 l 618 0 z "},"ब":{"ha":900,"x_min":-15,"x_max":910,"o":"m 540 0 l 540 115 q 469 87 515 99 q 385 75 424 75 q 147 164 239 75 q 54 382 54 253 q 147 601 54 513 q 385 689 239 689 q 469 677 424 689 q 540 650 515 665 l 540 775 l 7 775 q -4 860 1 818 q -15 944 -10 901 l 886 944 l 910 775 l 754 775 l 754 -22 l 540 0 m 532 311 q 536 316 533 313 q 540 324 539 319 l 540 440 q 489 492 522 467 q 399 517 456 517 q 378 515 389 517 q 357 510 367 514 l 532 311 m 461 257 q 374 358 418 307 q 285 457 329 408 q 269 424 275 443 q 263 383 263 404 q 306 283 263 318 q 407 249 350 249 q 437 251 422 249 q 461 257 451 254 z "},"भ":{"ha":1126,"x_min":63,"x_max":1142,"o":"m 771 0 l 771 279 l 481 279 q 461 199 481 232 q 399 167 442 167 q 249 222 315 167 q 182 358 182 278 q 210 424 182 400 q 289 447 239 447 l 289 596 q 273 594 281 594 q 260 594 265 594 q 117 647 172 594 q 63 786 63 700 q 123 919 63 868 q 264 969 183 969 q 432 902 371 969 q 493 718 493 835 l 493 447 l 771 447 l 771 775 l 640 775 q 628 860 635 818 q 617 944 622 901 l 1118 944 l 1142 775 l 988 775 l 988 -22 l 771 0 z "},"म":{"ha":997,"x_min":-15,"x_max":1013,"o":"m 643 0 l 643 279 l 350 279 q 333 201 350 240 q 272 163 315 163 q 122 219 190 163 q 53 358 53 276 q 82 424 53 400 q 160 447 111 447 l 160 775 l 7 775 q -4 860 1 818 q -15 944 -10 901 l 989 944 l 1013 775 l 858 775 l 858 -22 l 643 0 m 643 775 l 364 775 l 364 447 l 643 447 l 643 775 z "},"य":{"ha":944,"x_min":-15,"x_max":960,"o":"m 590 0 l 590 238 q 513 213 557 222 q 408 203 468 203 q 173 290 279 203 q 67 494 67 378 l 107 538 q 158 584 135 547 q 182 672 182 621 q 165 733 182 703 q 122 775 147 764 l 8 775 l -15 944 l 938 944 l 960 775 l 806 775 l 806 -22 l 590 0 m 429 381 q 533 410 486 381 q 590 489 581 440 l 590 775 l 360 775 q 374 722 368 753 q 381 664 381 690 q 357 550 381 601 q 281 460 333 499 q 333 407 299 433 q 429 381 367 381 z "},"र":{"ha":667,"x_min":-15,"x_max":682,"o":"m 682 775 l 539 775 q 556 705 551 742 q 561 639 561 668 q 509 465 561 546 q 365 346 457 385 l 572 15 l 378 -35 l 175 319 q 153 320 172 319 q 132 321 135 321 q 73 338 97 321 q 43 385 49 356 q 101 522 43 456 q 226 588 158 588 q 267 564 249 588 q 294 514 285 540 q 343 572 326 535 q 360 644 360 610 q 349 719 360 683 q 315 775 338 754 l 8 775 l -15 944 l 658 944 l 682 775 z "},"ऱ":{"ha":667,"x_min":-15,"x_max":682,"o":"m 682 775 l 539 775 q 556 705 551 742 q 561 639 561 668 q 509 465 561 546 q 365 346 457 385 l 572 15 l 378 -35 l 175 319 q 153 320 172 319 q 132 321 135 321 q 73 338 97 321 q 43 385 49 356 q 101 522 43 456 q 226 588 158 588 q 267 564 249 588 q 294 514 285 540 q 343 572 326 535 q 360 644 360 610 q 349 719 360 683 q 315 775 338 754 l 8 775 l -15 944 l 658 944 l 682 775 m 6 0 q 39 81 6 47 q 119 115 72 115 q 200 81 167 115 q 233 0 233 47 q 200 -81 233 -47 q 119 -114 167 -114 q 39 -81 72 -114 q 6 0 6 -47 z "},"ल":{"ha":1211,"x_min":-15,"x_max":1226,"o":"m 857 0 l 857 421 q 824 488 849 463 q 765 514 800 514 q 699 475 725 514 q 672 376 672 436 l 672 179 l 483 199 l 483 376 q 459 473 483 436 q 376 510 435 510 q 304 482 332 510 q 276 419 276 454 q 306 278 276 357 q 422 22 335 199 l 240 -35 q 117 226 157 125 q 76 433 76 328 q 163 613 76 538 q 372 689 249 689 q 488 666 435 689 q 575 608 542 643 q 658 667 608 644 q 768 689 707 689 q 814 685 790 689 q 857 671 838 681 l 857 775 l 8 775 l -15 944 l 1203 944 l 1226 775 l 1072 775 l 1072 -22 l 857 0 z "},"ळ":{"ha":1275,"x_min":-15,"x_max":1290,"o":"m 885 517 q 788 463 829 517 q 728 346 746 408 l 719 318 q 791 248 747 275 q 885 221 835 221 q 989 268 949 221 q 1029 379 1029 315 q 989 476 1029 435 q 885 517 949 517 m 400 218 q 506 285 456 218 q 565 417 556 351 q 494 486 539 460 q 400 513 450 513 q 297 465 338 513 q 256 354 256 418 q 297 259 256 300 q 400 218 338 218 m 653 583 q 708 638 675 613 q 781 679 742 664 l 781 775 l 7 775 q -4 860 1 818 q -15 944 -10 901 l 1267 944 l 1290 775 l 990 775 l 990 688 q 1161 578 1097 661 q 1225 376 1225 494 q 1130 134 1225 232 q 890 36 1035 36 q 747 68 813 36 q 633 151 681 100 q 534 69 597 104 q 397 33 471 33 q 156 124 251 33 q 61 358 61 214 q 156 602 61 506 q 394 699 250 699 q 540 667 474 699 q 653 583 606 635 z "},"ऴ":{"ha":1275,"x_min":-15,"x_max":1290,"o":"m 885 517 q 788 463 829 517 q 728 346 746 408 l 719 318 q 791 248 747 275 q 885 221 835 221 q 989 268 949 221 q 1029 379 1029 315 q 989 476 1029 435 q 885 517 949 517 m 400 218 q 506 285 456 218 q 565 417 556 351 q 494 486 539 460 q 400 513 450 513 q 297 465 338 513 q 256 354 256 418 q 297 259 256 300 q 400 218 338 218 m 653 583 q 708 638 675 613 q 781 679 742 664 l 781 775 l 7 775 q -4 860 1 818 q -15 944 -10 901 l 1267 944 l 1290 775 l 990 775 l 990 688 q 1161 578 1097 661 q 1225 376 1225 494 q 1130 134 1225 232 q 890 36 1035 36 q 747 68 813 36 q 633 151 681 100 q 534 69 597 104 q 397 33 471 33 q 156 124 251 33 q 61 358 61 214 q 156 602 61 506 q 394 699 250 699 q 540 667 474 699 q 653 583 606 635 m 522 -122 q 556 -42 522 -75 q 636 -8 589 -8 q 717 -42 683 -8 q 751 -122 751 -75 q 717 -203 751 -169 q 636 -236 683 -236 q 556 -203 589 -236 q 522 -122 522 -169 z "},"व":{"ha":888,"x_min":-15,"x_max":903,"o":"m 54 382 q 144 599 54 511 q 379 688 233 688 q 467 673 418 688 q 533 640 517 658 l 533 775 l 8 775 l -15 944 l 879 944 l 903 775 l 749 775 l 749 -22 l 533 0 l 533 125 q 467 92 517 107 q 379 78 418 78 q 144 165 233 78 q 54 382 54 253 m 401 251 q 484 275 451 251 q 533 324 517 299 l 533 440 q 484 490 517 467 q 401 513 451 513 q 304 476 346 513 q 263 382 263 439 q 304 289 263 326 q 401 251 346 251 z "},"श":{"ha":1156,"x_min":64,"x_max":1171,"o":"m 801 0 l 801 775 l 669 775 l 647 944 l 1147 944 l 1171 775 l 1015 775 l 1015 -22 l 801 0 m 404 617 q 401 655 404 635 q 392 685 397 675 q 331 640 372 654 q 249 625 289 625 q 119 669 174 625 q 64 788 64 713 q 126 920 64 869 q 279 971 188 971 q 519 865 432 971 q 607 626 607 760 q 549 445 607 533 q 394 322 492 357 l 599 15 l 404 -35 l 204 296 q 183 297 203 296 q 163 297 164 297 q 103 314 128 297 q 72 361 78 331 q 130 498 72 432 q 256 564 188 564 q 297 538 278 564 q 326 486 317 511 q 385 544 365 504 q 404 617 404 583 z "},"ष":{"ha":972,"x_min":-15,"x_max":988,"o":"m 618 0 l 618 232 q 542 206 590 217 q 454 194 494 194 q 212 276 317 194 q 107 510 107 357 l 107 775 l 8 775 l -15 944 l 964 944 l 988 775 l 833 775 l 833 -22 l 618 0 m 618 775 l 400 775 l 618 497 l 618 775 m 464 372 q 523 381 494 372 q 569 406 551 389 q 444 571 531 457 q 318 733 358 685 l 318 524 q 356 410 318 449 q 464 372 394 372 z "},"स":{"ha":1160,"x_min":-15,"x_max":1176,"o":"m 806 775 l 539 775 q 555 704 550 742 q 560 639 560 667 q 555 575 560 606 q 536 517 550 544 l 806 517 l 806 775 m 174 319 q 87 331 122 319 q 42 385 51 342 q 100 522 42 456 q 225 588 158 588 q 266 564 247 588 q 294 514 285 540 q 342 572 325 533 q 360 644 360 610 q 348 719 360 683 q 315 775 336 754 l 7 775 q -4 860 1 818 q -15 944 -10 901 l 1153 944 l 1176 775 l 1021 775 l 1021 -22 l 806 0 l 806 360 l 394 360 q 380 353 388 357 q 364 346 372 349 l 571 14 q 474 -9 522 3 q 378 -33 425 -21 l 174 319 z "},"ह":{"ha":783,"x_min":-15,"x_max":799,"o":"m 710 326 q 687 228 710 275 q 618 154 664 182 l 474 249 q 505 277 494 263 q 515 314 515 292 q 486 357 515 336 q 404 378 457 378 q 324 349 356 378 q 293 282 293 321 q 376 182 293 211 q 543 147 458 153 l 500 -24 q 213 60 331 -17 q 94 282 94 136 q 108 365 94 325 q 149 438 122 404 q 115 491 126 460 q 103 561 103 522 q 172 704 103 657 q 332 751 240 751 l 419 751 l 419 775 l 6 775 l -15 944 l 775 944 l 799 775 l 646 775 l 646 593 l 361 593 q 324 585 335 593 q 314 564 314 578 q 317 551 314 557 q 325 542 319 544 q 363 549 343 546 q 406 551 383 551 q 625 485 540 551 q 710 326 710 419 z "},"ॸ":{"ha":922,"x_min":-15,"x_max":938,"o":"m 364 775 l 364 499 l 496 499 q 740 420 638 499 q 842 194 842 342 l 842 -21 q 728 -10 829 -21 q 626 0 626 0 l 626 194 q 592 293 626 257 q 494 329 558 329 l 361 329 q 331 244 356 269 q 271 218 306 218 q 120 272 188 218 q 53 410 53 326 q 82 474 53 450 q 160 497 111 497 l 160 775 l 7 775 q -4 860 1 818 q -15 944 -10 901 l 914 944 l 938 775 l 364 775 z "},"ऺ":{"ha":0,"x_min":-214,"x_max":-4,"o":"m -4 944 l -214 944 l -214 1256 l -4 1233 l -4 944 z "},"ऻ":{"ha":493,"x_min":-15,"x_max":508,"o":"m 138 0 l 138 775 l 7 775 q -4 860 1 818 q -15 944 -10 901 l 140 944 l 140 1256 l 350 1233 l 350 944 l 483 944 l 508 775 l 353 775 l 353 -22 l 138 0 z "},"़":{"ha":0,"x_min":18,"x_max":246,"o":"m 18 -186 q 51 -106 18 -139 q 131 -72 83 -72 q 213 -106 179 -72 q 246 -186 246 -139 q 213 -267 246 -233 q 131 -300 179 -300 q 51 -267 83 -300 q 18 -186 18 -233 z "},"ऽ":{"ha":794,"x_min":51,"x_max":711,"o":"m 385 158 q 474 183 440 158 q 507 250 507 207 q 450 394 507 310 q 314 565 393 478 l 107 800 l 107 944 l 681 944 l 710 775 l 388 775 l 460 685 q 619 475 528 597 q 711 247 711 353 q 628 56 711 136 q 379 -24 546 -24 q 225 1 319 -24 q 51 82 131 26 l 147 254 q 272 184 211 210 q 385 158 332 158 z "},"ा":{"ha":493,"x_min":-15,"x_max":508,"o":"m 139 0 l 139 775 l 8 775 l -15 944 l 485 944 l 508 775 l 354 775 l 354 -22 l 139 0 z "},"ि":{"ha":493,"x_min":-15,"x_max":1110,"o":"m 435 1149 q 328 1115 364 1149 q 292 1044 292 1081 q 303 985 292 1010 q 325 944 314 960 l 485 944 l 508 775 l 354 775 l 354 -22 l 139 0 l 139 775 l 8 775 l -15 944 l 108 944 q 89 993 99 961 q 79 1068 79 1025 q 167 1260 79 1185 q 410 1336 254 1336 q 789 1259 581 1336 q 1110 1113 997 1182 l 1024 968 q 721 1097 885 1044 q 435 1149 557 1149 z "},"ी":{"ha":493,"x_min":-329,"x_max":508,"o":"m 139 0 l 139 775 l 8 775 l -15 944 l 113 944 q 34 1072 89 1004 q -83 1140 -21 1140 q -109 1128 -100 1140 q -118 1104 -118 1115 q -107 1067 -118 1086 q -81 1031 -96 1047 l -287 989 q -318 1045 -307 1013 q -329 1121 -329 1078 q -263 1263 -329 1204 q -94 1322 -197 1322 q 166 1200 53 1322 q 332 944 279 1078 l 485 944 l 508 775 l 354 775 l 354 -22 l 139 0 z "},"ु":{"ha":0,"x_min":-608,"x_max":19,"o":"m -224 -307 q -175 -290 -192 -307 q -158 -250 -158 -274 q -176 -208 -158 -226 q -224 -190 -193 -190 l -326 -190 l -326 -25 l -214 -25 q -51 -85 -122 -25 q 19 -251 19 -144 q -53 -417 19 -356 q -226 -478 -126 -478 q -428 -408 -329 -478 q -608 -208 -528 -337 l -476 -121 q -344 -258 -406 -208 q -224 -307 -283 -307 z "},"ू":{"ha":0,"x_min":-492,"x_max":136,"o":"m -249 -194 q -297 -212 -281 -194 q -312 -253 -312 -229 q -296 -294 -312 -278 q -249 -311 -279 -311 l -146 -311 l -146 -478 l -258 -478 q -421 -417 -350 -478 q -492 -250 -492 -357 q -419 -85 -492 -146 q -246 -25 -346 -25 q -43 -95 -143 -25 q 136 -294 57 -165 l 6 -382 q -127 -244 -65 -294 q -249 -194 -189 -194 z "},"ृ":{"ha":0,"x_min":-486,"x_max":-96,"o":"m -232 -307 q -191 -303 -219 -307 q -132 -290 -162 -300 l -96 -456 q -172 -473 -133 -468 q -247 -478 -211 -478 q -411 -419 -336 -478 q -486 -251 -486 -360 q -413 -85 -486 -144 q -256 -25 -340 -25 l -129 -25 l -129 -196 l -242 -196 q -290 -211 -272 -196 q -308 -250 -308 -226 q -287 -292 -308 -276 q -232 -307 -267 -307 z "},"ॄ":{"ha":0,"x_min":-386,"x_max":-131,"o":"m -386 -172 q -333 -58 -386 -92 q -219 -25 -279 -25 l -131 -25 l -131 -154 l -192 -154 q -217 -159 -206 -154 q -229 -175 -229 -164 q -216 -188 -229 -185 q -192 -192 -203 -192 l -136 -192 l -165 -299 q -216 -303 -197 -299 q -235 -317 -235 -307 q -223 -332 -235 -326 q -192 -337 -211 -337 l -136 -337 l -168 -465 l -219 -465 q -333 -431 -279 -465 q -386 -319 -386 -397 q -378 -280 -386 -300 q -357 -244 -369 -260 q -378 -210 -371 -229 q -386 -172 -386 -192 z "},"ॅ":{"ha":0,"x_min":11,"x_max":706,"o":"m 358 1044 q 163 1090 258 1044 q 11 1247 67 1136 l 160 1339 q 247 1244 190 1276 q 358 1211 303 1211 q 468 1242 414 1211 q 557 1339 522 1274 l 706 1247 q 554 1090 650 1135 q 358 1044 458 1044 z "},"ॆ":{"ha":0,"x_min":-781,"x_max":-131,"o":"m -593 1276 q -571 1221 -593 1236 q -511 1206 -549 1206 l -399 1206 q -209 1147 -287 1206 q -131 1003 -131 1088 l -131 874 l -326 874 l -326 949 q -350 1013 -326 990 q -412 1035 -374 1035 l -514 1035 q -708 1091 -635 1036 q -781 1233 -781 1146 l -781 1303 l -593 1276 z "},"े":{"ha":0,"x_min":-696,"x_max":-60,"o":"m -60 867 l -292 858 l -696 1228 l -535 1340 l -60 867 z "},"ै":{"ha":0,"x_min":-710,"x_max":-157,"o":"m -157 938 l -339 936 q -413 994 -376 972 q -525 1015 -450 1015 l -669 1015 l -710 1197 l -533 1197 q -463 1194 -496 1197 q -400 1178 -431 1192 q -431 1270 -403 1189 q -461 1361 -458 1351 l -268 1415 l -157 938 z "},"ॉ":{"ha":493,"x_min":-100,"x_max":594,"o":"m 247 1044 q 50 1090 146 1044 q -100 1247 -46 1136 l 49 1339 q 135 1244 79 1276 q 247 1211 192 1211 q 357 1242 303 1211 q 447 1339 411 1274 l 594 1247 q 443 1090 539 1135 q 247 1044 347 1044 m 139 0 l 139 775 l 8 775 l -15 944 l 485 944 l 508 775 l 354 775 l 354 -22 l 139 0 z "},"ॊ":{"ha":493,"x_min":-331,"x_max":508,"o":"m -143 1276 q -121 1221 -143 1236 q -61 1206 -99 1206 l 78 1206 q 268 1147 190 1206 q 346 1003 346 1088 l 346 944 l 485 944 l 508 775 l 354 775 l 354 -22 l 139 0 l 139 775 l 8 775 l -15 944 l 151 944 q 128 1010 151 986 q 64 1035 104 1035 l -62 1035 q -257 1091 -183 1036 q -331 1233 -331 1146 l -331 1303 l -143 1276 z "},"ो":{"ha":493,"x_min":-232,"x_max":508,"o":"m 138 0 l 138 775 l 7 775 q -4 860 1 818 q -15 944 -10 901 l 76 944 l -232 1228 l -72 1340 q 124 1142 25 1242 q 324 944 224 1043 l 483 944 l 508 775 l 353 775 l 353 -22 l 138 0 z "},"ौ":{"ha":493,"x_min":-219,"x_max":508,"o":"m 138 0 l 138 775 l 7 775 q -4 860 1 818 q -15 944 -10 901 l 142 944 q 71 996 107 976 q -35 1015 35 1015 l -179 1015 l -219 1196 l -44 1196 q 26 1193 -7 1196 q 90 1176 60 1190 q 60 1269 76 1221 q 29 1360 43 1317 l 221 1414 q 276 1179 249 1297 q 329 944 303 1061 l 483 944 l 508 775 l 353 775 l 353 -22 l 138 0 z "},"ॏ":{"ha":493,"x_min":-287,"x_max":508,"o":"m 338 944 l 483 944 l 508 775 l 353 775 l 353 -22 l 138 0 l 138 775 l 7 775 q -4 860 1 818 q -15 944 -10 901 l 151 944 q 136 969 147 960 q 108 979 125 979 l -29 979 q -217 1039 -146 979 q -287 1196 -287 1099 l -287 1249 l -126 1222 q -103 1150 -126 1175 q -36 1125 -79 1125 l 83 1125 q -14 1196 24 1147 q -51 1315 -51 1244 l -51 1371 q 28 1356 -12 1364 q 108 1343 69 1349 q 131 1262 108 1296 q 189 1214 154 1228 q 299 1133 260 1188 q 338 999 338 1078 l 338 944 z "},"्":{"ha":0,"x_min":-458,"x_max":-6,"o":"m -131 -515 l -458 -226 l -314 -94 l -6 -403 l -131 -515 z "},"ॖ":{"ha":0,"x_min":8,"x_max":700,"o":"m 547 -74 l 700 -167 q 549 -318 643 -276 q 354 -360 454 -360 q 160 -318 254 -360 q 8 -167 65 -276 l 161 -74 q 252 -166 193 -139 q 354 -193 311 -193 q 455 -167 399 -193 q 547 -74 511 -142 z "},"ॗ":{"ha":0,"x_min":19,"x_max":894,"o":"m 638 -72 l 781 -153 q 618 -301 713 -268 q 460 -335 524 -335 q 301 -300 394 -335 q 143 -153 208 -265 l 286 -71 q 359 -161 310 -135 q 460 -187 408 -187 q 555 -166 504 -187 q 638 -72 606 -144 m 756 -242 l 894 -326 q 699 -482 821 -439 q 460 -525 578 -525 q 219 -482 347 -525 q 19 -331 92 -439 l 158 -243 q 287 -335 206 -300 q 460 -369 368 -369 q 627 -338 551 -369 q 756 -242 703 -307 z "},"ॎ":{"ha":492,"x_min":139,"x_max":508,"o":"m 139 0 l 139 944 l 485 944 l 508 775 l 353 775 l 353 -22 l 139 0 z "},"ॵ":{"ha":1833,"x_min":82,"x_max":1849,"o":"m 1000 0 l 1000 407 l 704 407 q 747 344 732 383 q 763 264 763 304 q 668 61 763 143 q 396 -21 574 -21 q 229 0 313 -21 q 82 56 146 21 l 121 229 q 250 172 186 190 q 381 153 314 153 q 498 184 449 153 q 547 274 547 215 q 503 374 547 338 q 356 410 460 410 l 215 410 l 193 567 l 361 567 q 486 603 444 567 q 528 693 528 640 q 493 766 528 735 q 394 797 458 797 q 271 778 332 797 q 135 714 210 760 l 100 888 q 249 949 168 926 q 411 971 329 971 q 663 892 581 971 q 744 701 744 814 q 727 628 744 667 q 685 567 710 590 l 1000 567 l 1000 775 l 868 775 l 844 944 l 1489 944 q 1474 971 1485 961 q 1446 981 1463 981 l 1307 981 q 1119 1040 1190 981 q 1049 1196 1049 1099 l 1049 1250 l 1210 1222 q 1233 1151 1210 1176 q 1300 1126 1256 1126 l 1419 1126 q 1322 1197 1360 1149 q 1285 1317 1285 1246 l 1285 1371 l 1446 1343 q 1469 1262 1446 1296 q 1526 1214 1492 1228 q 1636 1133 1597 1188 q 1675 1000 1675 1079 l 1675 944 l 1825 944 l 1849 775 l 1694 775 l 1694 -22 l 1479 0 l 1479 775 l 1214 775 l 1214 -22 l 1000 0 z "},"ॐ":{"ha":1253,"x_min":82,"x_max":1254,"o":"m 794 1217 q 826 1297 794 1264 q 906 1329 858 1329 q 984 1297 951 1329 q 1017 1217 1017 1264 q 984 1139 1017 1171 q 906 1107 951 1107 q 826 1139 858 1107 q 794 1217 794 1171 m 1107 1179 l 1254 1088 q 1102 928 1199 976 q 906 879 1006 879 q 709 928 806 879 q 558 1088 613 976 l 706 1179 q 794 1081 736 1117 q 906 1046 851 1046 q 1016 1079 961 1046 q 1107 1179 1071 1113 m 743 700 q 711 573 743 638 q 614 479 679 508 q 641 469 628 476 q 665 456 654 463 q 761 521 701 490 q 896 551 821 551 q 1125 474 1043 551 q 1207 268 1207 397 q 1111 47 1207 117 q 886 -25 1015 -24 q 868 60 876 17 q 850 146 860 103 q 968 178 928 146 q 1008 263 1008 210 q 976 346 1008 314 q 888 378 943 378 q 808 359 839 378 q 757 317 778 340 q 760 293 758 306 q 761 267 761 281 q 667 63 761 146 q 396 -21 574 -21 q 229 0 313 -21 q 82 56 146 21 l 119 228 q 249 170 185 189 q 381 151 314 151 q 497 183 449 151 q 546 272 546 214 q 502 374 546 338 q 354 410 458 410 l 215 410 l 192 565 l 360 565 q 485 603 444 565 q 526 692 526 640 q 492 765 526 735 q 393 796 457 796 q 270 777 331 796 q 133 713 210 758 l 100 888 q 248 949 168 926 q 411 971 328 971 q 661 892 579 971 q 743 700 743 813 z "},"॑":{"ha":0,"x_min":25,"x_max":221,"o":"m 200 1033 l 44 1033 l 25 1335 l 221 1335 l 200 1033 z "},"॒":{"ha":0,"x_min":25,"x_max":789,"o":"m 789 -267 l 47 -267 l 25 -99 l 767 -99 l 789 -267 z "},"॓":{"ha":0,"x_min":7,"x_max":340,"o":"m 340 1033 l 203 1033 l 7 1336 l 206 1336 l 340 1033 z "},"॔":{"ha":0,"x_min":18,"x_max":353,"o":"m 157 1033 l 18 1033 l 154 1336 l 353 1336 l 157 1033 z "},"ॕ":{"ha":0,"x_min":11,"x_max":711,"o":"m 550 1506 l 697 1424 q 544 1265 636 1303 q 354 1226 451 1226 q 163 1265 256 1226 q 11 1424 71 1304 q 85 1465 49 1444 q 160 1506 122 1486 q 251 1410 192 1438 q 354 1383 310 1383 q 454 1407 400 1383 q 550 1506 508 1431 m 711 1038 l 51 1038 q 40 1113 46 1076 q 29 1189 35 1150 l 689 1189 q 700 1113 694 1150 q 711 1038 706 1076 z "},"ॶ":{"ha":1354,"x_min":82,"x_max":1368,"o":"m 1000 0 l 1000 407 l 703 407 q 747 342 732 382 q 761 263 761 303 q 667 60 761 142 q 396 -21 574 -21 q 229 0 313 -21 q 82 56 146 21 l 119 228 q 249 170 185 189 q 381 151 314 151 q 497 183 449 151 q 546 272 546 214 q 502 374 546 338 q 354 410 458 410 l 215 410 l 192 565 l 360 565 q 485 603 444 565 q 526 692 526 640 q 492 765 526 735 q 393 796 457 796 q 270 777 331 796 q 133 713 210 758 l 100 888 q 248 949 168 926 q 411 971 328 971 q 661 892 579 971 q 743 700 743 813 q 726 627 743 665 q 683 565 708 589 l 1000 565 l 1000 775 l 867 775 l 844 944 l 1346 944 l 1368 775 l 1213 775 l 1213 -22 l 1000 0 m 956 -74 q 1031 -121 993 -97 q 1107 -167 1069 -144 q 956 -318 1051 -276 q 761 -360 861 -360 q 567 -318 661 -360 q 417 -167 472 -276 l 569 -74 q 660 -166 601 -139 q 761 -193 718 -193 q 863 -167 806 -193 q 956 -74 919 -142 z "},"ॷ":{"ha":1354,"x_min":82,"x_max":1369,"o":"m 1000 0 l 1000 407 l 704 407 q 747 344 732 383 q 763 264 763 304 q 668 61 763 143 q 396 -21 574 -21 q 229 0 313 -21 q 82 56 146 21 l 121 229 q 250 172 186 190 q 381 153 314 153 q 498 184 449 153 q 547 274 547 215 q 503 374 547 338 q 356 410 460 410 l 215 410 l 193 567 l 361 567 q 486 603 444 567 q 528 693 528 640 q 493 766 528 735 q 394 797 458 797 q 271 778 332 797 q 135 714 210 760 l 100 888 q 249 949 168 926 q 411 971 329 971 q 663 892 581 971 q 744 701 744 814 q 727 628 744 667 q 685 567 710 590 l 1000 567 l 1000 775 l 868 775 l 844 944 l 1346 944 l 1369 775 l 1214 775 l 1214 -22 l 1000 0 m 928 -72 l 1071 -153 q 908 -301 1003 -268 q 750 -335 814 -335 q 592 -300 685 -335 q 433 -153 499 -265 l 576 -71 q 649 -161 600 -135 q 750 -187 699 -187 q 845 -166 794 -187 q 928 -72 896 -144 m 1046 -242 l 1185 -326 q 990 -482 1111 -439 q 750 -525 868 -525 q 510 -482 638 -525 q 310 -331 382 -439 l 449 -243 q 577 -335 496 -300 q 750 -369 658 -369 q 917 -338 842 -369 q 1046 -242 993 -307 z "},"क़":{"ha":1272,"x_min":-15,"x_max":1286,"o":"m 394 251 q 487 277 458 251 q 533 329 515 303 l 533 436 q 488 488 517 461 q 394 514 458 514 q 301 476 339 514 q 263 383 263 439 q 301 288 263 325 q 394 251 339 251 m 533 0 l 533 119 q 465 90 511 103 q 379 78 418 78 q 144 165 233 78 q 54 382 54 253 q 144 600 54 513 q 379 688 233 688 q 465 675 418 688 q 533 644 511 663 l 533 775 l 7 775 q -4 860 1 818 q -15 944 -10 901 l 1264 944 l 1286 775 l 747 775 l 747 644 q 815 674 769 661 q 897 688 860 688 q 1135 600 1044 688 q 1225 382 1225 513 q 1121 152 1225 231 q 888 72 1017 74 q 866 162 876 117 q 844 251 856 207 q 967 288 919 251 q 1015 383 1015 324 q 979 476 1015 439 q 888 514 943 514 q 796 489 828 514 q 747 439 764 464 l 747 -22 l 533 0 m 124 -114 q 157 -33 124 -67 q 238 0 190 0 q 318 -33 285 0 q 351 -114 351 -67 q 318 -194 351 -161 q 238 -228 285 -228 q 157 -194 190 -228 q 124 -114 124 -161 z "},"ख़":{"ha":1390,"x_min":-15,"x_max":1404,"o":"m 672 151 q 746 160 708 151 q 815 185 783 168 q 680 279 732 211 q 628 435 628 347 q 709 634 628 553 q 925 715 790 715 q 986 710 956 715 q 1035 696 1017 704 l 1035 775 l 533 775 q 550 704 544 742 q 556 639 556 667 q 506 464 556 539 q 378 353 457 389 q 478 220 406 289 q 672 151 550 151 m 939 542 q 869 513 897 542 q 840 438 840 485 q 869 363 840 390 q 939 335 899 335 q 1010 367 986 335 q 1035 438 1035 399 q 1010 511 1035 481 q 939 542 985 542 m 42 -7 q 75 74 42 40 q 156 107 108 107 q 236 74 203 107 q 269 -7 269 40 q 236 -87 269 -54 q 156 -121 203 -121 q 75 -87 108 -121 q 42 -7 42 -54 m 1035 0 l 1035 90 q 869 3 964 35 q 668 -28 775 -28 q 329 83 454 -28 q 165 319 204 193 q 76 333 110 319 q 38 385 43 347 q 98 522 38 456 q 225 588 158 588 q 266 565 247 588 q 294 517 285 543 q 337 569 319 532 q 354 642 354 606 q 343 717 354 681 q 310 775 332 753 l 7 775 q -4 860 1 818 q -15 944 -10 901 l 1382 944 l 1404 775 l 1250 775 l 1250 -22 l 1035 0 z "},"ग़":{"ha":1014,"x_min":-15,"x_max":1028,"o":"m 874 -22 l 658 0 l 658 775 l 400 775 q 399 532 400 654 q 399 289 399 410 q 375 204 399 235 q 301 174 351 174 q 153 241 222 174 q 83 388 83 308 q 112 449 83 426 q 183 472 140 472 l 183 775 l 7 775 q -4 860 1 818 q -15 944 -10 901 l 1004 944 l 1028 775 l 874 775 l 874 -22 m 165 -17 q 199 63 165 29 q 279 96 232 96 q 360 63 326 96 q 393 -17 393 29 q 360 -97 393 -64 q 279 -131 326 -131 q 199 -97 232 -131 q 165 -17 165 -64 z "},"ज़":{"ha":1147,"x_min":-15,"x_max":1164,"o":"m 794 0 l 794 479 l 647 479 q 660 430 654 457 q 665 375 665 403 q 561 138 665 214 q 324 61 457 61 q 158 90 239 61 q 21 156 78 118 l 57 349 q 187 268 121 297 q 315 239 253 239 q 424 275 383 239 q 465 367 465 311 q 437 446 465 413 q 342 479 408 479 l 250 479 l 225 646 l 794 646 l 794 775 l 8 775 l -15 944 l 1140 944 l 1164 775 l 1008 775 l 1008 -22 l 794 0 m 213 -124 q 246 -42 213 -76 q 326 -8 279 -8 q 408 -42 374 -8 q 442 -124 442 -76 q 408 -204 442 -171 q 326 -237 374 -237 q 246 -204 279 -237 q 213 -124 213 -171 z "},"ड़":{"ha":763,"x_min":-15,"x_max":778,"o":"m 378 153 q 469 174 438 153 q 500 225 500 194 q 484 266 500 249 q 433 283 468 283 l 317 283 q 147 342 225 283 q 69 503 69 400 q 140 666 69 611 q 314 721 210 721 l 449 721 l 449 775 l 8 775 l -15 944 l 754 944 l 778 775 l 638 775 l 638 544 l 325 544 q 285 533 300 544 q 271 503 271 521 q 287 472 271 486 q 326 458 303 458 l 422 458 q 634 405 550 458 q 718 226 718 351 q 633 55 718 131 q 389 -21 549 -21 q 222 -2 307 -21 q 74 51 138 17 l 111 225 q 243 169 176 186 q 378 153 310 153 m 278 -182 q 311 -101 278 -135 q 392 -68 344 -68 q 473 -101 439 -68 q 507 -182 507 -135 q 473 -262 507 -229 q 392 -296 439 -296 q 311 -262 344 -296 q 278 -182 278 -229 z "},"ढ़":{"ha":899,"x_min":-15,"x_max":928,"o":"m 75 342 q 213 610 75 521 q 532 700 350 700 l 532 775 l 7 775 q -4 860 1 818 q -15 944 -10 901 l 904 944 l 928 775 l 746 775 l 746 692 q 747 608 746 650 q 747 526 747 567 l 529 526 q 350 478 421 526 q 279 338 279 429 q 331 200 279 258 q 481 140 383 142 q 468 176 471 154 q 465 224 465 197 q 515 342 465 288 q 653 396 564 396 q 785 345 731 396 q 839 217 839 294 q 750 42 839 110 q 511 -25 661 -25 q 215 54 354 -25 q 75 342 75 133 m 400 -176 q 433 -97 400 -131 q 513 -62 465 -62 q 594 -97 560 -62 q 628 -176 628 -131 q 594 -258 628 -224 q 513 -292 560 -292 q 433 -258 465 -292 q 400 -176 400 -224 z "},"फ़":{"ha":1357,"x_min":-15,"x_max":1372,"o":"m 464 371 q 565 402 522 371 q 618 481 608 433 l 618 775 l 317 775 l 317 522 q 355 410 317 449 q 464 371 393 371 m 618 0 l 618 232 q 542 205 590 217 q 453 193 493 193 q 211 275 315 193 q 107 510 107 357 l 107 775 l 7 775 q -4 860 1 818 q -15 944 -10 901 l 1349 944 l 1372 775 l 832 775 l 832 642 q 900 672 854 658 q 983 685 946 685 q 1221 597 1131 685 q 1311 379 1311 510 q 1206 149 1311 228 q 972 69 1101 71 l 931 249 q 1053 285 1006 249 q 1101 381 1101 322 q 1065 474 1101 436 q 974 511 1029 511 q 882 486 914 511 q 832 436 850 461 l 832 -22 l 618 0 m 172 0 q 205 81 172 47 q 285 114 238 114 q 367 81 332 114 q 401 0 401 47 q 367 -79 401 -46 q 285 -112 332 -112 q 205 -79 238 -112 q 172 0 172 -46 z "},"य़":{"ha":944,"x_min":-15,"x_max":960,"o":"m 590 0 l 590 238 q 513 213 557 222 q 408 203 468 203 q 173 290 279 203 q 67 494 67 378 l 107 538 q 158 584 135 547 q 182 672 182 621 q 165 733 182 703 q 122 775 147 764 l 8 775 l -15 944 l 938 944 l 960 775 l 806 775 l 806 -22 l 590 0 m 429 381 q 533 410 486 381 q 590 489 581 440 l 590 775 l 360 775 q 374 722 368 753 q 381 664 381 690 q 357 550 381 601 q 281 460 333 499 q 333 407 299 433 q 429 381 367 381 m 146 0 q 178 81 146 47 q 258 114 211 114 q 340 81 306 114 q 374 0 374 47 q 340 -81 374 -47 q 258 -114 306 -114 q 178 -81 211 -114 q 146 0 146 -47 z "},"ॠ":{"ha":1274,"x_min":-15,"x_max":1288,"o":"m 1218 290 q 1161 168 1218 214 q 1101 88 1104 122 q 1111 65 1101 71 q 1135 60 1121 60 l 1185 60 l 1156 -85 l 1129 -85 q 1087 -92 1104 -85 q 1069 -114 1069 -100 q 1083 -137 1069 -129 q 1110 -144 1096 -144 l 1168 -144 l 1136 -294 l 1078 -294 q 956 -248 1017 -294 q 896 -118 896 -201 q 905 -63 896 -92 q 928 -15 914 -35 q 911 19 918 0 q 904 65 904 39 q 964 183 904 129 q 1024 286 1024 238 q 1009 347 1024 317 q 967 410 994 378 q 851 360 929 381 q 714 335 772 340 l 714 -22 l 499 0 l 499 229 l 225 58 l 110 217 q 274 317 192 267 q 438 417 356 368 q 352 472 390 457 q 281 486 314 486 q 220 472 267 486 q 122 433 174 457 l 42 611 q 166 654 90 635 q 268 674 242 674 q 382 663 329 674 q 499 613 435 651 l 499 775 l 7 775 q -4 860 1 818 q -15 944 -10 901 l 1264 944 l 1288 775 l 714 775 l 714 507 q 801 524 754 513 q 865 550 849 536 q 850 586 856 567 q 844 629 844 606 q 876 705 844 681 q 949 729 907 729 q 1066 692 1014 729 q 1118 594 1118 656 q 1113 558 1118 578 q 1097 526 1107 539 q 1185 410 1151 469 q 1218 290 1218 350 z "},"ॡ":{"ha":1211,"x_min":-15,"x_max":1226,"o":"m 810 56 q 823 119 810 92 q 857 164 836 146 l 857 421 q 824 488 849 463 q 765 514 800 514 q 699 475 725 514 q 672 376 672 436 l 672 179 l 483 199 l 483 376 q 459 473 483 436 q 376 510 435 510 q 304 482 332 510 q 276 419 276 454 q 306 278 276 357 q 422 22 335 199 l 240 -35 q 117 226 157 125 q 76 433 76 328 q 163 613 76 538 q 372 689 249 689 q 488 666 435 689 q 575 608 542 643 q 658 667 608 644 q 768 689 707 689 q 814 685 790 689 q 857 671 838 681 l 857 775 l 8 775 l -15 944 l 1203 944 l 1226 775 l 1072 775 l 1072 79 l 1011 79 q 986 74 999 79 q 974 54 974 68 q 987 35 974 40 q 1011 29 1000 29 l 1067 29 l 1036 -76 q 983 -82 1000 -76 q 967 -100 967 -87 q 978 -120 967 -114 q 1011 -126 989 -126 l 1065 -126 l 1035 -254 l 978 -254 q 864 -218 918 -254 q 810 -103 810 -182 q 822 -58 810 -83 q 847 -24 833 -33 q 819 13 829 -10 q 810 56 810 36 z "},"ॢ":{"ha":0,"x_min":22,"x_max":653,"o":"m 406 -222 l 406 -362 l 269 -328 l 269 -222 q 253 -185 269 -197 q 218 -174 238 -174 q 188 -185 200 -174 q 176 -208 176 -196 q 194 -283 176 -243 q 253 -399 213 -324 l 281 -453 l 129 -487 q 49 -322 76 -386 q 22 -193 22 -257 q 75 -76 22 -125 q 211 -26 128 -26 q 285 -44 251 -26 q 338 -90 319 -62 q 392 -45 356 -64 q 468 -26 429 -26 q 601 -76 550 -26 q 653 -193 653 -126 q 636 -265 653 -232 q 610 -318 619 -297 q 608 -323 608 -319 q 608 -329 608 -326 q 612 -342 608 -336 q 625 -347 615 -347 l 653 -347 l 617 -482 l 568 -482 q 488 -460 532 -482 q 443 -381 443 -437 q 470 -286 443 -325 q 497 -208 497 -247 q 484 -183 497 -193 q 456 -174 471 -174 q 422 -187 438 -174 q 406 -222 406 -200 z "},"ॣ":{"ha":0,"x_min":18,"x_max":653,"o":"m 401 -222 l 401 -362 l 264 -328 l 264 -222 q 249 -185 264 -197 q 214 -174 233 -174 q 183 -185 196 -174 q 171 -208 171 -196 q 196 -299 171 -250 q 276 -453 221 -349 l 125 -487 q 45 -322 72 -386 q 18 -193 18 -257 q 71 -76 18 -125 q 207 -26 124 -26 q 281 -44 247 -26 q 332 -90 314 -62 q 388 -45 350 -64 q 464 -26 425 -26 q 597 -76 546 -26 q 647 -193 647 -126 q 628 -269 647 -236 q 608 -324 608 -301 q 613 -337 608 -332 q 632 -342 618 -342 l 653 -342 l 621 -457 l 576 -457 q 555 -462 564 -457 q 546 -476 546 -467 q 556 -492 546 -487 q 578 -497 567 -497 l 632 -497 l 599 -603 l 567 -603 q 474 -574 511 -603 q 436 -481 436 -544 q 445 -444 436 -462 q 468 -417 454 -426 q 458 -394 461 -408 q 454 -369 454 -381 q 475 -282 454 -314 q 497 -214 496 -250 q 485 -186 497 -199 q 450 -174 474 -174 q 417 -187 432 -174 q 401 -222 401 -200 z "},"।":{"ha":622,"x_min":203,"x_max":418,"o":"m 418 1049 l 418 -22 l 203 0 l 203 1071 l 418 1049 z "},"॥":{"ha":1154,"x_min":203,"x_max":950,"o":"m 950 1049 l 950 -22 l 739 0 l 739 1071 l 950 1049 m 413 1049 l 413 -22 l 203 0 l 203 1071 l 413 1049 z "},"०":{"ha":939,"x_min":72,"x_max":868,"o":"m 72 471 q 184 749 72 633 q 469 865 296 865 q 756 750 643 865 q 868 471 868 635 q 756 193 868 308 q 471 78 644 78 q 185 193 297 78 q 72 471 72 308 m 472 250 q 615 314 560 250 q 671 471 671 378 q 614 629 671 565 q 469 693 557 693 q 326 629 382 693 q 269 471 269 565 q 327 314 269 378 q 472 250 385 250 z "},"१":{"ha":578,"x_min":64,"x_max":533,"o":"m 68 468 l 214 583 q 128 649 174 597 q 83 760 83 700 q 148 913 83 856 q 297 971 213 971 q 458 908 399 971 q 518 750 518 844 q 480 610 518 683 q 356 471 442 538 l 267 403 l 533 22 l 335 -26 l 64 396 l 68 468 z "},"२":{"ha":742,"x_min":64,"x_max":667,"o":"m 464 650 q 424 747 464 704 q 324 790 385 790 q 222 768 272 790 q 139 724 171 746 l 64 882 q 181 942 106 914 q 326 971 256 971 q 583 863 500 971 q 667 647 667 756 q 611 473 667 560 q 446 343 556 386 l 649 15 l 454 -35 l 253 319 q 231 320 250 319 q 210 321 213 321 q 150 338 175 321 q 119 385 125 356 q 178 522 119 456 q 304 588 236 588 q 347 563 326 588 q 376 513 367 539 q 444 573 424 529 q 464 650 464 617 z "},"३":{"ha":774,"x_min":65,"x_max":699,"o":"m 682 724 q 654 615 682 671 q 571 535 626 560 q 663 461 628 514 q 699 349 699 408 q 624 172 699 247 q 421 86 549 97 q 465 31 443 58 q 507 -22 486 4 q 437 -72 472 -47 q 367 -121 401 -97 q 279 -5 324 -62 q 192 113 235 53 q 107 174 149 132 q 65 276 65 217 q 95 348 65 322 q 167 374 125 374 q 265 340 217 374 q 332 258 314 306 q 433 282 386 258 q 481 349 481 306 q 444 425 481 392 q 331 458 407 458 l 211 458 q 200 538 206 497 q 189 617 194 578 l 339 617 q 429 644 396 617 q 463 715 463 672 q 436 768 463 744 q 358 792 410 792 q 239 767 301 792 q 132 713 176 743 l 103 892 q 240 951 167 931 q 393 971 314 971 q 610 895 538 971 q 682 724 682 819 z "},"४":{"ha":988,"x_min":46,"x_max":943,"o":"m 218 226 q 261 374 218 297 q 369 528 304 451 q 215 682 301 601 q 57 826 128 763 l 46 836 l 169 993 q 372 804 303 871 q 494 681 442 738 q 615 804 546 738 q 818 993 683 871 l 943 836 q 778 688 869 771 q 618 528 688 604 q 726 374 683 450 q 768 226 768 297 q 692 44 768 114 q 494 -25 615 -25 q 296 44 374 -25 q 218 226 218 114 m 494 160 q 545 179 525 160 q 565 229 565 199 q 544 295 565 260 q 494 369 524 331 q 443 295 464 331 q 422 229 422 260 q 443 179 422 199 q 494 160 464 160 z "},"५":{"ha":815,"x_min":100,"x_max":789,"o":"m 538 153 q 585 169 571 153 q 600 206 600 186 q 592 266 600 235 q 569 322 583 297 q 524 315 546 317 q 483 313 501 313 q 218 390 336 313 q 100 638 100 468 l 100 944 l 315 944 l 315 638 q 359 524 315 558 q 474 489 403 490 q 469 509 471 499 q 467 531 467 519 q 499 608 468 569 q 581 646 529 646 q 692 604 644 646 q 740 501 740 563 q 733 456 740 479 q 714 418 726 432 q 767 308 744 374 q 789 200 789 243 q 741 42 789 108 q 557 -24 693 -24 q 484 -19 535 -24 q 379 8 433 -14 l 426 175 q 498 156 478 158 q 538 153 518 153 z "},"६":{"ha":824,"x_min":75,"x_max":792,"o":"m 90 724 q 163 895 90 819 q 381 971 236 971 q 533 951 460 971 q 669 892 607 931 l 642 713 q 535 767 597 743 q 418 792 474 792 q 337 769 363 792 q 311 714 311 746 q 343 644 311 671 q 435 617 375 617 l 574 617 q 573 590 574 603 q 572 564 572 578 q 573 511 572 538 q 574 458 574 485 l 443 458 q 329 425 367 458 q 292 346 292 392 q 334 277 292 301 q 428 253 376 253 l 443 253 q 451 253 447 253 q 460 256 456 254 q 488 348 460 311 q 572 385 515 385 q 681 348 626 385 q 735 253 735 311 q 724 203 735 229 q 696 154 714 176 q 738 84 714 121 q 792 -4 761 47 l 618 -71 l 531 86 q 467 76 501 78 q 403 74 433 74 q 165 151 256 74 q 75 346 75 228 q 109 460 75 406 q 201 535 143 514 q 118 615 146 560 q 90 724 90 671 z "},"७":{"ha":1044,"x_min":40,"x_max":985,"o":"m 643 690 q 592 669 617 690 q 568 613 568 647 q 592 555 568 575 q 651 535 615 535 q 704 544 678 535 q 751 575 731 554 q 713 658 740 625 q 643 690 686 690 m 640 353 q 444 423 524 353 q 364 601 364 493 q 440 797 364 718 q 635 875 517 875 q 896 749 807 875 q 985 419 985 624 q 863 106 985 238 q 518 -25 740 -25 q 162 115 283 -25 q 40 507 40 256 l 257 507 q 327 258 257 346 q 518 169 397 169 q 683 229 621 169 q 757 383 746 289 q 697 361 729 369 q 640 353 665 353 z "},"८":{"ha":815,"x_min":65,"x_max":753,"o":"m 415 171 q 521 215 472 171 q 569 388 569 258 l 753 335 l 753 317 q 679 92 753 210 q 408 -25 606 -25 q 156 70 247 -25 q 65 308 65 165 q 211 694 65 499 q 482 993 357 889 l 606 842 q 365 571 453 699 q 278 313 278 443 q 313 212 278 253 q 415 171 349 171 z "},"९":{"ha":682,"x_min":60,"x_max":607,"o":"m 607 713 q 533 555 607 613 q 361 488 460 497 l 392 450 q 505 268 479 319 q 531 157 531 217 q 467 33 531 82 q 297 -37 403 -17 l 264 122 q 315 141 297 132 q 332 176 332 150 q 292 250 332 193 q 193 394 253 307 q 101 542 142 469 q 60 692 60 615 q 131 879 60 794 q 339 964 203 964 q 538 888 468 964 q 607 713 607 813 z "},"॰":{"ha":807,"x_min":56,"x_max":751,"o":"m 751 396 q 653 156 751 256 q 406 56 554 56 q 154 156 253 56 q 56 401 56 257 q 155 641 56 542 q 407 740 254 740 q 652 640 553 740 q 751 396 751 539 m 556 399 q 511 517 556 474 q 406 561 467 561 q 298 515 343 561 q 253 399 253 469 q 297 276 253 321 q 406 231 342 231 q 510 276 465 231 q 556 399 556 322 z "},"ॱ":{"ha":339,"x_min":56,"x_max":283,"o":"m 56 410 q 88 490 56 457 q 168 524 121 524 q 250 490 217 524 q 283 410 283 457 q 250 329 283 363 q 168 296 217 296 q 88 329 121 296 q 56 410 56 363 z "},"ॲ":{"ha":1381,"x_min":82,"x_max":1457,"o":"m 1110 1044 q 914 1090 1008 1044 q 764 1247 819 1136 l 911 1339 q 998 1244 942 1276 q 1110 1211 1054 1211 q 1219 1242 1165 1211 q 1308 1339 1274 1274 l 1457 1247 q 1306 1090 1401 1135 q 1110 1044 1211 1044 m 1000 0 l 1000 407 l 704 407 q 747 344 732 383 q 763 264 763 304 q 668 61 763 143 q 396 -21 574 -21 q 229 0 313 -21 q 82 56 146 21 l 121 229 q 250 172 186 190 q 381 153 314 153 q 498 184 449 153 q 547 274 547 215 q 503 374 547 338 q 356 410 460 410 l 215 410 l 193 567 l 361 567 q 486 603 444 567 q 528 693 528 640 q 493 766 528 735 q 394 797 458 797 q 271 778 332 797 q 135 714 210 760 l 100 888 q 249 949 168 926 q 411 971 329 971 q 663 892 581 971 q 744 701 744 814 q 727 628 744 667 q 685 567 710 590 l 1000 567 l 1000 775 l 868 775 l 844 944 l 1346 944 l 1369 775 l 1214 775 l 1214 -22 l 1000 0 z "},"ॳ":{"ha":1354,"x_min":82,"x_max":1368,"o":"m 1000 0 l 1000 407 l 703 407 q 747 342 732 382 q 761 263 761 303 q 667 60 761 142 q 396 -21 574 -21 q 229 0 313 -21 q 82 56 146 21 l 119 228 q 249 170 185 189 q 381 151 314 151 q 497 183 449 151 q 546 272 546 214 q 502 374 546 338 q 354 410 458 410 l 215 410 l 192 565 l 360 565 q 485 603 444 565 q 526 692 526 640 q 492 765 526 735 q 393 796 457 796 q 270 777 331 796 q 133 713 210 758 l 100 888 q 248 949 168 926 q 411 971 328 971 q 661 892 579 971 q 743 700 743 813 q 726 627 743 665 q 683 565 708 589 l 1000 565 l 1000 775 l 867 775 l 844 944 l 1001 944 l 1001 1256 l 1211 1233 l 1211 944 l 1346 944 l 1368 775 l 1213 775 l 1213 -22 l 1000 0 z "},"ॴ":{"ha":1833,"x_min":82,"x_max":1849,"o":"m 1000 0 l 1000 407 l 704 407 q 747 344 732 383 q 763 264 763 304 q 668 61 763 143 q 396 -21 574 -21 q 229 0 313 -21 q 82 56 146 21 l 121 229 q 250 172 186 190 q 381 153 314 153 q 498 184 449 153 q 547 274 547 215 q 503 374 547 338 q 356 410 460 410 l 215 410 l 193 567 l 361 567 q 486 603 444 567 q 528 693 528 640 q 493 766 528 735 q 394 797 458 797 q 271 778 332 797 q 135 714 210 760 l 100 888 q 249 949 168 926 q 411 971 329 971 q 663 892 581 971 q 744 701 744 814 q 727 628 744 667 q 685 567 710 590 l 1000 567 l 1000 775 l 868 775 l 844 944 l 1476 944 l 1476 1256 l 1685 1233 l 1685 944 l 1825 944 l 1849 775 l 1694 775 l 1694 -22 l 1479 0 l 1479 775 l 1214 775 l 1214 -22 l 1000 0 z "},"ॹ":{"ha":1147,"x_min":-15,"x_max":1164,"o":"m 794 0 l 794 479 l 647 479 q 660 430 654 457 q 665 375 665 403 q 561 138 665 214 q 324 61 457 61 q 158 90 239 61 q 21 156 78 118 l 57 349 q 187 268 121 297 q 315 239 253 239 q 424 275 383 239 q 465 367 465 311 q 437 446 465 413 q 342 479 408 479 l 250 479 l 225 646 l 794 646 l 794 775 l 8 775 l -15 944 l 1140 944 l 1164 775 l 1008 775 l 1008 -22 l 794 0 m 53 -85 q 85 -6 53 -39 q 164 28 118 28 q 244 -6 211 28 q 278 -85 278 -39 q 244 -164 278 -132 q 164 -196 211 -196 q 85 -164 118 -196 q 53 -85 53 -132 m 379 -85 q 411 -6 379 -39 q 490 28 443 28 q 570 -6 538 28 q 603 -85 603 -39 q 570 -164 603 -132 q 490 -196 538 -196 q 411 -164 443 -196 q 379 -85 379 -132 m 217 -286 q 249 -208 217 -242 q 328 -175 281 -175 q 407 -208 374 -175 q 440 -286 440 -242 q 407 -367 440 -333 q 328 -400 374 -400 q 249 -367 281 -400 q 217 -286 217 -333 z "},"ॺ":{"ha":944,"x_min":-15,"x_max":960,"o":"m 590 0 l 590 238 q 512 212 557 221 q 408 203 467 203 q 173 290 279 203 q 67 494 67 378 q 86 516 76 504 q 106 538 96 528 q 158 584 135 547 q 182 672 182 621 q 165 733 182 703 q 122 775 147 764 l 7 775 q -4 860 1 818 q -15 944 -10 901 l 936 944 l 960 775 l 804 775 l 804 -22 l 590 0 m 590 775 l 406 775 l 590 514 l 590 775 m 543 421 q 456 548 499 486 q 375 665 414 610 q 353 550 375 603 q 279 458 331 497 q 332 407 297 433 q 428 381 367 381 q 490 392 458 381 q 543 421 522 403 z "},"ॻ":{"ha":1014,"x_min":-15,"x_max":1028,"o":"m 874 -22 l 658 0 l 658 775 l 400 775 q 399 532 400 654 q 399 289 399 410 q 375 204 399 235 q 301 174 351 174 q 153 241 222 174 q 83 388 83 308 q 112 449 83 426 q 183 472 140 472 l 183 775 l 7 775 q -4 860 1 818 q -15 944 -10 901 l 1004 944 l 1028 775 l 874 775 l 874 -22 m 900 -265 l 119 -265 l 97 -99 l 876 -99 l 900 -265 z "},"ॼ":{"ha":1147,"x_min":-15,"x_max":1164,"o":"m 794 0 l 794 479 l 647 479 q 660 430 654 457 q 665 375 665 403 q 561 138 665 214 q 324 61 457 61 q 158 90 239 61 q 21 156 78 118 l 57 349 q 187 268 121 297 q 315 239 253 239 q 424 275 383 239 q 465 367 465 311 q 437 446 465 413 q 342 479 408 479 l 250 479 l 225 646 l 794 646 l 794 775 l 8 775 l -15 944 l 1140 944 l 1164 775 l 1008 775 l 1008 -22 l 794 0 m 976 -267 l 114 -267 l 92 -99 l 953 -99 l 976 -267 z "},"ॽ":{"ha":782,"x_min":78,"x_max":721,"o":"m 721 675 q 653 493 721 585 q 474 350 586 401 q 474 177 474 324 q 475 4 475 31 l 258 69 l 258 460 q 434 551 367 494 q 501 672 501 608 q 469 759 501 728 q 386 790 436 790 q 253 761 322 790 q 107 679 185 732 l 78 875 q 228 945 149 919 q 399 971 307 971 q 639 882 557 971 q 721 675 721 793 z "},"ॾ":{"ha":763,"x_min":-15,"x_max":778,"o":"m 378 153 q 469 174 438 153 q 500 225 500 194 q 484 266 500 249 q 433 283 468 283 l 317 283 q 147 342 225 283 q 69 503 69 400 q 140 666 69 611 q 314 721 210 721 l 449 721 l 449 775 l 8 775 l -15 944 l 754 944 l 778 775 l 638 775 l 638 544 l 325 544 q 285 533 300 544 q 271 503 271 521 q 287 472 271 486 q 326 458 303 458 l 422 458 q 634 405 550 458 q 718 226 718 351 q 633 55 718 131 q 389 -21 549 -21 q 222 -2 307 -21 q 74 51 138 17 l 111 225 q 243 169 176 186 q 378 153 310 153 m 703 -267 l 94 -267 l 71 -99 l 679 -99 l 703 -267 z "},"ॿ":{"ha":894,"x_min":-15,"x_max":910,"o":"m 540 0 l 540 115 q 469 87 515 99 q 385 75 424 75 q 147 164 239 75 q 54 382 54 253 q 147 601 54 513 q 385 689 239 689 q 469 677 424 689 q 540 650 515 665 l 540 775 l 7 775 q -4 860 1 818 q -15 944 -10 901 l 886 944 l 910 775 l 754 775 l 754 -22 l 540 0 m 532 311 q 536 316 533 313 q 540 324 539 319 l 540 440 q 489 492 522 467 q 399 517 456 517 q 378 515 389 517 q 357 510 367 514 l 532 311 m 461 257 q 374 358 418 307 q 285 457 329 408 q 269 424 275 443 q 263 383 263 404 q 306 283 263 318 q 407 249 350 249 q 437 251 422 249 q 461 257 451 254 m 789 -265 l 118 -265 l 94 -99 l 765 -99 l 789 -265 z "}}}
